<svg version="1.1" viewBox="0.0 0.0 720.0 540.0" fill="none" stroke="none" stroke-linecap="square" stroke-miterlimit="10" xmlns:xlink="http://www.w3.org/1999/xlink" xmlns="http://www.w3.org/2000/svg"><clipPath id="p.0"><path d="m0 0l720.0 0l0 540.0l-720.0 0l0 -540.0z" clip-rule="nonzero"/></clipPath><g clip-path="url(#p.0)"><path fill="#000000" fill-opacity="0.0" d="m0 0l720.0 0l0 540.0l-720.0 0z" fill-rule="evenodd"/><path fill="#e9edee" d="m173.77034 44.47769l231.14961 0l0 458.55118l-231.14961 0z" fill-rule="evenodd"/><path stroke="#1a1a1a" stroke-width="1.0" stroke-linejoin="round" stroke-linecap="butt" d="m173.77034 44.47769l231.14961 0l0 458.55118l-231.14961 0z" fill-rule="evenodd"/><path fill="#e9edee" d="m202.88846 297.2875l0 0c0 -3.1137085 2.52417 -5.637909 5.6378937 -5.637909l161.63759 0c1.4952698 0 2.9292908 0.59399414 3.9866028 1.6513062c1.057312 1.057312 1.6513062 2.491333 1.6513062 3.9866028l0 22.550964c0 3.113739 -2.5242004 5.637909 -5.637909 5.637909l-161.63759 0l0 0c-3.1137238 0 -5.6378937 -2.52417 -5.6378937 -5.637909z" fill-rule="evenodd"/><path stroke="#1a1a1a" stroke-width="1.0" stroke-linejoin="round" stroke-linecap="butt" d="m202.88846 297.2875l0 0c0 -3.1137085 2.52417 -5.637909 5.6378937 -5.637909l161.63759 0c1.4952698 0 2.9292908 0.59399414 3.9866028 1.6513062c1.057312 1.057312 1.6513062 2.491333 1.6513062 3.9866028l0 22.550964c0 3.113739 -2.5242004 5.637909 -5.637909 5.637909l-161.63759 0l0 0c-3.1137238 0 -5.6378937 -2.52417 -5.6378937 -5.637909z" fill-rule="evenodd"/><path fill="#b7b7b7" d="m214.53973 317.62613l-0.15625 -1.328125q0.453125 0.125 0.796875 0.125q0.46875 0 0.75 -0.15625q0.28125 -0.15625 0.46875 -0.4375q0.125 -0.203125 0.421875 -1.046875q0.046875 -0.109375 0.125 -0.34375l-3.140625 -8.3125l1.515625 0l1.71875 4.796875q0.34375 0.921875 0.609375 1.921875q0.234375 -0.96875 0.578125 -1.890625l1.765625 -4.828125l1.40625 0l-3.15625 8.4375q-0.5 1.375 -0.78125 1.890625q-0.375 0.6875 -0.859375 1.015625q-0.484375 0.328125 -1.15625 0.328125q-0.40625 0 -0.90625 -0.171875zm7.53125 -7.359375q0 -2.296875 1.28125 -3.40625q1.078125 -0.921875 2.609375 -0.921875q1.71875 0 2.796875 1.125q1.09375 1.109375 1.09375 3.09375q0 1.59375 -0.484375 2.515625q-0.484375 0.921875 -1.40625 1.4375q-0.90625 0.5 -2.0 0.5q-1.734375 0 -2.8125 -1.109375q-1.078125 -1.125 -1.078125 -3.234375zm1.453125 0q0 1.59375 0.6875 2.390625q0.703125 0.796875 1.75 0.796875q1.046875 0 1.734375 -0.796875q0.703125 -0.796875 0.703125 -2.4375q0 -1.53125 -0.703125 -2.328125q-0.6875 -0.796875 -1.734375 -0.796875q-1.046875 0 -1.75 0.796875q-0.6875 0.78125 -0.6875 2.375zm13.4140625 4.15625l0 -1.21875q-0.96875 1.40625 -2.640625 1.40625q-0.734375 0 -1.375 -0.28125q-0.625 -0.28125 -0.9375 -0.703125q-0.3125 -0.4375 -0.4375 -1.046875q-0.078125 -0.421875 -0.078125 -1.3125l0 -5.140625l1.40625 0l0 4.59375q0 1.109375 0.078125 1.484375q0.140625 0.5625 0.5625 0.875q0.4375 0.3125 1.0625 0.3125q0.640625 0 1.1875 -0.3125q0.5625 -0.328125 0.78125 -0.890625q0.234375 -0.5625 0.234375 -1.625l0 -4.4375l1.40625 0l0 8.296875l-1.25 0zm3.4453125 0l0 -8.296875l1.265625 0l0 1.25q0.484375 -0.875 0.890625 -1.15625q0.40625 -0.28125 0.90625 -0.28125q0.703125 0 1.4375 0.453125l-0.484375 1.296875q-0.515625 -0.296875 -1.03125 -0.296875q-0.453125 0 -0.828125 0.28125q-0.359375 0.265625 -0.515625 0.765625q-0.234375 0.75 -0.234375 1.640625l0 4.34375l-1.40625 0zm13.359375 -1.28125q-0.515625 0.59375 -1.140625 0.953125q-0.625 0.359375 -1.265625 0.359375q-0.6875 0 -1.34375 -0.40625q-0.65625 -0.421875 -1.078125 -1.265625q-0.40625 -0.84375 -0.40625 -1.84375q0 -1.25 0.640625 -2.484375q0.640625 -1.25 1.578125 -1.875q0.953125 -0.625 1.84375 -0.625q0.671875 0 1.28125 0.359375q0.625 0.34375 1.078125 1.078125l0.265625 -1.21875l1.390625 0l-1.125 5.25q-0.234375 1.09375 -0.234375 1.203125q0 0.21875 0.15625 0.375q0.171875 0.140625 0.390625 0.140625q0.421875 0 1.09375 -0.46875q0.890625 -0.625 1.40625 -1.671875q0.515625 -1.0625 0.515625 -2.171875q0 -1.3125 -0.671875 -2.4375q-0.65625 -1.140625 -1.984375 -1.8125q-1.328125 -0.6875 -2.921875 -0.6875q-1.828125 0 -3.34375 0.859375q-1.515625 0.859375 -2.34375 2.453125q-0.828125 1.59375 -0.828125 3.421875q0 1.921875 0.828125 3.3125q0.828125 1.375 2.40625 2.03125q1.578125 0.671875 3.484375 0.671875q2.046875 0 3.421875 -0.6875q1.390625 -0.6875 2.078125 -1.6875l1.421875 0q-0.40625 0.828125 -1.375 1.671875q-0.96875 0.859375 -2.3125 1.359375q-1.328125 0.5 -3.203125 0.5q-1.734375 0 -3.203125 -0.453125q-1.46875 -0.4375 -2.5 -1.34375q-1.03125 -0.890625 -1.546875 -2.0625q-0.65625 -1.46875 -0.65625 -3.1875q0 -1.90625 0.78125 -3.625q0.953125 -2.125 2.703125 -3.25q1.75 -1.125 4.25 -1.125q1.9375 0 3.484375 0.796875q1.546875 0.796875 2.4375 2.359375q0.75 1.359375 0.75 2.9375q0 2.265625 -1.59375 4.03125q-1.421875 1.578125 -3.109375 1.578125q-0.53125 0 -0.875 -0.15625q-0.328125 -0.171875 -0.484375 -0.484375q-0.09375 -0.1875 -0.140625 -0.671875zm-3.78125 -2.109375q0 1.0625 0.5 1.65625q0.515625 0.59375 1.171875 0.59375q0.4375 0 0.921875 -0.25q0.484375 -0.265625 0.921875 -0.78125q0.4375 -0.515625 0.71875 -1.3125q0.28125 -0.796875 0.28125 -1.59375q0 -1.0625 -0.53125 -1.640625q-0.515625 -0.59375 -1.28125 -0.59375q-0.5 0 -0.9375 0.265625q-0.4375 0.25 -0.859375 0.8125q-0.40625 0.5625 -0.65625 1.375q-0.25 0.796875 -0.25 1.46875zm17.679688 0.71875l1.453125 0.171875q-0.34375 1.28125 -1.28125 1.984375q-0.921875 0.703125 -2.359375 0.703125q-1.828125 0 -2.890625 -1.125q-1.0625 -1.125 -1.0625 -3.140625q0 -2.09375 1.078125 -3.25q1.078125 -1.15625 2.796875 -1.15625q1.65625 0 2.703125 1.140625q1.0625 1.125 1.0625 3.171875q0 0.125 0 0.375l-6.1875 0q0.078125 1.375 0.765625 2.109375q0.703125 0.71875 1.734375 0.71875q0.78125 0 1.328125 -0.40625q0.546875 -0.40625 0.859375 -1.296875zm-4.609375 -2.28125l4.625 0q-0.09375 -1.046875 -0.53125 -1.5625q-0.671875 -0.8125 -1.734375 -0.8125q-0.96875 0 -1.640625 0.65625q-0.65625 0.640625 -0.71875 1.71875zm7.8359375 4.953125l0 -8.296875l1.25 0l0 1.15625q0.390625 -0.609375 1.03125 -0.96875q0.65625 -0.375 1.484375 -0.375q0.921875 0 1.515625 0.390625q0.59375 0.375 0.828125 1.0625q0.984375 -1.453125 2.5625 -1.453125q1.234375 0 1.890625 0.6875q0.671875 0.671875 0.671875 2.09375l0 5.703125l-1.390625 0l0 -5.234375q0 -0.84375 -0.140625 -1.203125q-0.140625 -0.375 -0.5 -0.59375q-0.359375 -0.234375 -0.84375 -0.234375q-0.875 0 -1.453125 0.578125q-0.578125 0.578125 -0.578125 1.859375l0 4.828125l-1.40625 0l0 -5.390625q0 -0.9375 -0.34375 -1.40625q-0.34375 -0.46875 -1.125 -0.46875q-0.59375 0 -1.09375 0.3125q-0.5 0.3125 -0.734375 0.921875q-0.21875 0.59375 -0.21875 1.71875l0 4.3125l-1.40625 0zm18.734375 -1.03125q-0.78125 0.671875 -1.5 0.953125q-0.71875 0.265625 -1.546875 0.265625q-1.375 0 -2.109375 -0.671875q-0.734375 -0.671875 -0.734375 -1.703125q0 -0.609375 0.28125 -1.109375q0.28125 -0.515625 0.71875 -0.8125q0.453125 -0.3125 1.015625 -0.46875q0.421875 -0.109375 1.25 -0.203125q1.703125 -0.203125 2.515625 -0.484375q0 -0.296875 0 -0.375q0 -0.859375 -0.390625 -1.203125q-0.546875 -0.484375 -1.609375 -0.484375q-0.984375 0 -1.46875 0.359375q-0.46875 0.34375 -0.6875 1.21875l-1.375 -0.1875q0.1875 -0.875 0.609375 -1.421875q0.4375 -0.546875 1.25 -0.828125q0.8125 -0.296875 1.875 -0.296875q1.0625 0 1.71875 0.25q0.671875 0.25 0.984375 0.625q0.3125 0.375 0.4375 0.953125q0.078125 0.359375 0.078125 1.296875l0 1.875q0 1.96875 0.078125 2.484375q0.09375 0.515625 0.359375 1.0l-1.46875 0q-0.21875 -0.4375 -0.28125 -1.03125zm-0.109375 -3.140625q-0.765625 0.3125 -2.296875 0.53125q-0.875 0.125 -1.234375 0.28125q-0.359375 0.15625 -0.5625 0.46875q-0.1875 0.296875 -0.1875 0.65625q0 0.5625 0.421875 0.9375q0.4375 0.375 1.25 0.375q0.8125 0 1.4375 -0.34375q0.640625 -0.359375 0.9375 -0.984375q0.234375 -0.46875 0.234375 -1.40625l0 -0.515625zm3.6015625 -5.671875l0 -1.609375l1.40625 0l0 1.609375l-1.40625 0zm0 9.84375l0 -8.296875l1.40625 0l0 8.296875l-1.40625 0zm3.5234375 0l0 -11.453125l1.40625 0l0 11.453125l-1.40625 0zm3.9765625 0l0 -1.609375l1.609375 0l0 1.609375l-1.609375 0zm9.4609375 -3.046875l1.390625 0.1875q-0.234375 1.421875 -1.171875 2.234375q-0.921875 0.8125 -2.28125 0.8125q-1.703125 0 -2.75 -1.109375q-1.03125 -1.125 -1.03125 -3.203125q0 -1.34375 0.4375 -2.34375q0.453125 -1.015625 1.359375 -1.515625q0.921875 -0.5 1.984375 -0.5q1.359375 0 2.21875 0.6875q0.859375 0.671875 1.09375 1.9375l-1.359375 0.203125q-0.203125 -0.828125 -0.703125 -1.25q-0.484375 -0.421875 -1.1875 -0.421875q-1.0625 0 -1.734375 0.765625q-0.65625 0.75 -0.65625 2.40625q0 1.671875 0.640625 2.4375q0.640625 0.75 1.671875 0.75q0.828125 0 1.375 -0.5q0.5625 -0.515625 0.703125 -1.578125zm2.0625 -1.109375q0 -2.296875 1.28125 -3.40625q1.078125 -0.921875 2.609375 -0.921875q1.71875 0 2.796875 1.125q1.09375 1.109375 1.09375 3.09375q0 1.59375 -0.484375 2.515625q-0.484375 0.921875 -1.40625 1.4375q-0.90625 0.5 -2.0 0.5q-1.734375 0 -2.8125 -1.109375q-1.078125 -1.125 -1.078125 -3.234375zm1.453125 0q0 1.59375 0.6875 2.390625q0.703125 0.796875 1.75 0.796875q1.046875 0 1.734375 -0.796875q0.703125 -0.796875 0.703125 -2.4375q0 -1.53125 -0.703125 -2.328125q-0.6875 -0.796875 -1.734375 -0.796875q-1.046875 0 -1.75 0.796875q-0.6875 0.78125 -0.6875 2.375zm7.9765625 4.15625l0 -8.296875l1.25 0l0 1.15625q0.390625 -0.609375 1.03125 -0.96875q0.65625 -0.375 1.484375 -0.375q0.921875 0 1.515625 0.390625q0.59375 0.375 0.828125 1.0625q0.984375 -1.453125 2.5625 -1.453125q1.234375 0 1.890625 0.6875q0.671875 0.671875 0.671875 2.09375l0 5.703125l-1.390625 0l0 -5.234375q0 -0.84375 -0.140625 -1.203125q-0.140625 -0.375 -0.5 -0.59375q-0.359375 -0.234375 -0.84375 -0.234375q-0.875 0 -1.453125 0.578125q-0.578125 0.578125 -0.578125 1.859375l0 4.828125l-1.40625 0l0 -5.390625q0 -0.9375 -0.34375 -1.40625q-0.34375 -0.46875 -1.125 -0.46875q-0.59375 0 -1.09375 0.3125q-0.5 0.3125 -0.734375 0.921875q-0.21875 0.59375 -0.21875 1.71875l0 4.3125l-1.40625 0z" fill-rule="nonzero"/><path fill="#e9edee" d="m202.88846 338.5946l0 0c0 -3.113739 2.52417 -5.637909 5.6378937 -5.637909l161.63759 0c1.4952698 0 2.9292908 0.59399414 3.9866028 1.6513062c1.057312 1.057312 1.6513062 2.491333 1.6513062 3.9866028l0 22.550964c0 3.1137085 -2.5242004 5.637909 -5.637909 5.637909l-161.63759 0l0 0c-3.1137238 0 -5.6378937 -2.5242004 -5.6378937 -5.637909z" fill-rule="evenodd"/><path stroke="#1a1a1a" stroke-width="1.0" stroke-linejoin="round" stroke-linecap="butt" d="m202.88846 338.5946l0 0c0 -3.113739 2.52417 -5.637909 5.6378937 -5.637909l161.63759 0c1.4952698 0 2.9292908 0.59399414 3.9866028 1.6513062c1.057312 1.057312 1.6513062 2.491333 1.6513062 3.9866028l0 22.550964c0 3.1137085 -2.5242004 5.637909 -5.637909 5.637909l-161.63759 0l0 0c-3.1137238 0 -5.6378937 -2.5242004 -5.6378937 -5.637909z" fill-rule="evenodd"/><path fill="#b7b7b7" d="m214.03973 346.3707l0.359375 -1.109375q1.25 0.4375 1.8125 0.765625q-0.15625 -1.421875 -0.15625 -1.953125l1.125 0q-0.015625 0.78125 -0.171875 1.9375q0.796875 -0.40625 1.84375 -0.75l0.359375 1.109375q-1.0 0.328125 -1.953125 0.4375q0.484375 0.421875 1.34375 1.484375l-0.9375 0.65625q-0.453125 -0.609375 -1.0625 -1.671875q-0.578125 1.09375 -1.015625 1.671875l-0.921875 -0.65625q0.90625 -1.125 1.296875 -1.484375q-1.015625 -0.1875 -1.921875 -0.4375zm6.2265625 0l0.359375 -1.109375q1.25 0.4375 1.8125 0.765625q-0.15625 -1.421875 -0.15625 -1.953125l1.125 0q-0.015625 0.78125 -0.171875 1.9375q0.796875 -0.40625 1.84375 -0.75l0.359375 1.109375q-1.0 0.328125 -1.953125 0.4375q0.484375 0.421875 1.34375 1.484375l-0.9375 0.65625q-0.453125 -0.609375 -1.0625 -1.671875q-0.578125 1.09375 -1.015625 1.671875l-0.921875 -0.65625q0.90625 -1.125 1.296875 -1.484375q-1.015625 -0.1875 -1.921875 -0.4375zm6.2265625 0l0.359375 -1.109375q1.25 0.4375 1.8125 0.765625q-0.15625 -1.421875 -0.15625 -1.953125l1.125 0q-0.015625 0.78125 -0.171875 1.9375q0.796875 -0.40625 1.84375 -0.75l0.359375 1.109375q-1.0 0.328125 -1.953125 0.4375q0.484375 0.421875 1.34375 1.484375l-0.9375 0.65625q-0.453125 -0.609375 -1.0625 -1.671875q-0.578125 1.09375 -1.015625 1.671875l-0.921875 -0.65625q0.90625 -1.125 1.296875 -1.484375q-1.015625 -0.1875 -1.921875 -0.4375zm6.2265625 0l0.359375 -1.109375q1.25 0.4375 1.8125 0.765625q-0.15625 -1.421875 -0.15625 -1.953125l1.125 0q-0.015625 0.78125 -0.171875 1.9375q0.796875 -0.40625 1.84375 -0.75l0.359375 1.109375q-1.0 0.328125 -1.953125 0.4375q0.484375 0.421875 1.34375 1.484375l-0.9375 0.65625q-0.453125 -0.609375 -1.0625 -1.671875q-0.578125 1.09375 -1.015625 1.671875l-0.921875 -0.65625q0.90625 -1.125 1.296875 -1.484375q-1.015625 -0.1875 -1.921875 -0.4375zm6.2265625 0l0.359375 -1.109375q1.25 0.4375 1.8125 0.765625q-0.15625 -1.421875 -0.15625 -1.953125l1.125 0q-0.015625 0.78125 -0.171875 1.9375q0.796875 -0.40625 1.84375 -0.75l0.359375 1.109375q-1.0 0.328125 -1.953125 0.4375q0.484375 0.421875 1.34375 1.484375l-0.9375 0.65625q-0.453125 -0.609375 -1.0625 -1.671875q-0.578125 1.09375 -1.015625 1.671875l-0.921875 -0.65625q0.90625 -1.125 1.296875 -1.484375q-1.015625 -0.1875 -1.921875 -0.4375zm6.2265625 0l0.359375 -1.109375q1.25 0.4375 1.8125 0.765625q-0.15625 -1.421875 -0.15625 -1.953125l1.125 0q-0.015625 0.78125 -0.171875 1.9375q0.796875 -0.40625 1.84375 -0.75l0.359375 1.109375q-1.0 0.328125 -1.953125 0.4375q0.484375 0.421875 1.34375 1.484375l-0.9375 0.65625q-0.453125 -0.609375 -1.0625 -1.671875q-0.578125 1.09375 -1.015625 1.671875l-0.921875 -0.65625q0.90625 -1.125 1.296875 -1.484375q-1.015625 -0.1875 -1.921875 -0.4375z" fill-rule="nonzero"/><path fill="#a4c2f4" d="m202.88846 160.13397l0 0c0 -3.113739 2.52417 -5.637909 5.6378937 -5.637909l161.63759 0c1.4952698 0 2.9292908 0.59399414 3.9866028 1.6513062c1.057312 1.057312 1.6513062 2.491333 1.6513062 3.9866028l0 22.55095c0 3.113739 -2.5242004 5.637909 -5.637909 5.637909l-161.63759 0l0 0c-3.1137238 0 -5.6378937 -2.52417 -5.6378937 -5.637909z" fill-rule="evenodd"/><path stroke="#1a1a1a" stroke-width="1.0" stroke-linejoin="round" stroke-linecap="butt" d="m202.88846 160.13397l0 0c0 -3.113739 2.52417 -5.637909 5.6378937 -5.637909l161.63759 0c1.4952698 0 2.9292908 0.59399414 3.9866028 1.6513062c1.057312 1.057312 1.6513062 2.491333 1.6513062 3.9866028l0 22.55095c0 3.113739 -2.5242004 5.637909 -5.637909 5.637909l-161.63759 0l0 0c-3.1137238 0 -5.6378937 -2.52417 -5.6378937 -5.637909z" fill-rule="evenodd"/><path fill="#ffffff" d="m215.03973 177.26945l0 -11.453125l1.515625 0l0 11.453125l-1.515625 0zm4.1796875 0l0 -11.453125l3.953125 0q1.328125 0 2.03125 0.15625q0.984375 0.234375 1.6875 0.828125q0.90625 0.765625 1.34375 1.953125q0.453125 1.1875 0.453125 2.71875q0 1.3125 -0.3125 2.328125q-0.296875 1.0 -0.78125 1.65625q-0.46875 0.65625 -1.03125 1.046875q-0.5625 0.375 -1.375 0.578125q-0.796875 0.1875 -1.828125 0.1875l-4.140625 0zm1.515625 -1.359375l2.453125 0q1.125 0 1.765625 -0.203125q0.65625 -0.21875 1.03125 -0.59375q0.546875 -0.546875 0.84375 -1.453125q0.296875 -0.90625 0.296875 -2.203125q0 -1.796875 -0.59375 -2.765625q-0.578125 -0.96875 -1.421875 -1.296875q-0.609375 -0.234375 -1.96875 -0.234375l-2.40625 0l0 8.75zm10.0390625 1.359375l0 -11.453125l4.328125 0q1.140625 0 1.734375 0.109375q0.84375 0.140625 1.40625 0.53125q0.578125 0.390625 0.921875 1.109375q0.359375 0.703125 0.359375 1.5625q0 1.453125 -0.9375 2.46875q-0.921875 1.015625 -3.359375 1.015625l-2.9375 0l0 4.65625l-1.515625 0zm1.515625 -6.015625l2.96875 0q1.46875 0 2.078125 -0.546875q0.625 -0.546875 0.625 -1.53125q0 -0.71875 -0.375 -1.234375q-0.359375 -0.515625 -0.953125 -0.671875q-0.375 -0.109375 -1.40625 -0.109375l-2.9375 0l0 4.09375zm13.890625 6.015625l-1.40625 0l0 -8.96875q-0.515625 0.484375 -1.34375 0.96875q-0.8125 0.484375 -1.46875 0.734375l0 -1.359375q1.171875 -0.5625 2.046875 -1.34375q0.890625 -0.796875 1.265625 -1.53125l0.90625 0l0 11.5z" fill-rule="nonzero"/><path fill="#eb5600" d="m202.88846 208.0841l0 0c0 -3.113739 2.52417 -5.637909 5.6378937 -5.637909l161.63759 0c1.4952698 0 2.9292908 0.59399414 3.9866028 1.6513062c1.057312 1.057312 1.6513062 2.491333 1.6513062 3.9866028l0 22.55095c0 3.113739 -2.5242004 5.637909 -5.637909 5.637909l-161.63759 0l0 0c-3.1137238 0 -5.6378937 -2.52417 -5.6378937 -5.637909z" fill-rule="evenodd"/><path stroke="#1a1a1a" stroke-width="1.0" stroke-linejoin="round" stroke-linecap="butt" d="m202.88846 208.0841l0 0c0 -3.113739 2.52417 -5.637909 5.6378937 -5.637909l161.63759 0c1.4952698 0 2.9292908 0.59399414 3.9866028 1.6513062c1.057312 1.057312 1.6513062 2.491333 1.6513062 3.9866028l0 22.55095c0 3.113739 -2.5242004 5.637909 -5.637909 5.637909l-161.63759 0l0 0c-3.1137238 0 -5.6378937 -2.52417 -5.6378937 -5.637909z" fill-rule="evenodd"/><path fill="#ffffff" d="m215.03973 225.21957l0 -11.453125l1.515625 0l0 11.453125l-1.515625 0zm4.1796875 0l0 -11.453125l3.953125 0q1.328125 0 2.03125 0.15625q0.984375 0.234375 1.6875 0.828125q0.90625 0.765625 1.34375 1.953125q0.453125 1.1875 0.453125 2.71875q0 1.3125 -0.3125 2.328125q-0.296875 1.0 -0.78125 1.65625q-0.46875 0.65625 -1.03125 1.046875q-0.5625 0.375 -1.375 0.578125q-0.796875 0.1875 -1.828125 0.1875l-4.140625 0zm1.515625 -1.359375l2.453125 0q1.125 0 1.765625 -0.203125q0.65625 -0.21875 1.03125 -0.59375q0.546875 -0.546875 0.84375 -1.453125q0.296875 -0.90625 0.296875 -2.203125q0 -1.796875 -0.59375 -2.765625q-0.578125 -0.96875 -1.421875 -1.296875q-0.609375 -0.234375 -1.96875 -0.234375l-2.40625 0l0 8.75zm10.0390625 1.359375l0 -11.453125l4.328125 0q1.140625 0 1.734375 0.109375q0.84375 0.140625 1.40625 0.53125q0.578125 0.390625 0.921875 1.109375q0.359375 0.703125 0.359375 1.5625q0 1.453125 -0.9375 2.46875q-0.921875 1.015625 -3.359375 1.015625l-2.9375 0l0 4.65625l-1.515625 0zm1.515625 -6.015625l2.96875 0q1.46875 0 2.078125 -0.546875q0.625 -0.546875 0.625 -1.53125q0 -0.71875 -0.375 -1.234375q-0.359375 -0.515625 -0.953125 -0.671875q-0.375 -0.109375 -1.40625 -0.109375l-2.9375 0l0 4.09375zm15.984375 4.65625l0 1.359375l-7.578125 0q-0.015625 -0.515625 0.171875 -0.984375q0.28125 -0.765625 0.921875 -1.515625q0.640625 -0.75 1.84375 -1.734375q1.859375 -1.53125 2.515625 -2.421875q0.65625 -0.90625 0.65625 -1.703125q0 -0.828125 -0.59375 -1.40625q-0.59375 -0.578125 -1.5625 -0.578125q-1.015625 0 -1.625 0.609375q-0.609375 0.609375 -0.609375 1.6875l-1.453125 -0.140625q0.15625 -1.625 1.125 -2.46875q0.96875 -0.84375 2.59375 -0.84375q1.65625 0 2.609375 0.921875q0.96875 0.90625 0.96875 2.25q0 0.6875 -0.28125 1.359375q-0.28125 0.65625 -0.9375 1.390625q-0.65625 0.734375 -2.171875 2.015625q-1.265625 1.0625 -1.625 1.453125q-0.359375 0.375 -0.59375 0.75l5.625 0z" fill-rule="nonzero"/><path fill="#e9edee" d="m202.88846 410.82556l0 0c0 -3.1137085 2.52417 -5.637909 5.6378937 -5.637909l161.63759 0c1.4952698 0 2.9292908 0.59399414 3.9866028 1.6513062c1.057312 1.057312 1.6513062 2.491333 1.6513062 3.9866028l0 22.550964c0 3.113739 -2.5242004 5.637909 -5.637909 5.637909l-161.63759 0l0 0c-3.1137238 0 -5.6378937 -2.52417 -5.6378937 -5.637909z" fill-rule="evenodd"/><path stroke="#1a1a1a" stroke-width="1.0" stroke-linejoin="round" stroke-linecap="butt" d="m202.88846 410.82556l0 0c0 -3.1137085 2.52417 -5.637909 5.6378937 -5.637909l161.63759 0c1.4952698 0 2.9292908 0.59399414 3.9866028 1.6513062c1.057312 1.057312 1.6513062 2.491333 1.6513062 3.9866028l0 22.550964c0 3.113739 -2.5242004 5.637909 -5.637909 5.637909l-161.63759 0l0 0c-3.1137238 0 -5.6378937 -2.52417 -5.6378937 -5.637909z" fill-rule="evenodd"/><path fill="#595959" d="m261.60297 424.27356l1.4375 -0.125q0.09375 0.859375 0.46875 1.421875q0.375 0.546875 1.15625 0.890625q0.78125 0.328125 1.75 0.328125q0.875 0 1.53125 -0.25q0.671875 -0.265625 0.984375 -0.703125q0.328125 -0.453125 0.328125 -0.984375q0 -0.546875 -0.3125 -0.9375q-0.3125 -0.40625 -1.03125 -0.6875q-0.453125 -0.171875 -2.03125 -0.546875q-1.578125 -0.390625 -2.21875 -0.71875q-0.8125 -0.4375 -1.21875 -1.0625q-0.40625 -0.640625 -0.40625 -1.4375q0 -0.859375 0.484375 -1.609375q0.5 -0.765625 1.4375 -1.15625q0.953125 -0.390625 2.109375 -0.390625q1.28125 0 2.25 0.421875q0.96875 0.40625 1.484375 1.203125q0.53125 0.796875 0.578125 1.796875l-1.453125 0.109375q-0.125 -1.078125 -0.796875 -1.625q-0.671875 -0.5625 -2.0 -0.5625q-1.375 0 -2.0 0.5q-0.625 0.5 -0.625 1.21875q0 0.609375 0.4375 1.015625q0.4375 0.390625 2.28125 0.8125q1.859375 0.421875 2.546875 0.734375q1.0 0.453125 1.46875 1.171875q0.484375 0.703125 0.484375 1.625q0 0.90625 -0.53125 1.71875q-0.515625 0.8125 -1.5 1.265625q-0.984375 0.453125 -2.203125 0.453125q-1.5625 0 -2.609375 -0.453125q-1.046875 -0.46875 -1.65625 -1.375q-0.59375 -0.90625 -0.625 -2.0625zm11.015625 -6.15625l0 -1.609375l1.40625 0l0 1.609375l-1.40625 0zm0 9.84375l0 -8.296875l1.40625 0l0 8.296875l-1.40625 0zm3.2890625 0.6875l1.375 0.203125q0.078125 0.640625 0.46875 0.921875q0.53125 0.390625 1.4375 0.390625q0.96875 0 1.5 -0.390625q0.53125 -0.390625 0.71875 -1.09375q0.109375 -0.421875 0.109375 -1.8125q-0.921875 1.09375 -2.296875 1.09375q-1.71875 0 -2.65625 -1.234375q-0.9375 -1.234375 -0.9375 -2.96875q0 -1.1875 0.421875 -2.1875q0.4375 -1.0 1.25 -1.546875q0.828125 -0.546875 1.921875 -0.546875q1.46875 0 2.421875 1.1875l0 -1.0l1.296875 0l0 7.171875q0 1.9375 -0.390625 2.75q-0.390625 0.8125 -1.25 1.28125q-0.859375 0.46875 -2.109375 0.46875q-1.484375 0 -2.40625 -0.671875q-0.90625 -0.671875 -0.875 -2.015625zm1.171875 -4.984375q0 1.625 0.640625 2.375q0.65625 0.75 1.625 0.75q0.96875 0 1.625 -0.734375q0.65625 -0.75 0.65625 -2.34375q0 -1.53125 -0.671875 -2.296875q-0.671875 -0.78125 -1.625 -0.78125q-0.9375 0 -1.59375 0.765625q-0.65625 0.765625 -0.65625 2.265625zm7.9921875 4.296875l0 -8.296875l1.265625 0l0 1.171875q0.90625 -1.359375 2.640625 -1.359375q0.75 0 1.375 0.265625q0.625 0.265625 0.9375 0.703125q0.3125 0.4375 0.4375 1.046875q0.078125 0.390625 0.078125 1.359375l0 5.109375l-1.40625 0l0 -5.046875q0 -0.859375 -0.171875 -1.28125q-0.15625 -0.4375 -0.578125 -0.6875q-0.40625 -0.25 -0.96875 -0.25q-0.90625 0 -1.5625 0.578125q-0.640625 0.5625 -0.640625 2.15625l0 4.53125l-1.40625 0zm21.03125 -11.453125l1.515625 0l0 6.609375q0 1.734375 -0.390625 2.75q-0.390625 1.015625 -1.40625 1.65625q-1.015625 0.640625 -2.671875 0.640625q-1.609375 0 -2.640625 -0.5625q-1.015625 -0.5625 -1.453125 -1.609375q-0.4375 -1.046875 -0.4375 -2.875l0 -6.609375l1.515625 0l0 6.609375q0 1.484375 0.265625 2.203125q0.28125 0.703125 0.953125 1.09375q0.6875 0.375 1.65625 0.375q1.671875 0 2.375 -0.75q0.71875 -0.765625 0.71875 -2.921875l0 -6.609375zm3.8671875 14.640625l0 -11.484375l1.28125 0l0 1.078125q0.453125 -0.640625 1.015625 -0.953125q0.578125 -0.3125 1.390625 -0.3125q1.0625 0 1.875 0.546875q0.8125 0.546875 1.21875 1.546875q0.421875 0.984375 0.421875 2.171875q0 1.28125 -0.46875 2.296875q-0.453125 1.015625 -1.328125 1.5625q-0.859375 0.546875 -1.828125 0.546875q-0.703125 0 -1.265625 -0.296875q-0.546875 -0.296875 -0.90625 -0.75l0 4.046875l-1.40625 0zm1.265625 -7.296875q0 1.609375 0.640625 2.375q0.65625 0.765625 1.578125 0.765625q0.9375 0 1.609375 -0.796875q0.671875 -0.796875 0.671875 -2.453125q0 -1.59375 -0.65625 -2.375q-0.65625 -0.796875 -1.5625 -0.796875q-0.890625 0 -1.59375 0.84375q-0.6875 0.84375 -0.6875 2.4375z" fill-rule="nonzero"/><path fill="#000000" fill-opacity="0.0" d="m259.58136 252.10367l59.527557 0l0 25.070862l-59.527557 0z" fill-rule="evenodd"/><path fill="#595959" d="m286.12637 262.26474q0.875 0 1.59375 0.296875q0.71875 0.296875 1.21875 0.84375q0.5 0.546875 0.765625 1.3125q0.265625 0.765625 0.265625 1.71875q0 0.96875 -0.265625 1.734375q-0.265625 0.765625 -0.765625 1.3125q-0.5 0.546875 -1.21875 0.84375q-0.71875 0.28125 -1.59375 0.28125q-0.890625 0 -1.609375 -0.28125q-0.71875 -0.296875 -1.21875 -0.84375q-0.5 -0.546875 -0.78125 -1.3125q-0.265625 -0.765625 -0.265625 -1.734375q0 -0.953125 0.265625 -1.71875q0.28125 -0.765625 0.78125 -1.3125q0.5 -0.546875 1.21875 -0.84375q0.71875 -0.296875 1.609375 -0.296875zm0 7.234375q1.1875 0 1.78125 -0.796875q0.59375 -0.8125 0.59375 -2.25q0 -1.453125 -0.59375 -2.25q-0.59375 -0.8125 -1.78125 -0.8125q-0.609375 0 -1.0625 0.203125q-0.453125 0.203125 -0.75 0.609375q-0.296875 0.390625 -0.453125 0.96875q-0.140625 0.5625 -0.140625 1.28125q0 0.71875 0.140625 1.296875q0.15625 0.5625 0.453125 0.953125q0.296875 0.375 0.75 0.59375q0.453125 0.203125 1.0625 0.203125zm5.614624 1.0l0 -8.109375l0.8125 0q0.234375 0 0.3125 0.09375q0.09375 0.09375 0.125 0.296875l0.09375 1.265625q0.421875 -0.84375 1.03125 -1.3125q0.609375 -0.484375 1.4375 -0.484375q0.328125 0 0.59375 0.078125q0.28125 0.078125 0.515625 0.21875l-0.1875 1.0625q-0.046875 0.1875 -0.25 0.1875q-0.109375 0 -0.34375 -0.0625q-0.21875 -0.078125 -0.640625 -0.078125q-0.75 0 -1.25 0.4375q-0.5 0.421875 -0.828125 1.25l0 5.15625l-1.421875 0z" fill-rule="nonzero"/><path fill="#000000" fill-opacity="0.0" d="m173.77034 117.61155l231.14961 0l0 25.07087l-231.14961 0z" fill-rule="evenodd"/><path fill="#595959" d="m218.08691 133.63199q0.125 0 0.234375 0.109375l0.609375 0.671875q-0.703125 0.8125 -1.71875 1.265625q-1.0 0.453125 -2.40625 0.453125q-1.25 0 -2.265625 -0.421875q-1.0 -0.4375 -1.71875 -1.203125q-0.703125 -0.765625 -1.09375 -1.84375q-0.390625 -1.09375 -0.390625 -2.390625q0 -1.296875 0.421875 -2.3750076q0.421875 -1.078125 1.171875 -1.84375q0.765625 -0.78125 1.828125 -1.203125q1.0625 -0.4375 2.34375 -0.4375q1.265625 0 2.171875 0.390625q0.921875 0.390625 1.625 1.0625l-0.5 0.71875q-0.046875 0.078125 -0.125 0.140625q-0.078125 0.046875 -0.203125 0.046875q-0.109375 0 -0.234375 -0.078125q-0.109375 -0.078125 -0.265625 -0.1875q-0.15625 -0.109375 -0.375 -0.234375q-0.21875 -0.140625 -0.515625 -0.25q-0.296875 -0.109375 -0.6875 -0.1875q-0.390625 -0.078125 -0.90625 -0.078125q-0.921875 0 -1.6875 0.328125q-0.75 0.3125 -1.3125 0.890625q-0.546875 0.578125 -0.859375 1.4218826q-0.3125 0.84375 -0.3125 1.875q0 1.078125 0.3125 1.921875q0.3125 0.84375 0.84375 1.421875q0.53125 0.578125 1.25 0.890625q0.734375 0.296875 1.578125 0.296875q0.515625 0 0.921875 -0.0625q0.40625 -0.0625 0.75 -0.1875q0.34375 -0.125 0.640625 -0.3125q0.3125 -0.203125 0.609375 -0.484375q0.140625 -0.125 0.265625 -0.125zm2.6629791 2.375l0 -8.109383l0.8125 0q0.234375 0 0.3125 0.09375q0.09375 0.09375763 0.125 0.29688263l0.09375 1.265625q0.421875 -0.84375 1.03125 -1.3125q0.609375 -0.48438263 1.4375 -0.48438263q0.328125 0 0.59375 0.078125q0.28125 0.078125 0.515625 0.21875763l-0.1875 1.0625q-0.046875 0.1875 -0.25 0.1875q-0.109375 0 -0.34375 -0.0625q-0.21875 -0.078125 -0.640625 -0.078125q-0.75 0 -1.25 0.4375q-0.5 0.421875 -0.828125 1.25l0 5.15625l-1.421875 0zm9.651047 -8.234383q0.734375 0 1.34375 0.25000763q0.609375 0.234375 1.0625 0.703125q0.453125 0.453125 0.703125 1.140625q0.25 0.671875 0.25 1.53125q0 0.34375 -0.078125 0.453125q-0.0625 0.109375 -0.265625 0.109375l-5.390625 0q0.015625 0.765625 0.203125 1.34375q0.203125 0.5625 0.53125 0.9375q0.34375 0.375 0.796875 0.5625q0.46875 0.1875 1.046875 0.1875q0.53125 0 0.921875 -0.109375q0.390625 -0.125 0.671875 -0.265625q0.28125 -0.15625 0.46875 -0.28125q0.1875 -0.125 0.3125 -0.125q0.1875 0 0.28125 0.140625l0.390625 0.515625q-0.25 0.328125 -0.625 0.5625q-0.375 0.234375 -0.796875 0.390625q-0.40625 0.140625 -0.859375 0.21875q-0.453125 0.078125 -0.890625 0.078125q-0.84375 0 -1.546875 -0.28125q-0.703125 -0.28125 -1.21875 -0.828125q-0.515625 -0.546875 -0.8125 -1.359375q-0.28125 -0.8125 -0.28125 -1.859375q0 -0.84375 0.25 -1.578125q0.265625 -0.734375 0.75 -1.265625q0.5 -0.546875 1.203125 -0.859375q0.703125 -0.31250763 1.578125 -0.31250763zm0.03125 1.0468826q-1.03125 0 -1.625 0.609375q-0.59375 0.59375 -0.734375 1.640625l4.40625 0q0 -0.5 -0.140625 -0.90625q-0.125 -0.40625 -0.390625 -0.703125q-0.265625 -0.3125 -0.65625 -0.46875q-0.375 -0.171875 -0.859375 -0.171875zm11.102646 7.1875l-0.640625 0q-0.203125 0 -0.328125 -0.0625q-0.125 -0.0625 -0.171875 -0.28125l-0.15625 -0.75q-0.328125 0.296875 -0.640625 0.53125q-0.296875 0.21875 -0.640625 0.375q-0.328125 0.15625 -0.703125 0.234375q-0.375 0.078125 -0.84375 0.078125q-0.46875 0 -0.890625 -0.125q-0.40625 -0.140625 -0.71875 -0.390625q-0.296875 -0.265625 -0.484375 -0.671875q-0.171875 -0.40625 -0.171875 -0.96875q0 -0.46875 0.265625 -0.90625q0.265625 -0.453125 0.84375 -0.796875q0.59375 -0.34375 1.546875 -0.5625q0.953125 -0.21875 2.328125 -0.25l0 -0.640625q0 -0.9375 -0.40625 -1.421875q-0.40625 -0.484375 -1.1875 -0.484375q-0.53125 0 -0.890625 0.140625q-0.34375 0.125 -0.609375 0.296875q-0.25 0.15625 -0.453125 0.296875q-0.1875 0.125 -0.359375 0.125q-0.15625 0 -0.265625 -0.078125q-0.09375 -0.078125 -0.15625 -0.1875l-0.265625 -0.453125q0.671875 -0.65625 1.453125 -0.96875q0.78125 -0.32813263 1.71875 -0.32813263q0.671875 0 1.203125 0.234375q0.53125 0.21875763 0.890625 0.6250076q0.359375 0.390625 0.546875 0.96875q0.1875 0.5625 0.1875 1.234375l0 5.1875zm-3.703125 -0.875q0.375 0 0.6875 -0.078125q0.3125 -0.078125 0.578125 -0.203125q0.28125 -0.140625 0.53125 -0.34375q0.265625 -0.203125 0.5 -0.453125l0 -1.6875q-0.984375 0.03125 -1.671875 0.15625q-0.6875 0.109375 -1.125 0.3125q-0.421875 0.203125 -0.625 0.484375q-0.1875 0.265625 -0.1875 0.59375q0 0.328125 0.09375 0.5625q0.109375 0.234375 0.28125 0.375q0.171875 0.140625 0.40625 0.21875q0.25 0.0625 0.53125 0.0625zm8.315018 1.0q-0.96875 0 -1.484375 -0.53125q-0.515625 -0.53125 -0.515625 -1.546875l0 -4.953125l-0.96875 0q-0.125 0 -0.21875 -0.078125q-0.078125 -0.078125 -0.078125 -0.234375l0 -0.578125l1.328125 -0.15625l0.328125 -2.5156326q0.015625 -0.109375 0.09375 -0.1875q0.09375 -0.078125 0.234375 -0.078125l0.71875 0l0 2.7968826l2.3125 0l0 1.03125l-2.3125 0l0 4.859375q0 0.515625 0.234375 0.765625q0.25 0.234375 0.640625 0.234375q0.234375 0 0.390625 -0.046875q0.171875 -0.0625 0.28125 -0.125q0.125 -0.078125 0.203125 -0.140625q0.09375 -0.0625 0.15625 -0.0625q0.109375 0 0.203125 0.140625l0.40625 0.671875q-0.359375 0.34375 -0.890625 0.546875q-0.515625 0.1875 -1.0625 0.1875zm6.717926 -8.359383q0.734375 0 1.34375 0.25000763q0.609375 0.234375 1.0625 0.703125q0.453125 0.453125 0.703125 1.140625q0.25 0.671875 0.25 1.53125q0 0.34375 -0.078125 0.453125q-0.0625 0.109375 -0.265625 0.109375l-5.390625 0q0.015625 0.765625 0.203125 1.34375q0.203125 0.5625 0.53125 0.9375q0.34375 0.375 0.796875 0.5625q0.46875 0.1875 1.046875 0.1875q0.53125 0 0.921875 -0.109375q0.390625 -0.125 0.671875 -0.265625q0.28125 -0.15625 0.46875 -0.28125q0.1875 -0.125 0.3125 -0.125q0.1875 0 0.28125 0.140625l0.390625 0.515625q-0.25 0.328125 -0.625 0.5625q-0.375 0.234375 -0.796875 0.390625q-0.40625 0.140625 -0.859375 0.21875q-0.453125 0.078125 -0.890625 0.078125q-0.84375 0 -1.546875 -0.28125q-0.703125 -0.28125 -1.21875 -0.828125q-0.515625 -0.546875 -0.8125 -1.359375q-0.28125 -0.8125 -0.28125 -1.859375q0 -0.84375 0.25 -1.578125q0.265625 -0.734375 0.75 -1.265625q0.5 -0.546875 1.203125 -0.859375q0.703125 -0.31250763 1.578125 -0.31250763zm0.03125 1.0468826q-1.03125 0 -1.625 0.609375q-0.59375 0.59375 -0.734375 1.640625l4.40625 0q0 -0.5 -0.140625 -0.90625q-0.125 -0.40625 -0.390625 -0.703125q-0.265625 -0.3125 -0.65625 -0.46875q-0.375 -0.171875 -0.859375 -0.171875zm14.190613 7.1875l-0.640625 0q-0.203125 0 -0.328125 -0.0625q-0.125 -0.0625 -0.171875 -0.28125l-0.15625 -0.75q-0.328125 0.296875 -0.640625 0.53125q-0.296875 0.21875 -0.640625 0.375q-0.328125 0.15625 -0.703125 0.234375q-0.375 0.078125 -0.84375 0.078125q-0.46875 0 -0.890625 -0.125q-0.40625 -0.140625 -0.71875 -0.390625q-0.296875 -0.265625 -0.484375 -0.671875q-0.171875 -0.40625 -0.171875 -0.96875q0 -0.46875 0.265625 -0.90625q0.265625 -0.453125 0.84375 -0.796875q0.59375 -0.34375 1.546875 -0.5625q0.953125 -0.21875 2.328125 -0.25l0 -0.640625q0 -0.9375 -0.40625 -1.421875q-0.40625 -0.484375 -1.1875 -0.484375q-0.53125 0 -0.890625 0.140625q-0.34375 0.125 -0.609375 0.296875q-0.25 0.15625 -0.453125 0.296875q-0.1875 0.125 -0.359375 0.125q-0.15625 0 -0.265625 -0.078125q-0.09375 -0.078125 -0.15625 -0.1875l-0.265625 -0.453125q0.671875 -0.65625 1.453125 -0.96875q0.78125 -0.32813263 1.71875 -0.32813263q0.671875 0 1.203125 0.234375q0.53125 0.21875763 0.890625 0.6250076q0.359375 0.390625 0.546875 0.96875q0.1875 0.5625 0.1875 1.234375l0 5.1875zm-3.703125 -0.875q0.375 0 0.6875 -0.078125q0.3125 -0.078125 0.578125 -0.203125q0.28125 -0.140625 0.53125 -0.34375q0.265625 -0.203125 0.5 -0.453125l0 -1.6875q-0.984375 0.03125 -1.671875 0.15625q-0.6875 0.109375 -1.125 0.3125q-0.421875 0.203125 -0.625 0.484375q-0.1875 0.265625 -0.1875 0.59375q0 0.328125 0.09375 0.5625q0.109375 0.234375 0.28125 0.375q0.171875 0.140625 0.40625 0.21875q0.25 0.0625 0.53125 0.0625zm5.8618774 0.875l0 -8.109383l0.84375 0q0.296875 0 0.390625 0.29688263l0.109375 0.890625q0.53125 -0.59375 1.171875 -0.953125q0.65625 -0.35938263 1.515625 -0.35938263q0.65625 0 1.15625 0.21875q0.515625 0.21875763 0.859375 0.6250076q0.34375 0.40625 0.515625 0.984375q0.171875 0.5625 0.171875 1.25l0 5.15625l-1.421875 0l0 -5.15625q0 -0.921875 -0.421875 -1.421875q-0.421875 -0.515625 -1.28125 -0.515625q-0.625 0 -1.171875 0.3125q-0.546875 0.296875 -1.015625 0.8125l0 5.96875l-1.421875 0zm17.936981 0l-0.640625 0q-0.203125 0 -0.328125 -0.0625q-0.125 -0.0625 -0.171875 -0.28125l-0.15625 -0.75q-0.328125 0.296875 -0.640625 0.53125q-0.296875 0.21875 -0.640625 0.375q-0.328125 0.15625 -0.703125 0.234375q-0.375 0.078125 -0.84375 0.078125q-0.46875 0 -0.890625 -0.125q-0.40625 -0.140625 -0.71875 -0.390625q-0.296875 -0.265625 -0.484375 -0.671875q-0.171875 -0.40625 -0.171875 -0.96875q0 -0.46875 0.265625 -0.90625q0.265625 -0.453125 0.84375 -0.796875q0.59375 -0.34375 1.546875 -0.5625q0.953125 -0.21875 2.328125 -0.25l0 -0.640625q0 -0.9375 -0.40625 -1.421875q-0.40625 -0.484375 -1.1875 -0.484375q-0.53125 0 -0.890625 0.140625q-0.34375 0.125 -0.609375 0.296875q-0.25 0.15625 -0.453125 0.296875q-0.1875 0.125 -0.359375 0.125q-0.15625 0 -0.265625 -0.078125q-0.09375 -0.078125 -0.15625 -0.1875l-0.265625 -0.453125q0.671875 -0.65625 1.453125 -0.96875q0.78125 -0.32813263 1.71875 -0.32813263q0.671875 0 1.203125 0.234375q0.53125 0.21875763 0.890625 0.6250076q0.359375 0.390625 0.546875 0.96875q0.1875 0.5625 0.1875 1.234375l0 5.1875zm-3.703125 -0.875q0.375 0 0.6875 -0.078125q0.3125 -0.078125 0.578125 -0.203125q0.28125 -0.140625 0.53125 -0.34375q0.265625 -0.203125 0.5 -0.453125l0 -1.6875q-0.984375 0.03125 -1.671875 0.15625q-0.6875 0.109375 -1.125 0.3125q-0.421875 0.203125 -0.625 0.484375q-0.1875 0.265625 -0.1875 0.59375q0 0.328125 0.09375 0.5625q0.109375 0.234375 0.28125 0.375q0.171875 0.140625 0.40625 0.21875q0.25 0.0625 0.53125 0.0625zm11.393158 -5.78125q-0.078125 0.078125 -0.140625 0.125q-0.0625 0.046875 -0.171875 0.046875q-0.125 0 -0.265625 -0.09375q-0.140625 -0.109375 -0.359375 -0.21875q-0.21875 -0.125 -0.53125 -0.21875q-0.296875 -0.109375 -0.75 -0.109375q-0.59375 0 -1.046875 0.21875q-0.453125 0.203125 -0.765625 0.609375q-0.296875 0.40625 -0.453125 0.96875q-0.15625 0.5625 -0.15625 1.265625q0 0.75 0.15625 1.328125q0.171875 0.5625 0.46875 0.953125q0.3125 0.375 0.75 0.59375q0.4375 0.203125 0.984375 0.203125q0.515625 0 0.84375 -0.125q0.34375 -0.125 0.5625 -0.28125q0.234375 -0.15625 0.375 -0.28125q0.140625 -0.125 0.28125 -0.125q0.1875 0 0.28125 0.140625l0.390625 0.515625q-0.53125 0.65625 -1.328125 0.953125q-0.78125 0.296875 -1.65625 0.296875q-0.765625 0 -1.421875 -0.28125q-0.640625 -0.28125 -1.125 -0.8125q-0.484375 -0.53125 -0.765625 -1.296875q-0.265625 -0.78125 -0.265625 -1.78125q0 -0.890625 0.25 -1.65625q0.25 -0.78125 0.734375 -1.328125q0.484375 -0.5625 1.1875 -0.875q0.71875 -0.31250763 1.640625 -0.31250763q0.84375 0 1.5 0.28125763q0.65625 0.265625 1.171875 0.78125l-0.375 0.515625zm7.471924 0q-0.078125 0.078125 -0.140625 0.125q-0.0625 0.046875 -0.171875 0.046875q-0.125 0 -0.26565552 -0.09375q-0.140625 -0.109375 -0.359375 -0.21875q-0.21875 -0.125 -0.53125 -0.21875q-0.296875 -0.109375 -0.75 -0.109375q-0.59375 0 -1.046875 0.21875q-0.453125 0.203125 -0.765625 0.609375q-0.296875 0.40625 -0.453125 0.96875q-0.15625 0.5625 -0.15625 1.265625q0 0.75 0.15625 1.328125q0.171875 0.5625 0.46875 0.953125q0.3125 0.375 0.75 0.59375q0.4375 0.203125 0.984375 0.203125q0.515625 0 0.84375 -0.125q0.34375 -0.125 0.5625 -0.28125q0.234375 -0.15625 0.37503052 -0.28125q0.140625 -0.125 0.28125 -0.125q0.1875 0 0.28125 0.140625l0.390625 0.515625q-0.53125 0.65625 -1.3281555 0.953125q-0.78125 0.296875 -1.65625 0.296875q-0.765625 0 -1.421875 -0.28125q-0.640625 -0.28125 -1.125 -0.8125q-0.484375 -0.53125 -0.765625 -1.296875q-0.265625 -0.78125 -0.265625 -1.78125q0 -0.890625 0.25 -1.65625q0.25 -0.78125 0.734375 -1.328125q0.484375 -0.5625 1.1875 -0.875q0.71875 -0.31250763 1.640625 -0.31250763q0.84375 0 1.5 0.28125763q0.6562805 0.265625 1.1719055 0.78125l-0.375 0.515625zm5.2218933 -1.5781326q0.875 0 1.59375 0.29688263q0.71875 0.296875 1.21875 0.84375q0.5 0.546875 0.765625 1.3125q0.265625 0.765625 0.265625 1.71875q0 0.96875 -0.265625 1.734375q-0.265625 0.765625 -0.765625 1.3125q-0.5 0.546875 -1.21875 0.84375q-0.71875 0.28125 -1.59375 0.28125q-0.890625 0 -1.609375 -0.28125q-0.71875 -0.296875 -1.21875 -0.84375q-0.5 -0.546875 -0.78125 -1.3125q-0.265625 -0.765625 -0.265625 -1.734375q0 -0.953125 0.265625 -1.71875q0.28125 -0.765625 0.78125 -1.3125q0.5 -0.546875 1.21875 -0.84375q0.71875 -0.29688263 1.609375 -0.29688263zm0 7.2343826q1.1875 0 1.78125 -0.796875q0.59375 -0.8125 0.59375 -2.25q0 -1.453125 -0.59375 -2.25q-0.59375 -0.8125 -1.78125 -0.8125q-0.609375 0 -1.0625 0.203125q-0.453125 0.203125 -0.75 0.609375q-0.296875 0.390625 -0.453125 0.96875q-0.140625 0.5625 -0.140625 1.28125q0 0.71875 0.140625 1.296875q0.15625 0.5625 0.453125 0.953125q0.296875 0.375 0.75 0.59375q0.453125 0.203125 1.0625 0.203125zm6.8490295 -7.1093826l0 5.1718826q0 0.921875 0.421875 1.421875q0.421875 0.5 1.28125 0.5q0.625 0 1.171875 -0.28125q0.546875 -0.296875 1.015625 -0.828125l0 -5.9843826l1.421875 0l0 8.109383l-0.84375 0q-0.3125 0 -0.390625 -0.296875l-0.109375 -0.875q-0.53125 0.59375 -1.1875 0.953125q-0.65625 0.34375 -1.5 0.34375q-0.65625 0 -1.171875 -0.21875q-0.5 -0.21875 -0.859375 -0.609375q-0.34375 -0.40625 -0.515625 -0.96875q-0.171875 -0.578125 -0.171875 -1.265625l0 -5.1718826l1.4375 0zm7.661499 8.109383l0 -8.109383l0.84375 0q0.296875 0 0.390625 0.29688263l0.109375 0.890625q0.53125 -0.59375 1.171875 -0.953125q0.65625 -0.35938263 1.515625 -0.35938263q0.65625 0 1.15625 0.21875q0.515625 0.21875763 0.859375 0.6250076q0.34375 0.40625 0.515625 0.984375q0.171875 0.5625 0.171875 1.25l0 5.15625l-1.421875 0l0 -5.15625q0 -0.921875 -0.421875 -1.421875q-0.421875 -0.515625 -1.28125 -0.515625q-0.625 0 -1.171875 0.3125q-0.546875 0.296875 -1.015625 0.8125l0 5.96875l-1.421875 0zm11.34903 0.125q-0.96875 0 -1.484375 -0.53125q-0.515625 -0.53125 -0.515625 -1.546875l0 -4.953125l-0.96875 0q-0.125 0 -0.21875 -0.078125q-0.078125 -0.078125 -0.078125 -0.234375l0 -0.578125l1.328125 -0.15625l0.328125 -2.5156326q0.015625 -0.109375 0.09375 -0.1875q0.09375 -0.078125 0.234375 -0.078125l0.71875 0l0 2.7968826l2.3125 0l0 1.03125l-2.3125 0l0 4.859375q0 0.515625 0.234375 0.765625q0.25 0.234375 0.640625 0.234375q0.234375 0 0.390625 -0.046875q0.171875 -0.0625 0.28125 -0.125q0.125 -0.078125 0.203125 -0.140625q0.09375 -0.0625 0.15625 -0.0625q0.109375 0 0.203125 0.140625l0.40625 0.671875q-0.359375 0.34375 -0.890625 0.546875q-0.515625 0.1875 -1.0625 0.1875zm5.5402527 -8.234383l1.125 0q0.171875 0 0.28125 0.09375q0.109375 0.09375763 0.15625 0.20313263l1.546875 5.21875q0.0625 0.296875 0.125 0.5625q0.0625 0.265625 0.09375 0.53125q0.0625 -0.265625 0.140625 -0.53125q0.078125 -0.265625 0.171875 -0.5625l1.71875 -5.25q0.03125 -0.109375 0.125 -0.18750763q0.109375 -0.09375 0.265625 -0.09375l0.609375 0q0.15625 0 0.265625 0.09375q0.109375 0.07813263 0.140625 0.18750763l1.671875 5.25q0.09375 0.28125 0.15625 0.5625q0.078125 0.265625 0.140625 0.53125q0.03125 -0.265625 0.09375 -0.546875q0.078125 -0.296875 0.140625 -0.546875l1.578125 -5.21875q0.046875 -0.125 0.15625 -0.20313263q0.109375 -0.09375 0.265625 -0.09375l1.078125 0l-2.625 8.109383l-1.125 0q-0.21875 0 -0.296875 -0.265625l-1.796875 -5.5q-0.0625 -0.1875 -0.109375 -0.375q-0.03125 -0.1875 -0.0625 -0.375q-0.046875 0.1875 -0.09375 0.390625q-0.03125 0.1875 -0.09375 0.359375l-1.8125 5.5q-0.09375 0.265625 -0.328125 0.265625l-1.078125 0l-2.625 -8.109383zm14.896484 0l0 8.109383l-1.421875 0l0 -8.109383l1.421875 0zm0.328125 -2.53125q0 0.203125 -0.09375 0.390625q-0.078125 0.171875 -0.21875 0.3125q-0.140625 0.140625 -0.328125 0.21875q-0.1875 0.078125 -0.390625 0.078125q-0.203125 0 -0.390625 -0.078125q-0.171875 -0.078125 -0.3125 -0.21875q-0.140625 -0.140625 -0.21875 -0.3125q-0.078125 -0.1875 -0.078125 -0.390625q0 -0.21875 0.078125 -0.40625q0.078125 -0.1875 0.21875 -0.328125q0.140625 -0.140625 0.3125 -0.21875q0.1875 -0.078125 0.390625 -0.078125q0.203125 0 0.390625 0.078125q0.1875 0.078125 0.328125 0.21875q0.140625 0.140625 0.21875 0.328125q0.09375 0.1875 0.09375 0.40625zm4.6428223 10.765633q-0.96875 0 -1.484375 -0.53125q-0.515625 -0.53125 -0.515625 -1.546875l0 -4.953125l-0.96875 0q-0.125 0 -0.21875 -0.078125q-0.078125 -0.078125 -0.078125 -0.234375l0 -0.578125l1.328125 -0.15625l0.328125 -2.5156326q0.015625 -0.109375 0.09375 -0.1875q0.09375 -0.078125 0.234375 -0.078125l0.71875 0l0 2.7968826l2.3125 0l0 1.03125l-2.3125 0l0 4.859375q0 0.515625 0.234375 0.765625q0.25 0.234375 0.640625 0.234375q0.234375 0 0.390625 -0.046875q0.171875 -0.0625 0.28125 -0.125q0.125 -0.078125 0.203125 -0.140625q0.09375 -0.0625 0.15625 -0.0625q0.109375 0 0.203125 0.140625l0.40625 0.671875q-0.359375 0.34375 -0.890625 0.546875q-0.515625 0.1875 -1.0625 0.1875zm3.514801 -0.125l0 -11.781258l1.421875 0l0 4.7656326q0.515625 -0.546875 1.140625 -0.875q0.640625 -0.34375763 1.46875 -0.34375763q0.65625 0 1.15625 0.21875q0.515625 0.21875763 0.859375 0.6250076q0.34375 0.40625 0.515625 0.984375q0.171875 0.5625 0.171875 1.25l0 5.15625l-1.421875 0l0 -5.15625q0 -0.921875 -0.421875 -1.421875q-0.421875 -0.515625 -1.28125 -0.515625q-0.625 0 -1.171875 0.3125q-0.546875 0.296875 -1.015625 0.8125l0 5.96875l-1.421875 0z" fill-rule="nonzero"/><path fill="#53c6a1" d="m173.77034 44.47769l231.14961 0l0 48.25197l-231.14961 0z" fill-rule="evenodd"/><path stroke="#1a1a1a" stroke-width="1.0" stroke-linejoin="round" stroke-linecap="butt" d="m173.77034 44.47769l231.14961 0l0 48.25197l-231.14961 0z" fill-rule="evenodd"/><path fill="#d9ead3" d="m183.88058 57.328197l0 0c0 -3.1137314 2.52417 -5.637909 5.6378937 -5.637909l199.65334 0c1.4952698 0 2.9292908 0.59399414 3.9866028 1.6513062c1.057312 1.057312 1.6513062 2.4913368 1.6513062 3.9866028l0 22.550953c0 3.1137314 -2.5242004 5.637909 -5.637909 5.637909l-199.65334 0c-3.1137238 0 -5.6378937 -2.5241776 -5.6378937 -5.637909z" fill-rule="evenodd"/><path stroke="#1a1a1a" stroke-width="1.0" stroke-linejoin="round" stroke-linecap="butt" d="m183.88058 57.328197l0 0c0 -3.1137314 2.52417 -5.637909 5.6378937 -5.637909l199.65334 0c1.4952698 0 2.9292908 0.59399414 3.9866028 1.6513062c1.057312 1.057312 1.6513062 2.4913368 1.6513062 3.9866028l0 22.550953c0 3.1137314 -2.5242004 5.637909 -5.637909 5.637909l-199.65334 0c-3.1137238 0 -5.6378937 -2.5241776 -5.6378937 -5.637909z" fill-rule="evenodd"/><path fill="#b7b7b7" d="m195.59436 74.46368l0 -11.453129l1.40625 0l0 4.109379q0.984375 -1.140625 2.484375 -1.140625q0.921875 0 1.59375 0.359375q0.6875 0.359375 0.96875 1.0q0.296875 0.640625 0.296875 1.859375l0 5.265625l-1.40625 0l0 -5.265625q0 -1.046875 -0.453125 -1.53125q-0.453125 -0.484375 -1.296875 -0.484375q-0.625 0 -1.171875 0.328125q-0.546875 0.328125 -0.78125 0.890625q-0.234375 0.546875 -0.234375 1.515625l0 4.546875l-1.40625 0zm11.9609375 -1.265625l0.203125 1.25q-0.59375 0.125 -1.0625 0.125q-0.765625 0 -1.1875 -0.234375q-0.421875 -0.25 -0.59375 -0.640625q-0.171875 -0.40625 -0.171875 -1.671875l0 -4.765625l-1.03125 0l0 -1.09375l1.03125 0l0 -2.0625l1.40625 -0.8437538l0 2.9062538l1.40625 0l0 1.09375l-1.40625 0l0 4.84375q0 0.609375 0.0625 0.78125q0.078125 0.171875 0.25 0.28125q0.171875 0.09375 0.484375 0.09375q0.234375 0 0.609375 -0.0625zm4.4453125 0l0.203125 1.25q-0.59375 0.125 -1.0625 0.125q-0.765625 0 -1.1875 -0.234375q-0.421875 -0.25 -0.59375 -0.640625q-0.171875 -0.40625 -0.171875 -1.671875l0 -4.765625l-1.03125 0l0 -1.09375l1.03125 0l0 -2.0625l1.40625 -0.8437538l0 2.9062538l1.40625 0l0 1.09375l-1.40625 0l0 4.84375q0 0.609375 0.0625 0.78125q0.078125 0.171875 0.25 0.28125q0.171875 0.09375 0.484375 0.09375q0.234375 0 0.609375 -0.0625zm1.3828125 4.453125l0 -11.484375l1.28125 0l0 1.078125q0.453125 -0.640625 1.015625 -0.953125q0.578125 -0.3125 1.390625 -0.3125q1.0625 0 1.875 0.546875q0.8125 0.546875 1.21875 1.546875q0.421875 0.984375 0.421875 2.171875q0 1.28125 -0.46875 2.296875q-0.453125 1.015625 -1.328125 1.5625q-0.859375 0.546875 -1.828125 0.546875q-0.703125 0 -1.265625 -0.296875q-0.546875 -0.296875 -0.90625 -0.75l0 4.046875l-1.40625 0zm1.265625 -7.296875q0 1.609375 0.640625 2.375q0.65625 0.765625 1.578125 0.765625q0.9375 0 1.609375 -0.796875q0.671875 -0.796875 0.671875 -2.453125q0 -1.59375 -0.65625 -2.375q-0.65625 -0.796875 -1.5625 -0.796875q-0.890625 0 -1.59375 0.84375q-0.6875 0.84375 -0.6875 2.4375zm7.0703125 1.625l1.390625 -0.21875q0.109375 0.84375 0.640625 1.296875q0.546875 0.4375 1.5 0.4375q0.96875 0 1.4375 -0.390625q0.46875 -0.40625 0.46875 -0.9375q0 -0.46875 -0.40625 -0.75q-0.296875 -0.1875 -1.4375 -0.46875q-1.546875 -0.390625 -2.15625 -0.671875q-0.59375 -0.296875 -0.90625 -0.796875q-0.296875 -0.5 -0.296875 -1.109375q0 -0.5625 0.25 -1.03125q0.25 -0.46875 0.6875 -0.78125q0.328125 -0.25 0.890625 -0.40625q0.578125 -0.171875 1.21875 -0.171875q0.984375 0 1.71875 0.28125q0.734375 0.28125 1.078125 0.765625q0.359375 0.46875 0.5 1.28125l-1.375 0.1875q-0.09375 -0.640625 -0.546875 -1.0q-0.453125 -0.359375 -1.265625 -0.359375q-0.96875 0 -1.390625 0.328125q-0.40625 0.3125 -0.40625 0.734375q0 0.28125 0.171875 0.5q0.171875 0.21875 0.53125 0.375q0.21875 0.078125 1.25 0.359375q1.484375 0.390625 2.078125 0.65625q0.59375 0.25 0.921875 0.734375q0.34375 0.484375 0.34375 1.203125q0 0.703125 -0.421875 1.328125q-0.40625 0.609375 -1.1875 0.953125q-0.765625 0.34375 -1.734375 0.34375q-1.625 0 -2.46875 -0.671875q-0.84375 -0.671875 -1.078125 -2.0zm8.953125 -4.21875l0 -1.59375l1.59375 0l0 1.59375l-1.59375 0zm0 6.703125l0 -1.609375l1.59375 0l0 1.609375l-1.59375 0zm2.9921875 0.203125l3.328125 -11.859379l1.125 0l-3.3125 11.859379l-1.140625 0zm4.4453125 0l3.328125 -11.859379l1.125 0l-3.3125 11.859379l-1.140625 0zm11.1796875 -2.875l1.453125 0.171875q-0.34375 1.28125 -1.28125 1.984375q-0.921875 0.703125 -2.359375 0.703125q-1.828125 0 -2.890625 -1.125q-1.0625 -1.125 -1.0625 -3.140625q0 -2.09375 1.078125 -3.25q1.078125 -1.15625 2.796875 -1.15625q1.65625 0 2.703125 1.140625q1.0625 1.125 1.0625 3.171875q0 0.125 0 0.375l-6.1875 0q0.078125 1.375 0.765625 2.109375q0.703125 0.71875 1.734375 0.71875q0.78125 0 1.328125 -0.40625q0.546875 -0.40625 0.859375 -1.296875zm-4.609375 -2.28125l4.625 0q-0.09375 -1.046875 -0.53125 -1.5625q-0.671875 -0.8125 -1.734375 -0.8125q-0.96875 0 -1.640625 0.65625q-0.65625 0.640625 -0.71875 1.71875zm6.8984375 4.953125l3.03125 -4.3125l-2.8125 -3.984375l1.765625 0l1.265625 1.9375q0.359375 0.5625 0.578125 0.9375q0.34375 -0.515625 0.640625 -0.921875l1.390625 -1.953125l1.6875 0l-2.875 3.90625l3.09375 4.390625l-1.734375 0l-1.703125 -2.578125l-0.453125 -0.703125l-2.171875 3.28125l-1.703125 0zm14.34375 -1.03125q-0.78125 0.671875 -1.5 0.953125q-0.71875 0.265625 -1.546875 0.265625q-1.375 0 -2.109375 -0.671875q-0.734375 -0.671875 -0.734375 -1.703125q0 -0.609375 0.28125 -1.109375q0.28125 -0.515625 0.71875 -0.8125q0.453125 -0.3125 1.015625 -0.46875q0.421875 -0.109375 1.25 -0.203125q1.703125 -0.203125 2.515625 -0.484375q0 -0.296875 0 -0.375q0 -0.859375 -0.390625 -1.203125q-0.546875 -0.484375 -1.609375 -0.484375q-0.984375 0 -1.46875 0.359375q-0.46875 0.34375 -0.6875 1.21875l-1.375 -0.1875q0.1875 -0.875 0.609375 -1.421875q0.4375 -0.546875 1.25 -0.828125q0.8125 -0.296875 1.875 -0.296875q1.0625 0 1.71875 0.25q0.671875 0.25 0.984375 0.625q0.3125 0.375 0.4375 0.953125q0.078125 0.359375 0.078125 1.296875l0 1.875q0 1.96875 0.078125 2.484375q0.09375 0.515625 0.359375 1.0l-1.46875 0q-0.21875 -0.4375 -0.28125 -1.03125zm-0.109375 -3.140625q-0.765625 0.3125 -2.296875 0.53125q-0.875 0.125 -1.234375 0.28125q-0.359375 0.15625 -0.5625 0.46875q-0.1875 0.296875 -0.1875 0.65625q0 0.5625 0.421875 0.9375q0.4375 0.375 1.25 0.375q0.8125 0 1.4375 -0.34375q0.640625 -0.359375 0.9375 -0.984375q0.234375 -0.46875 0.234375 -1.40625l0 -0.515625zm3.6015625 4.171875l0 -8.296875l1.25 0l0 1.15625q0.390625 -0.609375 1.03125 -0.96875q0.65625 -0.375 1.484375 -0.375q0.921875 0 1.515625 0.390625q0.59375 0.375 0.828125 1.0625q0.984375 -1.453125 2.5625 -1.453125q1.234375 0 1.890625 0.6875q0.671875 0.671875 0.671875 2.09375l0 5.703125l-1.390625 0l0 -5.234375q0 -0.84375 -0.140625 -1.203125q-0.140625 -0.375 -0.5 -0.59375q-0.359375 -0.234375 -0.84375 -0.234375q-0.875 0 -1.453125 0.578125q-0.578125 0.578125 -0.578125 1.859375l0 4.828125l-1.40625 0l0 -5.390625q0 -0.9375 -0.34375 -1.40625q-0.34375 -0.46875 -1.125 -0.46875q-0.59375 0 -1.09375 0.3125q-0.5 0.3125 -0.734375 0.921875q-0.21875 0.59375 -0.21875 1.71875l0 4.3125l-1.40625 0zm13.328125 3.1875l0 -11.484375l1.28125 0l0 1.078125q0.453125 -0.640625 1.015625 -0.953125q0.578125 -0.3125 1.390625 -0.3125q1.0625 0 1.875 0.546875q0.8125 0.546875 1.21875 1.546875q0.421875 0.984375 0.421875 2.171875q0 1.28125 -0.46875 2.296875q-0.453125 1.015625 -1.328125 1.5625q-0.859375 0.546875 -1.828125 0.546875q-0.703125 0 -1.265625 -0.296875q-0.546875 -0.296875 -0.90625 -0.75l0 4.046875l-1.40625 0zm1.265625 -7.296875q0 1.609375 0.640625 2.375q0.65625 0.765625 1.578125 0.765625q0.9375 0 1.609375 -0.796875q0.671875 -0.796875 0.671875 -2.453125q0 -1.59375 -0.65625 -2.375q-0.65625 -0.796875 -1.5625 -0.796875q-0.890625 0 -1.59375 0.84375q-0.6875 0.84375 -0.6875 2.4375zm7.6015625 4.109375l0 -11.453129l1.40625 0l0 11.453129l-1.40625 0zm9.2578125 -2.671875l1.453125 0.171875q-0.34375 1.28125 -1.28125 1.984375q-0.921875 0.703125 -2.359375 0.703125q-1.828125 0 -2.890625 -1.125q-1.0625 -1.125 -1.0625 -3.140625q0 -2.09375 1.078125 -3.25q1.078125 -1.15625 2.796875 -1.15625q1.65625 0 2.703125 1.140625q1.0625 1.125 1.0625 3.171875q0 0.125 0 0.375l-6.1875 0q0.078125 1.375 0.765625 2.109375q0.703125 0.71875 1.734375 0.71875q0.78125 0 1.328125 -0.40625q0.546875 -0.40625 0.859375 -1.296875zm-4.609375 -2.28125l4.625 0q-0.09375 -1.046875 -0.53125 -1.5625q-0.671875 -0.8125 -1.734375 -0.8125q-0.96875 0 -1.640625 0.65625q-0.65625 0.640625 -0.71875 1.71875zm8.2265625 4.953125l0 -1.609375l1.609375 0l0 1.609375l-1.609375 0zm9.4609375 -3.046875l1.390625 0.1875q-0.234375 1.421875 -1.171875 2.234375q-0.921875 0.8125 -2.28125 0.8125q-1.703125 0 -2.75 -1.109375q-1.03125 -1.125 -1.03125 -3.203125q0 -1.34375 0.4375 -2.34375q0.453125 -1.015625 1.359375 -1.515625q0.921875 -0.5 1.984375 -0.5q1.359375 0 2.21875 0.6875q0.859375 0.671875 1.09375 1.9375l-1.359375 0.203125q-0.203125 -0.828125 -0.703125 -1.25q-0.484375 -0.421875 -1.1875 -0.421875q-1.0625 0 -1.734375 0.765625q-0.65625 0.75 -0.65625 2.40625q0 1.671875 0.640625 2.4375q0.640625 0.75 1.671875 0.75q0.828125 0 1.375 -0.5q0.5625 -0.515625 0.703125 -1.578125zm2.0625 -1.109375q0 -2.296875 1.28125 -3.40625q1.078125 -0.921875 2.609375 -0.921875q1.71875 0 2.796875 1.125q1.09375 1.109375 1.09375 3.09375q0 1.59375 -0.484375 2.515625q-0.484375 0.921875 -1.40625 1.4375q-0.90625 0.5 -2.0 0.5q-1.734375 0 -2.8125 -1.109375q-1.078125 -1.125 -1.078125 -3.234375zm1.453125 0q0 1.59375 0.6875 2.390625q0.703125 0.796875 1.75 0.796875q1.046875 0 1.734375 -0.796875q0.703125 -0.796875 0.703125 -2.4375q0 -1.53125 -0.703125 -2.328125q-0.6875 -0.796875 -1.734375 -0.796875q-1.046875 0 -1.75 0.796875q-0.6875 0.78125 -0.6875 2.375zm7.9765625 4.15625l0 -8.296875l1.25 0l0 1.15625q0.390625 -0.609375 1.03125 -0.96875q0.65625 -0.375 1.484375 -0.375q0.921875 0 1.515625 0.390625q0.59375 0.375 0.828125 1.0625q0.984375 -1.453125 2.5625 -1.453125q1.234375 0 1.890625 0.6875q0.671875 0.671875 0.671875 2.09375l0 5.703125l-1.390625 0l0 -5.234375q0 -0.84375 -0.140625 -1.203125q-0.140625 -0.375 -0.5 -0.59375q-0.359375 -0.234375 -0.84375 -0.234375q-0.875 0 -1.453125 0.578125q-0.578125 0.578125 -0.578125 1.859375l0 4.828125l-1.40625 0l0 -5.390625q0 -0.9375 -0.34375 -1.40625q-0.34375 -0.46875 -1.125 -0.46875q-0.59375 0 -1.09375 0.3125q-0.5 0.3125 -0.734375 0.921875q-0.21875 0.59375 -0.21875 1.71875l0 4.3125l-1.40625 0z" fill-rule="nonzero"/><path fill="#000000" fill-opacity="0.0" d="m202.88977 456.4358l0 0c0 -2.3077698 1.8708038 -4.1785583 4.1785583 -4.1785583l97.59564 0c1.1082153 0 2.171051 0.44021606 2.9546814 1.2238464c0.7836304 0.7836304 1.223877 1.8464661 1.223877 2.954712l0 16.713745c0 2.3077393 -1.8708191 4.1785583 -4.1785583 4.1785583l-97.59564 0c-2.3077545 0 -4.1785583 -1.8708191 -4.1785583 -4.1785583z" fill-rule="evenodd"/><path fill="#1c3678" d="m214.03549 468.53265l0 -4.796875l-0.828125 0l0 -0.734375l0.828125 0l0 -0.578125q0 -0.5625 0.109375 -0.828125q0.125 -0.375 0.46875 -0.59375q0.34375 -0.234375 0.953125 -0.234375q0.390625 0 0.875 0.09375l-0.140625 0.828125q-0.296875 -0.0625 -0.546875 -0.0625q-0.421875 0 -0.609375 0.1875q-0.171875 0.1875 -0.171875 0.6875l0 0.5l1.078125 0l0 0.734375l-1.078125 0l0 4.796875l-0.9375 0zm2.3981476 -2.765625q0 -1.53125 0.84375 -2.265625q0.71875 -0.625 1.734375 -0.625q1.140625 0 1.859375 0.75q0.734375 0.75 0.734375 2.0625q0 1.0625 -0.328125 1.6875q-0.3125 0.609375 -0.921875 0.953125q-0.609375 0.328125 -1.34375 0.328125q-1.15625 0 -1.875 -0.734375q-0.703125 -0.75 -0.703125 -2.15625zm0.953125 0q0 1.0625 0.46875 1.59375q0.46875 0.53125 1.15625 0.53125q0.703125 0 1.15625 -0.53125q0.46875 -0.53125 0.46875 -1.625q0 -1.015625 -0.46875 -1.546875q-0.453125 -0.53125 -1.15625 -0.53125q-0.6875 0 -1.15625 0.53125q-0.46875 0.515625 -0.46875 1.578125zm5.3014984 2.765625l0 -5.53125l0.84375 0l0 0.84375q0.328125 -0.59375 0.59375 -0.78125q0.28125 -0.1875 0.609375 -0.1875q0.46875 0 0.953125 0.3125l-0.3125 0.859375q-0.34375 -0.203125 -0.6875 -0.203125q-0.3125 0 -0.5625 0.1875q-0.234375 0.1875 -0.34375 0.515625q-0.15625 0.5 -0.15625 1.09375l0 2.890625l-0.9375 0zm3.3923645 0.453125l0.90625 0.140625q0.0625 0.421875 0.328125 0.609375q0.34375 0.265625 0.9375 0.265625q0.65625 0 1.0 -0.265625q0.359375 -0.25 0.484375 -0.71875q0.078125 -0.296875 0.078125 -1.203125q-0.625 0.71875 -1.53125 0.71875q-1.140625 0 -1.765625 -0.8125q-0.625 -0.828125 -0.625 -1.984375q0 -0.78125 0.28125 -1.453125q0.296875 -0.671875 0.828125 -1.03125q0.546875 -0.375 1.28125 -0.375q0.984375 0 1.609375 0.796875l0 -0.671875l0.875 0l0 4.78125q0 1.296875 -0.265625 1.828125q-0.265625 0.546875 -0.84375 0.859375q-0.5625 0.3125 -1.390625 0.3125q-0.984375 0 -1.59375 -0.453125q-0.609375 -0.4375 -0.59375 -1.34375zm0.78125 -3.3125q0 1.078125 0.421875 1.578125q0.4375 0.5 1.078125 0.5q0.65625 0 1.09375 -0.484375q0.4375 -0.5 0.4375 -1.5625q0 -1.015625 -0.453125 -1.53125q-0.453125 -0.515625 -1.09375 -0.515625q-0.609375 0 -1.046875 0.515625q-0.4375 0.5 -0.4375 1.5zm4.9733734 0.09375q0 -1.53125 0.84375 -2.265625q0.71875 -0.625 1.734375 -0.625q1.140625 0 1.859375 0.75q0.734375 0.75 0.734375 2.0625q0 1.0625 -0.328125 1.6875q-0.3125 0.609375 -0.921875 0.953125q-0.609375 0.328125 -1.34375 0.328125q-1.15625 0 -1.875 -0.734375q-0.703125 -0.75 -0.703125 -2.15625zm0.953125 0q0 1.0625 0.46875 1.59375q0.46875 0.53125 1.15625 0.53125q0.703125 0 1.15625 -0.53125q0.46875 -0.53125 0.46875 -1.625q0 -1.015625 -0.46875 -1.546875q-0.453125 -0.53125 -1.15625 -0.53125q-0.6875 0 -1.15625 0.53125q-0.46875 0.515625 -0.46875 1.578125zm7.3639984 1.921875l0.125 0.828125q-0.390625 0.09375 -0.703125 0.09375q-0.5 0 -0.78125 -0.15625q-0.28125 -0.171875 -0.40625 -0.4375q-0.109375 -0.265625 -0.109375 -1.109375l0 -3.171875l-0.6875 0l0 -0.734375l0.6875 0l0 -1.359375l0.9375 -0.5625l0 1.921875l0.9375 0l0 0.734375l-0.9375 0l0 3.234375q0 0.390625 0.046875 0.515625q0.046875 0.109375 0.15625 0.1875q0.109375 0.0625 0.328125 0.0625q0.15625 0 0.40625 -0.046875zm3.8744202 2.96875l0 -7.65625l0.859375 0l0 0.71875q0.296875 -0.421875 0.671875 -0.625q0.390625 -0.21875 0.921875 -0.21875q0.703125 0 1.25 0.375q0.546875 0.359375 0.8125 1.03125q0.28125 0.65625 0.28125 1.453125q0 0.84375 -0.3125 1.53125q-0.296875 0.671875 -0.875 1.03125q-0.578125 0.359375 -1.21875 0.359375q-0.46875 0 -0.84375 -0.1875q-0.375 -0.203125 -0.609375 -0.515625l0 2.703125l-0.9375 0zm0.84375 -4.859375q0 1.0625 0.4375 1.578125q0.4375 0.515625 1.046875 0.515625q0.625 0 1.0625 -0.53125q0.453125 -0.53125 0.453125 -1.640625q0 -1.046875 -0.4375 -1.578125q-0.4375 -0.53125 -1.046875 -0.53125q-0.59375 0 -1.0625 0.5625q-0.453125 0.5625 -0.453125 1.625zm8.692123 2.046875q-0.53125 0.453125 -1.015625 0.640625q-0.46875 0.171875 -1.015625 0.171875q-0.921875 0 -1.40625 -0.4375q-0.484375 -0.453125 -0.484375 -1.140625q0 -0.40625 0.171875 -0.734375q0.1875 -0.34375 0.484375 -0.546875q0.3125 -0.203125 0.6875 -0.3125q0.265625 -0.0625 0.828125 -0.140625q1.125 -0.125 1.671875 -0.3125q0 -0.203125 0 -0.25q0 -0.578125 -0.265625 -0.8125q-0.359375 -0.3125 -1.0625 -0.3125q-0.65625 0 -0.984375 0.234375q-0.3125 0.234375 -0.453125 0.8125l-0.921875 -0.125q0.125 -0.578125 0.40625 -0.9375q0.296875 -0.375 0.828125 -0.5625q0.546875 -0.203125 1.25 -0.203125q0.71875 0 1.15625 0.171875q0.4375 0.171875 0.640625 0.421875q0.21875 0.25 0.296875 0.640625q0.046875 0.234375 0.046875 0.859375l0 1.25q0 1.296875 0.0625 1.65625q0.0625 0.34375 0.234375 0.65625l-0.96875 0q-0.15625 -0.296875 -0.1875 -0.6875zm-0.078125 -2.078125q-0.515625 0.203125 -1.53125 0.34375q-0.578125 0.078125 -0.828125 0.1875q-0.234375 0.109375 -0.359375 0.3125q-0.125 0.1875 -0.125 0.4375q0 0.375 0.28125 0.625q0.28125 0.25 0.828125 0.25q0.53125 0 0.953125 -0.234375q0.421875 -0.234375 0.625 -0.65625q0.15625 -0.3125 0.15625 -0.9375l0 -0.328125zm2.0202484 1.109375l0.921875 -0.140625q0.078125 0.5625 0.4375 0.859375q0.359375 0.296875 1.0 0.296875q0.640625 0 0.953125 -0.265625q0.3125 -0.265625 0.3125 -0.625q0 -0.3125 -0.28125 -0.5q-0.1875 -0.125 -0.953125 -0.3125q-1.03125 -0.265625 -1.4375 -0.453125q-0.390625 -0.1875 -0.59375 -0.515625q-0.203125 -0.34375 -0.203125 -0.75q0 -0.359375 0.171875 -0.671875q0.171875 -0.328125 0.453125 -0.53125q0.21875 -0.15625 0.59375 -0.265625q0.390625 -0.125 0.8125 -0.125q0.65625 0 1.140625 0.1875q0.5 0.1875 0.734375 0.515625q0.234375 0.3125 0.3125 0.859375l-0.90625 0.125q-0.0625 -0.4375 -0.375 -0.671875q-0.296875 -0.234375 -0.828125 -0.234375q-0.65625 0 -0.9375 0.21875q-0.265625 0.203125 -0.265625 0.484375q0 0.1875 0.109375 0.328125q0.125 0.15625 0.359375 0.25q0.140625 0.0625 0.828125 0.25q1.0 0.265625 1.390625 0.4375q0.390625 0.15625 0.609375 0.484375q0.234375 0.3125 0.234375 0.796875q0 0.46875 -0.28125 0.890625q-0.265625 0.40625 -0.78125 0.640625q-0.515625 0.21875 -1.171875 0.21875q-1.078125 0 -1.640625 -0.4375q-0.5625 -0.453125 -0.71875 -1.34375zm5.328125 0l0.921875 -0.140625q0.078125 0.5625 0.4375 0.859375q0.359375 0.296875 1.0 0.296875q0.640625 0 0.953125 -0.265625q0.3125 -0.265625 0.3125 -0.625q0 -0.3125 -0.28125 -0.5q-0.1875 -0.125 -0.953125 -0.3125q-1.03125 -0.265625 -1.4375 -0.453125q-0.390625 -0.1875 -0.59375 -0.515625q-0.203125 -0.34375 -0.203125 -0.75q0 -0.359375 0.171875 -0.671875q0.171875 -0.328125 0.453125 -0.53125q0.21875 -0.15625 0.59375 -0.265625q0.390625 -0.125 0.8125 -0.125q0.65625 0 1.140625 0.1875q0.5 0.1875 0.734375 0.515625q0.234375 0.3125 0.3125 0.859375l-0.90625 0.125q-0.0625 -0.4375 -0.375 -0.671875q-0.296875 -0.234375 -0.828125 -0.234375q-0.65625 0 -0.9375 0.21875q-0.265625 0.203125 -0.265625 0.484375q0 0.1875 0.109375 0.328125q0.125 0.15625 0.359375 0.25q0.140625 0.0625 0.828125 0.25q1.0 0.265625 1.390625 0.4375q0.390625 0.15625 0.609375 0.484375q0.234375 0.3125 0.234375 0.796875q0 0.46875 -0.28125 0.890625q-0.265625 0.40625 -0.78125 0.640625q-0.515625 0.21875 -1.171875 0.21875q-1.078125 0 -1.640625 -0.4375q-0.5625 -0.453125 -0.71875 -1.34375zm6.71875 1.65625l-1.6875 -5.53125l0.96875 0l0.875 3.1875l0.328125 1.1875q0.03125 -0.078125 0.296875 -1.140625l0.875 -3.234375l0.953125 0l0.828125 3.203125l0.28125 1.0625l0.3125 -1.0625l0.953125 -3.203125l0.90625 0l-1.71875 5.53125l-0.984375 0l-0.875 -3.3125l-0.21875 -0.9375l-1.109375 4.25l-0.984375 0zm6.3362427 -2.765625q0 -1.53125 0.84375 -2.265625q0.71875 -0.625 1.734375 -0.625q1.140625 0 1.859375 0.75q0.734375 0.75 0.734375 2.0625q0 1.0625 -0.328125 1.6875q-0.3125 0.609375 -0.921875 0.953125q-0.609375 0.328125 -1.34375 0.328125q-1.15625 0 -1.875 -0.734375q-0.703125 -0.75 -0.703125 -2.15625zm0.953125 0q0 1.0625 0.46875 1.59375q0.46875 0.53125 1.15625 0.53125q0.703125 0 1.15625 -0.53125q0.46875 -0.53125 0.46875 -1.625q0 -1.015625 -0.46875 -1.546875q-0.453125 -0.53125 -1.15625 -0.53125q-0.6875 0 -1.15625 0.53125q-0.46875 0.515625 -0.46875 1.578125zm5.301483 2.765625l0 -5.53125l0.84375 0l0 0.84375q0.328125 -0.59375 0.59375 -0.78125q0.28125 -0.1875 0.609375 -0.1875q0.46875 0 0.953125 0.3125l-0.3125 0.859375q-0.34375 -0.203125 -0.6875 -0.203125q-0.3125 0 -0.5625 0.1875q-0.234375 0.1875 -0.34375 0.515625q-0.15625 0.5 -0.15625 1.09375l0 2.890625l-0.9375 0zm7.1423645 0l0 -0.703125q-0.515625 0.828125 -1.546875 0.828125q-0.65625 0 -1.21875 -0.359375q-0.546875 -0.375 -0.859375 -1.015625q-0.296875 -0.65625 -0.296875 -1.5q0 -0.828125 0.28125 -1.5q0.28125 -0.6875 0.828125 -1.046875q0.546875 -0.359375 1.234375 -0.359375q0.5 0 0.890625 0.21875q0.390625 0.203125 0.625 0.546875l0 -2.734375l0.9375 0l0 7.625l-0.875 0zm-2.953125 -2.75q0 1.046875 0.4375 1.578125q0.453125 0.53125 1.0625 0.53125q0.609375 0 1.03125 -0.5q0.4375 -0.515625 0.4375 -1.53125q0 -1.140625 -0.4375 -1.671875q-0.4375 -0.53125 -1.078125 -0.53125q-0.609375 0 -1.03125 0.515625q-0.421875 0.5 -0.421875 1.609375z" fill-rule="nonzero"/></g></svg>