<?xml version="1.0" encoding="UTF-8" standalone="no"?>
<!DOCTYPE svg PUBLIC "-//W3C//DTD SVG 1.1//EN" "http://www.w3.org/Graphics/SVG/1.1/DTD/svg11.dtd">
<svg width="100%" height="100%" viewBox="0 0 720 540" version="1.1" xmlns="http://www.w3.org/2000/svg" style="fill-rule:evenodd;clip-rule:evenodd;stroke-linejoin:round;stroke-miterlimit:10;">
    <g>
        <rect x="0" y="0" width="720" height="540" style="fill:white;"/>
        <rect x="244.424" y="40.724" width="231.15" height="458.551" style="fill:rgb(233,237,238);"/>
        <rect x="244.424" y="40.724" width="231.15" height="458.551" style="fill:none;stroke:rgb(26,26,26);stroke-width:1px;"/>
        <path d="M273.542,293.534C273.542,290.421 276.066,287.896 279.18,287.896L440.817,287.896C442.313,287.896 443.747,288.49 444.804,289.548C445.861,290.605 446.455,292.039 446.455,293.534L446.455,316.085C446.455,319.199 443.931,321.723 440.817,321.723L279.18,321.723C276.066,321.723 273.542,319.199 273.542,316.085L273.542,293.534Z" style="fill:rgb(233,237,238);"/>
        <path d="M273.542,293.534C273.542,290.421 276.066,287.896 279.18,287.896L440.817,287.896C442.313,287.896 443.747,288.49 444.804,289.548C445.861,290.605 446.455,292.039 446.455,293.534L446.455,316.085C446.455,319.199 443.931,321.723 440.817,321.723L279.18,321.723C276.066,321.723 273.542,319.199 273.542,316.085L273.542,293.534Z" style="fill:none;stroke:rgb(26,26,26);stroke-width:1px;"/>
        <path d="M285.193,313.873L285.037,312.545C285.339,312.628 285.605,312.67 285.834,312.67C286.146,312.67 286.396,312.618 286.584,312.513C286.771,312.409 286.928,312.263 287.053,312.076C287.136,311.941 287.277,311.592 287.475,311.029C287.506,310.956 287.547,310.842 287.6,310.685L284.459,302.373L285.975,302.373L287.693,307.17C287.922,307.784 288.126,308.425 288.303,309.092C288.459,308.446 288.652,307.816 288.881,307.201L290.646,302.373L292.053,302.373L288.896,310.81C288.563,311.727 288.303,312.357 288.115,312.701C287.865,313.159 287.579,313.498 287.256,313.717C286.933,313.935 286.547,314.045 286.1,314.045C285.829,314.045 285.527,313.987 285.193,313.873ZM292.725,306.513C292.725,304.982 293.152,303.847 294.006,303.107C294.725,302.493 295.594,302.185 296.615,302.185C297.761,302.185 298.693,302.56 299.412,303.31C300.141,304.05 300.506,305.081 300.506,306.404C300.506,307.467 300.344,308.305 300.021,308.92C299.698,309.534 299.23,310.013 298.615,310.357C298.011,310.691 297.344,310.857 296.615,310.857C295.459,310.857 294.521,310.487 293.803,309.748C293.084,308.998 292.725,307.92 292.725,306.513ZM294.178,306.513C294.178,307.576 294.407,308.373 294.865,308.904C295.334,309.435 295.917,309.701 296.615,309.701C297.313,309.701 297.891,309.435 298.35,308.904C298.818,308.373 299.053,307.56 299.053,306.467C299.053,305.446 298.818,304.67 298.35,304.138C297.891,303.607 297.313,303.342 296.615,303.342C295.917,303.342 295.334,303.607 294.865,304.138C294.407,304.659 294.178,305.451 294.178,306.513ZM307.592,310.67L307.592,309.451C306.946,310.388 306.066,310.857 304.951,310.857C304.461,310.857 304.003,310.763 303.576,310.576C303.159,310.388 302.847,310.154 302.639,309.873C302.43,309.581 302.284,309.232 302.201,308.826C302.149,308.545 302.123,308.107 302.123,307.513L302.123,302.373L303.529,302.373L303.529,306.967C303.529,307.706 303.555,308.201 303.607,308.451C303.701,308.826 303.889,309.118 304.17,309.326C304.461,309.534 304.816,309.638 305.232,309.638C305.659,309.638 306.055,309.534 306.42,309.326C306.795,309.107 307.055,308.81 307.201,308.435C307.357,308.06 307.435,307.519 307.435,306.81L307.435,302.373L308.842,302.373L308.842,310.67L307.592,310.67ZM311.037,310.67L311.037,302.373L312.303,302.373L312.303,303.623C312.626,303.039 312.922,302.654 313.193,302.467C313.464,302.279 313.766,302.185 314.1,302.185C314.568,302.185 315.047,302.336 315.537,302.638L315.053,303.935C314.709,303.737 314.365,303.638 314.021,303.638C313.719,303.638 313.443,303.732 313.193,303.92C312.954,304.097 312.782,304.352 312.678,304.685C312.521,305.185 312.443,305.732 312.443,306.326L312.443,310.67L311.037,310.67ZM324.396,309.388C324.053,309.784 323.672,310.102 323.256,310.342C322.839,310.581 322.417,310.701 321.99,310.701C321.532,310.701 321.084,310.566 320.646,310.295C320.209,310.013 319.85,309.592 319.568,309.029C319.297,308.467 319.162,307.852 319.162,307.185C319.162,306.352 319.376,305.524 319.803,304.701C320.23,303.868 320.756,303.243 321.381,302.826C322.016,302.409 322.631,302.201 323.225,302.201C323.672,302.201 324.1,302.321 324.506,302.56C324.922,302.789 325.282,303.149 325.584,303.638L325.85,302.42L327.24,302.42L326.115,307.67C325.959,308.399 325.881,308.8 325.881,308.873C325.881,309.019 325.933,309.144 326.037,309.248C326.152,309.342 326.282,309.388 326.428,309.388C326.709,309.388 327.073,309.232 327.521,308.92C328.115,308.503 328.584,307.946 328.928,307.248C329.271,306.539 329.443,305.816 329.443,305.076C329.443,304.201 329.219,303.388 328.771,302.638C328.334,301.878 327.672,301.274 326.787,300.826C325.902,300.368 324.928,300.138 323.865,300.138C322.646,300.138 321.532,300.425 320.521,300.998C319.511,301.571 318.73,302.388 318.178,303.451C317.626,304.513 317.35,305.654 317.35,306.873C317.35,308.154 317.626,309.258 318.178,310.185C318.73,311.102 319.532,311.779 320.584,312.217C321.636,312.664 322.797,312.888 324.068,312.888C325.433,312.888 326.573,312.659 327.49,312.201C328.417,311.743 329.11,311.18 329.568,310.513L330.99,310.513C330.719,311.066 330.261,311.623 329.615,312.185C328.969,312.758 328.198,313.211 327.303,313.545C326.417,313.878 325.35,314.045 324.1,314.045C322.943,314.045 321.876,313.894 320.896,313.592C319.917,313.3 319.084,312.852 318.396,312.248C317.709,311.654 317.193,310.967 316.85,310.185C316.412,309.206 316.193,308.144 316.193,306.998C316.193,305.727 316.454,304.519 316.975,303.373C317.61,301.956 318.511,300.873 319.678,300.123C320.844,299.373 322.261,298.998 323.928,298.998C325.219,298.998 326.381,299.263 327.412,299.795C328.443,300.326 329.256,301.112 329.85,302.154C330.35,303.06 330.6,304.039 330.6,305.092C330.6,306.602 330.068,307.946 329.006,309.123C328.058,310.175 327.021,310.701 325.896,310.701C325.542,310.701 325.251,310.649 325.021,310.545C324.803,310.43 324.641,310.269 324.537,310.06C324.475,309.935 324.428,309.711 324.396,309.388ZM320.615,307.279C320.615,307.987 320.782,308.539 321.115,308.935C321.459,309.331 321.85,309.529 322.287,309.529C322.579,309.529 322.886,309.446 323.209,309.279C323.532,309.102 323.839,308.842 324.131,308.498C324.422,308.154 324.662,307.717 324.85,307.185C325.037,306.654 325.131,306.123 325.131,305.592C325.131,304.883 324.954,304.336 324.6,303.951C324.256,303.555 323.829,303.357 323.318,303.357C322.985,303.357 322.672,303.446 322.381,303.623C322.089,303.789 321.803,304.06 321.521,304.435C321.251,304.81 321.032,305.269 320.865,305.81C320.698,306.342 320.615,306.831 320.615,307.279ZM338.295,307.998L339.748,308.17C339.519,309.024 339.092,309.685 338.467,310.154C337.852,310.623 337.066,310.857 336.107,310.857C334.889,310.857 333.925,310.482 333.217,309.732C332.508,308.982 332.154,307.935 332.154,306.592C332.154,305.196 332.514,304.112 333.232,303.342C333.951,302.571 334.883,302.185 336.029,302.185C337.133,302.185 338.034,302.566 338.732,303.326C339.441,304.076 339.795,305.133 339.795,306.498L339.795,306.873L333.607,306.873C333.659,307.789 333.915,308.493 334.373,308.982C334.842,309.461 335.42,309.701 336.107,309.701C336.628,309.701 337.071,309.566 337.435,309.295C337.8,309.024 338.086,308.592 338.295,307.998ZM333.685,305.717L338.31,305.717C338.248,305.019 338.071,304.498 337.779,304.154C337.331,303.612 336.753,303.342 336.045,303.342C335.399,303.342 334.852,303.56 334.404,303.998C333.967,304.425 333.727,304.998 333.685,305.717ZM341.521,310.67L341.521,302.373L342.771,302.373L342.771,303.529C343.032,303.123 343.376,302.8 343.803,302.56C344.24,302.31 344.735,302.185 345.287,302.185C345.902,302.185 346.407,302.316 346.803,302.576C347.198,302.826 347.475,303.18 347.631,303.638C348.287,302.67 349.141,302.185 350.193,302.185C351.016,302.185 351.646,302.414 352.084,302.873C352.532,303.321 352.756,304.019 352.756,304.967L352.756,310.67L351.365,310.67L351.365,305.435C351.365,304.873 351.318,304.472 351.225,304.232C351.131,303.982 350.964,303.784 350.725,303.638C350.485,303.482 350.204,303.404 349.881,303.404C349.297,303.404 348.813,303.597 348.428,303.982C348.042,304.368 347.85,304.987 347.85,305.842L347.85,310.67L346.443,310.67L346.443,305.279C346.443,304.654 346.329,304.185 346.1,303.873C345.87,303.56 345.495,303.404 344.975,303.404C344.579,303.404 344.214,303.508 343.881,303.717C343.547,303.925 343.303,304.232 343.146,304.638C343.001,305.034 342.928,305.607 342.928,306.357L342.928,310.67L341.521,310.67ZM360.256,309.638C359.735,310.086 359.235,310.404 358.756,310.592C358.277,310.769 357.761,310.857 357.209,310.857C356.292,310.857 355.589,310.633 355.1,310.185C354.61,309.737 354.365,309.17 354.365,308.482C354.365,308.076 354.459,307.706 354.646,307.373C354.834,307.029 355.073,306.758 355.365,306.56C355.667,306.352 356.006,306.196 356.381,306.092C356.662,306.019 357.079,305.951 357.631,305.888C358.766,305.753 359.605,305.592 360.146,305.404L360.146,305.029C360.146,304.456 360.016,304.055 359.756,303.826C359.391,303.503 358.855,303.342 358.146,303.342C357.49,303.342 357.001,303.461 356.678,303.701C356.365,303.93 356.136,304.336 355.99,304.92L354.615,304.732C354.74,304.149 354.943,303.675 355.225,303.31C355.516,302.946 355.933,302.67 356.475,302.482C357.016,302.284 357.641,302.185 358.35,302.185C359.058,302.185 359.631,302.269 360.068,302.435C360.516,302.602 360.844,302.81 361.053,303.06C361.261,303.31 361.407,303.628 361.49,304.013C361.542,304.253 361.568,304.685 361.568,305.31L361.568,307.185C361.568,308.498 361.594,309.326 361.646,309.67C361.709,310.013 361.829,310.347 362.006,310.67L360.537,310.67C360.391,310.378 360.297,310.034 360.256,309.638ZM360.146,306.498C359.636,306.706 358.87,306.883 357.85,307.029C357.266,307.112 356.855,307.206 356.615,307.31C356.376,307.414 356.188,307.571 356.053,307.779C355.928,307.977 355.865,308.196 355.865,308.435C355.865,308.81 356.006,309.123 356.287,309.373C356.579,309.623 356.995,309.748 357.537,309.748C358.079,309.748 358.558,309.633 358.975,309.404C359.402,309.164 359.714,308.836 359.912,308.42C360.068,308.107 360.146,307.638 360.146,307.013L360.146,306.498ZM363.748,300.826L363.748,299.217L365.154,299.217L365.154,300.826L363.748,300.826ZM363.748,310.67L363.748,302.373L365.154,302.373L365.154,310.67L363.748,310.67ZM367.271,310.67L367.271,299.217L368.678,299.217L368.678,310.67L367.271,310.67ZM371.248,310.67L371.248,309.06L372.857,309.06L372.857,310.67L371.248,310.67ZM380.709,307.623L382.1,307.81C381.943,308.758 381.553,309.503 380.928,310.045C380.313,310.586 379.553,310.857 378.646,310.857C377.511,310.857 376.594,310.487 375.896,309.748C375.209,308.998 374.865,307.93 374.865,306.545C374.865,305.649 375.011,304.868 375.303,304.201C375.605,303.524 376.058,303.019 376.662,302.685C377.277,302.352 377.938,302.185 378.646,302.185C379.553,302.185 380.292,302.414 380.865,302.873C381.438,303.321 381.803,303.967 381.959,304.81L380.6,305.013C380.464,304.461 380.23,304.045 379.896,303.763C379.573,303.482 379.178,303.342 378.709,303.342C378.001,303.342 377.422,303.597 376.975,304.107C376.537,304.607 376.318,305.409 376.318,306.513C376.318,307.628 376.532,308.441 376.959,308.951C377.386,309.451 377.943,309.701 378.631,309.701C379.183,309.701 379.641,309.534 380.006,309.201C380.381,308.857 380.615,308.331 380.709,307.623ZM382.771,306.513C382.771,304.982 383.198,303.847 384.053,303.107C384.771,302.493 385.641,302.185 386.662,302.185C387.808,302.185 388.74,302.56 389.459,303.31C390.188,304.05 390.553,305.081 390.553,306.404C390.553,307.467 390.391,308.305 390.068,308.92C389.745,309.534 389.277,310.013 388.662,310.357C388.058,310.691 387.391,310.857 386.662,310.857C385.506,310.857 384.568,310.487 383.85,309.748C383.131,308.998 382.771,307.92 382.771,306.513ZM384.225,306.513C384.225,307.576 384.454,308.373 384.912,308.904C385.381,309.435 385.964,309.701 386.662,309.701C387.36,309.701 387.938,309.435 388.396,308.904C388.865,308.373 389.1,307.56 389.1,306.467C389.1,305.446 388.865,304.67 388.396,304.138C387.938,303.607 387.36,303.342 386.662,303.342C385.964,303.342 385.381,303.607 384.912,304.138C384.454,304.659 384.225,305.451 384.225,306.513ZM392.201,310.67L392.201,302.373L393.451,302.373L393.451,303.529C393.711,303.123 394.055,302.8 394.482,302.56C394.92,302.31 395.415,302.185 395.967,302.185C396.581,302.185 397.086,302.316 397.482,302.576C397.878,302.826 398.154,303.18 398.31,303.638C398.967,302.67 399.821,302.185 400.873,302.185C401.696,302.185 402.326,302.414 402.764,302.873C403.211,303.321 403.435,304.019 403.435,304.967L403.435,310.67L402.045,310.67L402.045,305.435C402.045,304.873 401.998,304.472 401.904,304.232C401.81,303.982 401.644,303.784 401.404,303.638C401.165,303.482 400.883,303.404 400.56,303.404C399.977,303.404 399.493,303.597 399.107,303.982C398.722,304.368 398.529,304.987 398.529,305.842L398.529,310.67L397.123,310.67L397.123,305.279C397.123,304.654 397.008,304.185 396.779,303.873C396.55,303.56 396.175,303.404 395.654,303.404C395.258,303.404 394.894,303.508 394.56,303.717C394.227,303.925 393.982,304.232 393.826,304.638C393.68,305.034 393.607,305.607 393.607,306.357L393.607,310.67L392.201,310.67Z" style="fill:rgb(183,183,183);fill-rule:nonzero;"/>
        <path d="M273.542,334.841C273.542,331.728 276.066,329.203 279.18,329.203L440.817,329.203C442.313,329.203 443.747,329.797 444.804,330.855C445.861,331.912 446.455,333.346 446.455,334.841L446.455,357.392C446.455,360.506 443.931,363.03 440.817,363.03L279.18,363.03C276.066,363.03 273.542,360.506 273.542,357.392L273.542,334.841Z" style="fill:rgb(233,237,238);"/>
        <path d="M273.542,334.841C273.542,331.728 276.066,329.203 279.18,329.203L440.817,329.203C442.313,329.203 443.747,329.797 444.804,330.855C445.861,331.912 446.455,333.346 446.455,334.841L446.455,357.392C446.455,360.506 443.931,363.03 440.817,363.03L279.18,363.03C276.066,363.03 273.542,360.506 273.542,357.392L273.542,334.841Z" style="fill:none;stroke:rgb(26,26,26);stroke-width:1px;"/>
        <path d="M284.693,342.617L285.053,341.508C285.886,341.8 286.49,342.055 286.865,342.274C286.761,341.326 286.709,340.675 286.709,340.321L287.834,340.321C287.823,340.841 287.766,341.487 287.662,342.258C288.193,341.987 288.808,341.737 289.506,341.508L289.865,342.617C289.198,342.836 288.547,342.982 287.912,343.055C288.235,343.336 288.683,343.831 289.256,344.539L288.318,345.196C288.016,344.789 287.662,344.232 287.256,343.524C286.87,344.253 286.532,344.81 286.24,345.196L285.318,344.539C285.922,343.789 286.355,343.295 286.615,343.055C285.938,342.93 285.297,342.784 284.693,342.617ZM290.92,342.617L291.279,341.508C292.113,341.8 292.717,342.055 293.092,342.274C292.988,341.326 292.935,340.675 292.935,340.321L294.06,340.321C294.05,340.841 293.993,341.487 293.889,342.258C294.42,341.987 295.034,341.737 295.732,341.508L296.092,342.617C295.425,342.836 294.774,342.982 294.139,343.055C294.461,343.336 294.909,343.831 295.482,344.539L294.545,345.196C294.243,344.789 293.889,344.232 293.482,343.524C293.097,344.253 292.758,344.81 292.467,345.196L291.545,344.539C292.149,343.789 292.581,343.295 292.842,343.055C292.165,342.93 291.524,342.784 290.92,342.617ZM297.146,342.617L297.506,341.508C298.339,341.8 298.943,342.055 299.318,342.274C299.214,341.326 299.162,340.675 299.162,340.321L300.287,340.321C300.277,340.841 300.219,341.487 300.115,342.258C300.646,341.987 301.261,341.737 301.959,341.508L302.318,342.617C301.652,342.836 301.001,342.982 300.365,343.055C300.688,343.336 301.136,343.831 301.709,344.539L300.771,345.196C300.469,344.789 300.115,344.232 299.709,343.524C299.323,344.253 298.985,344.81 298.693,345.196L297.771,344.539C298.376,343.789 298.808,343.295 299.068,343.055C298.391,342.93 297.751,342.784 297.146,342.617ZM303.373,342.617L303.732,341.508C304.566,341.8 305.17,342.055 305.545,342.274C305.441,341.326 305.389,340.675 305.389,340.321L306.514,340.321C306.503,340.841 306.446,341.487 306.342,342.258C306.873,341.987 307.488,341.737 308.185,341.508L308.545,342.617C307.878,342.836 307.227,342.982 306.592,343.055C306.915,343.336 307.363,343.831 307.935,344.539L306.998,345.196C306.696,344.789 306.342,344.232 305.935,343.524C305.55,344.253 305.211,344.81 304.92,345.196L303.998,344.539C304.602,343.789 305.034,343.295 305.295,343.055C304.618,342.93 303.977,342.784 303.373,342.617ZM309.6,342.617L309.959,341.508C310.792,341.8 311.396,342.055 311.771,342.274C311.667,341.326 311.615,340.675 311.615,340.321L312.74,340.321C312.73,340.841 312.672,341.487 312.568,342.258C313.1,341.987 313.714,341.737 314.412,341.508L314.771,342.617C314.105,342.836 313.454,342.982 312.818,343.055C313.141,343.336 313.589,343.831 314.162,344.539L313.225,345.196C312.922,344.789 312.568,344.232 312.162,343.524C311.777,344.253 311.438,344.81 311.146,345.196L310.225,344.539C310.829,343.789 311.261,343.295 311.521,343.055C310.844,342.93 310.204,342.784 309.6,342.617ZM315.826,342.617L316.185,341.508C317.019,341.8 317.623,342.055 317.998,342.274C317.894,341.326 317.842,340.675 317.842,340.321L318.967,340.321C318.956,340.841 318.899,341.487 318.795,342.258C319.326,341.987 319.941,341.737 320.639,341.508L320.998,342.617C320.331,342.836 319.68,342.982 319.045,343.055C319.368,343.336 319.816,343.831 320.389,344.539L319.451,345.196C319.149,344.789 318.795,344.232 318.389,343.524C318.003,344.253 317.665,344.81 317.373,345.196L316.451,344.539C317.055,343.789 317.488,343.295 317.748,343.055C317.071,342.93 316.43,342.784 315.826,342.617Z" style="fill:rgb(183,183,183);fill-rule:nonzero;"/>
        <path d="M273.542,156.381C273.542,153.267 276.066,150.743 279.18,150.743L440.817,150.743C442.313,150.743 443.747,151.337 444.804,152.394C445.861,153.451 446.455,154.885 446.455,156.381L446.455,178.932C446.455,182.045 443.931,184.57 440.817,184.57L279.18,184.57C276.066,184.57 273.542,182.045 273.542,178.932L273.542,156.381Z" style="fill:rgb(164,194,244);"/>
        <path d="M273.542,156.381C273.542,153.267 276.066,150.743 279.18,150.743L440.817,150.743C442.313,150.743 443.747,151.337 444.804,152.394C445.861,153.451 446.455,154.885 446.455,156.381L446.455,178.932C446.455,182.045 443.931,184.57 440.817,184.57L279.18,184.57C276.066,184.57 273.542,182.045 273.542,178.932L273.542,156.381Z" style="fill:none;stroke:rgb(26,26,26);stroke-width:1px;"/>
        <path d="M285.693,173.516L285.693,162.063L287.209,162.063L287.209,173.516L285.693,173.516ZM289.873,173.516L289.873,162.063L293.826,162.063C294.711,162.063 295.389,162.115 295.857,162.219C296.514,162.376 297.076,162.652 297.545,163.047C298.149,163.558 298.597,164.209 298.889,165.001C299.191,165.792 299.342,166.698 299.342,167.719C299.342,168.594 299.238,169.37 299.029,170.047C298.831,170.714 298.571,171.266 298.248,171.704C297.935,172.141 297.592,172.49 297.217,172.751C296.842,173.001 296.383,173.193 295.842,173.329C295.31,173.454 294.701,173.516 294.014,173.516L289.873,173.516ZM291.389,172.157L293.842,172.157C294.592,172.157 295.18,172.089 295.607,171.954C296.045,171.808 296.389,171.61 296.639,171.36C297.003,170.995 297.284,170.511 297.482,169.907C297.68,169.303 297.779,168.568 297.779,167.704C297.779,166.506 297.581,165.584 297.185,164.938C296.8,164.292 296.326,163.86 295.764,163.641C295.357,163.485 294.701,163.407 293.795,163.407L291.389,163.407L291.389,172.157ZM301.428,173.516L301.428,162.063L305.756,162.063C306.516,162.063 307.094,162.1 307.49,162.172C308.053,162.266 308.521,162.443 308.896,162.704C309.282,162.964 309.589,163.334 309.818,163.813C310.058,164.282 310.178,164.803 310.178,165.376C310.178,166.344 309.865,167.167 309.24,167.844C308.626,168.521 307.506,168.86 305.881,168.86L302.943,168.86L302.943,173.516L301.428,173.516ZM302.943,167.501L305.912,167.501C306.891,167.501 307.584,167.318 307.99,166.954C308.407,166.589 308.615,166.079 308.615,165.422C308.615,164.943 308.49,164.532 308.24,164.188C308.001,163.844 307.683,163.62 307.287,163.516C307.037,163.443 306.568,163.407 305.881,163.407L302.943,163.407L302.943,167.501ZM316.834,173.516L315.428,173.516L315.428,164.547C315.084,164.87 314.636,165.193 314.084,165.516C313.542,165.839 313.053,166.084 312.615,166.251L312.615,164.891C313.396,164.516 314.079,164.068 314.662,163.547C315.256,163.016 315.678,162.506 315.928,162.016L316.834,162.016L316.834,173.516Z" style="fill:white;fill-rule:nonzero;"/>
        <path d="M273.542,204.331C273.542,201.217 276.066,198.693 279.18,198.693L440.817,198.693C442.313,198.693 443.747,199.287 444.804,200.344C445.861,201.402 446.455,202.836 446.455,204.331L446.455,226.882C446.455,229.996 443.931,232.52 440.817,232.52L279.18,232.52C276.066,232.52 273.542,229.996 273.542,226.882L273.542,204.331Z" style="fill:rgb(235,86,0);"/>
        <path d="M273.542,204.331C273.542,201.217 276.066,198.693 279.18,198.693L440.817,198.693C442.313,198.693 443.747,199.287 444.804,200.344C445.861,201.402 446.455,202.836 446.455,204.331L446.455,226.882C446.455,229.996 443.931,232.52 440.817,232.52L279.18,232.52C276.066,232.52 273.542,229.996 273.542,226.882L273.542,204.331Z" style="fill:none;stroke:rgb(26,26,26);stroke-width:1px;"/>
        <path d="M285.693,221.466L285.693,210.013L287.209,210.013L287.209,221.466L285.693,221.466ZM289.873,221.466L289.873,210.013L293.826,210.013C294.711,210.013 295.389,210.065 295.857,210.169C296.514,210.326 297.076,210.602 297.545,210.998C298.149,211.508 298.597,212.159 298.889,212.951C299.191,213.742 299.342,214.649 299.342,215.669C299.342,216.544 299.238,217.32 299.029,217.998C298.831,218.664 298.571,219.216 298.248,219.654C297.935,220.091 297.592,220.44 297.217,220.701C296.842,220.951 296.383,221.143 295.842,221.279C295.31,221.404 294.701,221.466 294.014,221.466L289.873,221.466ZM291.389,220.107L293.842,220.107C294.592,220.107 295.18,220.039 295.607,219.904C296.045,219.758 296.389,219.56 296.639,219.31C297.003,218.945 297.284,218.461 297.482,217.857C297.68,217.253 297.779,216.518 297.779,215.654C297.779,214.456 297.581,213.534 297.185,212.888C296.8,212.242 296.326,211.81 295.764,211.591C295.357,211.435 294.701,211.357 293.795,211.357L291.389,211.357L291.389,220.107ZM301.428,221.466L301.428,210.013L305.756,210.013C306.516,210.013 307.094,210.05 307.49,210.123C308.053,210.216 308.521,210.393 308.896,210.654C309.282,210.914 309.589,211.284 309.818,211.763C310.058,212.232 310.178,212.753 310.178,213.326C310.178,214.294 309.865,215.117 309.24,215.794C308.626,216.472 307.506,216.81 305.881,216.81L302.943,216.81L302.943,221.466L301.428,221.466ZM302.943,215.451L305.912,215.451C306.891,215.451 307.584,215.268 307.99,214.904C308.407,214.539 308.615,214.029 308.615,213.373C308.615,212.893 308.49,212.482 308.24,212.138C308.001,211.794 307.683,211.57 307.287,211.466C307.037,211.393 306.568,211.357 305.881,211.357L302.943,211.357L302.943,215.451ZM318.928,220.107L318.928,221.466L311.35,221.466C311.339,221.123 311.396,220.794 311.521,220.482C311.709,219.972 312.016,219.466 312.443,218.966C312.87,218.466 313.485,217.888 314.287,217.232C315.527,216.211 316.365,215.404 316.803,214.81C317.24,214.206 317.459,213.638 317.459,213.107C317.459,212.555 317.261,212.086 316.865,211.701C316.469,211.315 315.948,211.123 315.303,211.123C314.626,211.123 314.084,211.326 313.678,211.732C313.271,212.138 313.068,212.701 313.068,213.419L311.615,213.279C311.719,212.195 312.094,211.373 312.74,210.81C313.386,210.248 314.251,209.966 315.334,209.966C316.438,209.966 317.308,210.274 317.943,210.888C318.589,211.492 318.912,212.242 318.912,213.138C318.912,213.597 318.818,214.05 318.631,214.498C318.443,214.935 318.131,215.399 317.693,215.888C317.256,216.378 316.532,217.05 315.521,217.904C314.678,218.612 314.136,219.097 313.896,219.357C313.657,219.607 313.459,219.857 313.303,220.107L318.928,220.107Z" style="fill:white;fill-rule:nonzero;"/>
        <path d="M273.542,407.072C273.542,403.959 276.066,401.434 279.18,401.434L440.817,401.434C442.313,401.434 443.747,402.028 444.804,403.086C445.861,404.143 446.455,405.577 446.455,407.072L446.455,429.623C446.455,432.737 443.931,435.261 440.817,435.261L279.18,435.261C276.066,435.261 273.542,432.737 273.542,429.623L273.542,407.072Z" style="fill:rgb(233,237,238);"/>
        <path d="M273.542,407.072C273.542,403.959 276.066,401.434 279.18,401.434L440.817,401.434C442.313,401.434 443.747,402.028 444.804,403.086C445.861,404.143 446.455,405.577 446.455,407.072L446.455,429.623C446.455,432.737 443.931,435.261 440.817,435.261L279.18,435.261C276.066,435.261 273.542,432.737 273.542,429.623L273.542,407.072Z" style="fill:none;stroke:rgb(26,26,26);stroke-width:1px;"/>
        <path d="M332.257,420.52L333.694,420.395C333.757,420.968 333.913,421.442 334.163,421.817C334.413,422.182 334.798,422.479 335.319,422.708C335.84,422.927 336.423,423.036 337.069,423.036C337.652,423.036 338.163,422.953 338.6,422.786C339.048,422.609 339.376,422.374 339.585,422.083C339.803,421.781 339.913,421.453 339.913,421.098C339.913,420.734 339.809,420.421 339.6,420.161C339.392,419.89 339.048,419.661 338.569,419.473C338.267,419.359 337.59,419.177 336.538,418.927C335.486,418.666 334.746,418.427 334.319,418.208C333.777,417.916 333.371,417.562 333.1,417.145C332.829,416.718 332.694,416.239 332.694,415.708C332.694,415.135 332.855,414.598 333.178,414.098C333.512,413.588 333.991,413.203 334.616,412.942C335.251,412.682 335.954,412.552 336.725,412.552C337.579,412.552 338.329,412.692 338.975,412.973C339.621,413.244 340.116,413.645 340.46,414.177C340.814,414.708 341.007,415.307 341.038,415.973L339.585,416.083C339.501,415.364 339.236,414.822 338.788,414.458C338.34,414.083 337.673,413.895 336.788,413.895C335.871,413.895 335.204,414.062 334.788,414.395C334.371,414.729 334.163,415.135 334.163,415.614C334.163,416.02 334.309,416.359 334.6,416.63C334.892,416.89 335.652,417.161 336.882,417.442C338.121,417.723 338.97,417.968 339.428,418.177C340.095,418.479 340.585,418.869 340.897,419.348C341.22,419.817 341.382,420.359 341.382,420.973C341.382,421.578 341.204,422.15 340.85,422.692C340.507,423.234 340.007,423.656 339.35,423.958C338.694,424.26 337.96,424.411 337.147,424.411C336.105,424.411 335.236,424.26 334.538,423.958C333.84,423.645 333.288,423.187 332.882,422.583C332.486,421.979 332.277,421.291 332.257,420.52ZM343.272,414.364L343.272,412.755L344.678,412.755L344.678,414.364L343.272,414.364ZM343.272,424.208L343.272,415.911L344.678,415.911L344.678,424.208L343.272,424.208ZM346.561,424.895L347.936,425.098C347.988,425.525 348.145,425.833 348.405,426.02C348.759,426.281 349.238,426.411 349.842,426.411C350.488,426.411 350.988,426.281 351.342,426.02C351.697,425.76 351.936,425.395 352.061,424.927C352.134,424.645 352.171,424.041 352.171,423.114C351.556,423.843 350.79,424.208 349.874,424.208C348.728,424.208 347.842,423.796 347.217,422.973C346.592,422.15 346.28,421.161 346.28,420.005C346.28,419.213 346.421,418.484 346.702,417.817C346.993,417.15 347.41,416.635 347.952,416.27C348.504,415.906 349.145,415.723 349.874,415.723C350.853,415.723 351.66,416.119 352.296,416.911L352.296,415.911L353.592,415.911L353.592,423.083C353.592,424.374 353.462,425.291 353.202,425.833C352.941,426.374 352.525,426.802 351.952,427.114C351.379,427.427 350.676,427.583 349.842,427.583C348.853,427.583 348.051,427.359 347.436,426.911C346.832,426.463 346.54,425.791 346.561,424.895ZM347.733,419.911C347.733,420.994 347.947,421.786 348.374,422.286C348.811,422.786 349.353,423.036 349.999,423.036C350.645,423.036 351.186,422.791 351.624,422.302C352.061,421.802 352.28,421.02 352.28,419.958C352.28,418.937 352.056,418.171 351.608,417.661C351.16,417.14 350.618,416.88 349.983,416.88C349.358,416.88 348.827,417.135 348.389,417.645C347.952,418.156 347.733,418.911 347.733,419.911ZM355.725,424.208L355.725,415.911L356.991,415.911L356.991,417.083C357.595,416.177 358.475,415.723 359.632,415.723C360.132,415.723 360.59,415.812 361.007,415.989C361.423,416.166 361.736,416.4 361.944,416.692C362.152,416.984 362.298,417.333 362.382,417.739C362.434,417.999 362.46,418.453 362.46,419.098L362.46,424.208L361.053,424.208L361.053,419.161C361.053,418.588 360.996,418.161 360.882,417.88C360.777,417.588 360.585,417.359 360.303,417.192C360.033,417.025 359.71,416.942 359.335,416.942C358.73,416.942 358.21,417.135 357.772,417.52C357.345,417.895 357.132,418.614 357.132,419.677L357.132,424.208L355.725,424.208ZM376.757,412.755L378.272,412.755L378.272,419.364C378.272,420.52 378.142,421.437 377.882,422.114C377.621,422.791 377.152,423.343 376.475,423.77C375.798,424.197 374.908,424.411 373.803,424.411C372.73,424.411 371.85,424.223 371.163,423.848C370.486,423.473 370.001,422.937 369.71,422.239C369.418,421.541 369.272,420.583 369.272,419.364L369.272,412.755L370.788,412.755L370.788,419.364C370.788,420.354 370.876,421.088 371.053,421.567C371.241,422.036 371.559,422.4 372.007,422.661C372.465,422.911 373.017,423.036 373.663,423.036C374.777,423.036 375.569,422.786 376.038,422.286C376.517,421.775 376.757,420.802 376.757,419.364L376.757,412.755ZM380.624,427.395L380.624,415.911L381.905,415.911L381.905,416.989C382.207,416.562 382.546,416.244 382.921,416.036C383.306,415.828 383.77,415.723 384.311,415.723C385.02,415.723 385.645,415.906 386.186,416.27C386.728,416.635 387.134,417.15 387.405,417.817C387.686,418.473 387.827,419.197 387.827,419.989C387.827,420.843 387.671,421.609 387.358,422.286C387.056,422.963 386.613,423.484 386.03,423.848C385.457,424.213 384.848,424.395 384.202,424.395C383.733,424.395 383.311,424.296 382.936,424.098C382.572,423.9 382.27,423.65 382.03,423.348L382.03,427.395L380.624,427.395ZM381.889,420.098C381.889,421.171 382.103,421.963 382.53,422.473C382.967,422.984 383.493,423.239 384.108,423.239C384.733,423.239 385.27,422.973 385.717,422.442C386.165,421.911 386.389,421.093 386.389,419.989C386.389,418.927 386.171,418.135 385.733,417.614C385.296,417.083 384.775,416.817 384.171,416.817C383.577,416.817 383.046,417.098 382.577,417.661C382.118,418.223 381.889,419.036 381.889,420.098Z" style="fill:rgb(89,89,89);fill-rule:nonzero;"/>
        <rect x="330.235" y="248.35" width="59.528" height="25.071" style="fill-opacity:0;"/>
        <path d="M356.78,258.511C357.363,258.511 357.894,258.61 358.374,258.808C358.853,259.006 359.259,259.287 359.592,259.652C359.926,260.017 360.181,260.454 360.358,260.965C360.535,261.475 360.624,262.048 360.624,262.683C360.624,263.329 360.535,263.907 360.358,264.418C360.181,264.928 359.926,265.366 359.592,265.73C359.259,266.095 358.853,266.376 358.374,266.574C357.894,266.761 357.363,266.855 356.78,266.855C356.186,266.855 355.65,266.761 355.171,266.574C354.691,266.376 354.285,266.095 353.952,265.73C353.618,265.366 353.358,264.928 353.171,264.418C352.993,263.907 352.905,263.329 352.905,262.683C352.905,262.048 352.993,261.475 353.171,260.965C353.358,260.454 353.618,260.017 353.952,259.652C354.285,259.287 354.691,259.006 355.171,258.808C355.65,258.61 356.186,258.511 356.78,258.511ZM356.78,265.746C357.572,265.746 358.165,265.48 358.561,264.949C358.957,264.407 359.155,263.657 359.155,262.699C359.155,261.73 358.957,260.98 358.561,260.449C358.165,259.907 357.572,259.636 356.78,259.636C356.374,259.636 356.019,259.704 355.717,259.84C355.415,259.975 355.165,260.178 354.967,260.449C354.769,260.709 354.618,261.032 354.514,261.418C354.421,261.793 354.374,262.22 354.374,262.699C354.374,263.178 354.421,263.61 354.514,263.996C354.618,264.371 354.769,264.689 354.967,264.949C355.165,265.199 355.415,265.397 355.717,265.543C356.019,265.678 356.374,265.746 356.78,265.746ZM362.395,266.746L362.395,258.636L363.207,258.636C363.363,258.636 363.467,258.668 363.52,258.73C363.582,258.793 363.624,258.892 363.645,259.027L363.738,260.293C364.02,259.73 364.363,259.293 364.77,258.98C365.176,258.657 365.655,258.496 366.207,258.496C366.426,258.496 366.624,258.522 366.801,258.574C366.988,258.626 367.16,258.699 367.316,258.793L367.129,259.855C367.098,259.98 367.014,260.043 366.879,260.043C366.806,260.043 366.691,260.022 366.535,259.98C366.389,259.928 366.176,259.902 365.895,259.902C365.395,259.902 364.978,260.048 364.645,260.34C364.311,260.621 364.035,261.037 363.816,261.59L363.816,266.746L362.395,266.746Z" style="fill:rgb(89,89,89);fill-rule:nonzero;"/>
        <rect x="244.424" y="113.858" width="231.15" height="25.071" style="fill-opacity:0;"/>
        <path d="M288.74,129.879C288.824,129.879 288.902,129.915 288.975,129.988L289.584,130.66C289.115,131.202 288.543,131.624 287.865,131.926C287.199,132.228 286.397,132.379 285.459,132.379C284.626,132.379 283.871,132.238 283.194,131.957C282.527,131.665 281.954,131.264 281.475,130.754C281.006,130.243 280.641,129.629 280.381,128.91C280.121,128.181 279.99,127.384 279.99,126.519C279.99,125.655 280.131,124.863 280.412,124.144C280.694,123.426 281.084,122.811 281.584,122.301C282.095,121.78 282.704,121.379 283.412,121.097C284.121,120.806 284.902,120.66 285.756,120.66C286.6,120.66 287.324,120.79 287.928,121.051C288.543,121.311 289.084,121.665 289.553,122.113L289.053,122.832C289.022,122.884 288.98,122.931 288.928,122.972C288.876,123.004 288.808,123.019 288.725,123.019C288.652,123.019 288.574,122.993 288.49,122.941C288.418,122.889 288.329,122.827 288.225,122.754C288.121,122.681 287.996,122.603 287.85,122.519C287.704,122.426 287.532,122.342 287.334,122.269C287.136,122.196 286.907,122.134 286.647,122.082C286.386,122.03 286.084,122.004 285.74,122.004C285.126,122.004 284.563,122.113 284.053,122.332C283.553,122.54 283.115,122.837 282.74,123.222C282.376,123.608 282.089,124.082 281.881,124.644C281.673,125.207 281.569,125.832 281.569,126.519C281.569,127.238 281.673,127.879 281.881,128.441C282.089,129.004 282.371,129.478 282.725,129.863C283.079,130.249 283.496,130.545 283.975,130.754C284.464,130.952 284.99,131.051 285.553,131.051C285.897,131.051 286.204,131.03 286.475,130.988C286.746,130.946 286.996,130.884 287.225,130.801C287.454,130.717 287.668,130.613 287.865,130.488C288.074,130.353 288.277,130.191 288.475,130.004C288.569,129.92 288.657,129.879 288.74,129.879ZM291.403,132.254L291.403,124.144L292.216,124.144C292.372,124.144 292.476,124.176 292.528,124.238C292.591,124.301 292.633,124.4 292.653,124.535L292.747,125.801C293.028,125.238 293.372,124.801 293.778,124.488C294.185,124.165 294.664,124.004 295.216,124.004C295.435,124.004 295.633,124.03 295.81,124.082C295.997,124.134 296.169,124.207 296.325,124.301L296.138,125.363C296.107,125.488 296.023,125.551 295.888,125.551C295.815,125.551 295.7,125.53 295.544,125.488C295.398,125.436 295.185,125.41 294.903,125.41C294.403,125.41 293.987,125.556 293.653,125.847C293.32,126.129 293.044,126.545 292.825,127.097L292.825,132.254L291.403,132.254ZM301.054,124.019C301.544,124.019 301.992,124.103 302.398,124.269C302.804,124.426 303.159,124.66 303.461,124.972C303.763,125.275 303.997,125.655 304.164,126.113C304.331,126.561 304.414,127.071 304.414,127.644C304.414,127.873 304.388,128.025 304.336,128.097C304.294,128.17 304.206,128.207 304.07,128.207L298.679,128.207C298.69,128.717 298.758,129.165 298.883,129.551C299.018,129.926 299.195,130.238 299.414,130.488C299.643,130.738 299.909,130.926 300.211,131.051C300.523,131.176 300.872,131.238 301.258,131.238C301.612,131.238 301.919,131.202 302.179,131.129C302.44,131.045 302.664,130.957 302.851,130.863C303.039,130.759 303.195,130.665 303.32,130.582C303.445,130.499 303.549,130.457 303.633,130.457C303.758,130.457 303.851,130.504 303.914,130.597L304.304,131.113C304.138,131.332 303.929,131.519 303.679,131.676C303.429,131.832 303.164,131.962 302.883,132.066C302.612,132.16 302.325,132.233 302.023,132.285C301.721,132.337 301.424,132.363 301.133,132.363C300.57,132.363 300.054,132.269 299.586,132.082C299.117,131.894 298.711,131.618 298.367,131.254C298.023,130.889 297.752,130.436 297.554,129.894C297.367,129.353 297.273,128.733 297.273,128.035C297.273,127.472 297.357,126.946 297.523,126.457C297.7,125.967 297.95,125.545 298.273,125.191C298.607,124.827 299.008,124.54 299.476,124.332C299.945,124.123 300.471,124.019 301.054,124.019ZM301.086,125.066C300.398,125.066 299.857,125.269 299.461,125.676C299.065,126.071 298.82,126.618 298.726,127.316L303.133,127.316C303.133,126.983 303.086,126.681 302.992,126.41C302.909,126.139 302.778,125.905 302.601,125.707C302.424,125.498 302.206,125.342 301.945,125.238C301.695,125.123 301.409,125.066 301.086,125.066ZM312.188,132.254L311.548,132.254C311.412,132.254 311.303,132.233 311.22,132.191C311.136,132.15 311.079,132.056 311.048,131.91L310.892,131.16C310.673,131.358 310.459,131.535 310.251,131.691C310.053,131.837 309.839,131.962 309.61,132.066C309.392,132.17 309.157,132.249 308.907,132.301C308.657,132.353 308.376,132.379 308.063,132.379C307.751,132.379 307.454,132.337 307.173,132.254C306.902,132.16 306.662,132.03 306.454,131.863C306.256,131.686 306.095,131.462 305.97,131.191C305.855,130.92 305.798,130.597 305.798,130.222C305.798,129.91 305.886,129.608 306.063,129.316C306.24,129.014 306.522,128.749 306.907,128.519C307.303,128.29 307.819,128.103 308.454,127.957C309.089,127.811 309.865,127.728 310.782,127.707L310.782,127.066C310.782,126.441 310.647,125.967 310.376,125.644C310.105,125.321 309.709,125.16 309.188,125.16C308.834,125.16 308.537,125.207 308.298,125.301C308.069,125.384 307.865,125.483 307.688,125.597C307.522,125.702 307.371,125.801 307.235,125.894C307.11,125.978 306.99,126.019 306.876,126.019C306.772,126.019 306.683,125.993 306.61,125.941C306.548,125.889 306.496,125.827 306.454,125.754L306.188,125.301C306.636,124.863 307.121,124.54 307.642,124.332C308.162,124.113 308.735,124.004 309.36,124.004C309.808,124.004 310.209,124.082 310.563,124.238C310.918,124.384 311.214,124.592 311.454,124.863C311.694,125.123 311.876,125.446 312.001,125.832C312.126,126.207 312.188,126.618 312.188,127.066L312.188,132.254ZM308.485,131.379C308.735,131.379 308.964,131.353 309.173,131.301C309.381,131.249 309.574,131.181 309.751,131.097C309.938,131.004 310.115,130.889 310.282,130.754C310.459,130.618 310.626,130.467 310.782,130.301L310.782,128.613C310.126,128.634 309.569,128.686 309.11,128.769C308.652,128.842 308.277,128.946 307.985,129.082C307.704,129.217 307.496,129.379 307.36,129.566C307.235,129.743 307.173,129.941 307.173,130.16C307.173,130.379 307.204,130.566 307.267,130.722C307.339,130.879 307.433,131.004 307.548,131.097C307.662,131.191 307.798,131.264 307.954,131.316C308.121,131.358 308.298,131.379 308.485,131.379ZM316.8,132.379C316.154,132.379 315.66,132.202 315.316,131.847C314.972,131.493 314.8,130.978 314.8,130.301L314.8,125.347L313.832,125.347C313.748,125.347 313.675,125.321 313.613,125.269C313.561,125.217 313.535,125.139 313.535,125.035L313.535,124.457L314.863,124.301L315.191,121.785C315.201,121.712 315.233,121.65 315.285,121.597C315.347,121.545 315.425,121.519 315.519,121.519L316.238,121.519L316.238,124.316L318.55,124.316L318.55,125.347L316.238,125.347L316.238,130.207C316.238,130.551 316.316,130.806 316.472,130.972C316.639,131.129 316.852,131.207 317.113,131.207C317.269,131.207 317.399,131.191 317.503,131.16C317.618,131.118 317.712,131.077 317.785,131.035C317.868,130.983 317.936,130.936 317.988,130.894C318.05,130.853 318.102,130.832 318.144,130.832C318.217,130.832 318.285,130.879 318.347,130.972L318.753,131.644C318.514,131.874 318.217,132.056 317.863,132.191C317.519,132.316 317.165,132.379 316.8,132.379ZM323.518,124.019C324.008,124.019 324.456,124.103 324.862,124.269C325.268,124.426 325.622,124.66 325.924,124.972C326.227,125.275 326.461,125.655 326.628,126.113C326.794,126.561 326.878,127.071 326.878,127.644C326.878,127.873 326.852,128.025 326.799,128.097C326.758,128.17 326.669,128.207 326.534,128.207L321.143,128.207C321.154,128.717 321.221,129.165 321.346,129.551C321.482,129.926 321.659,130.238 321.878,130.488C322.107,130.738 322.372,130.926 322.674,131.051C322.987,131.176 323.336,131.238 323.721,131.238C324.075,131.238 324.383,131.202 324.643,131.129C324.904,131.045 325.128,130.957 325.315,130.863C325.503,130.759 325.659,130.665 325.784,130.582C325.909,130.499 326.013,130.457 326.096,130.457C326.221,130.457 326.315,130.504 326.378,130.597L326.768,131.113C326.602,131.332 326.393,131.519 326.143,131.676C325.893,131.832 325.628,131.962 325.346,132.066C325.075,132.16 324.789,132.233 324.487,132.285C324.185,132.337 323.888,132.363 323.596,132.363C323.034,132.363 322.518,132.269 322.049,132.082C321.581,131.894 321.174,131.618 320.831,131.254C320.487,130.889 320.216,130.436 320.018,129.894C319.831,129.353 319.737,128.733 319.737,128.035C319.737,127.472 319.82,126.946 319.987,126.457C320.164,125.967 320.414,125.545 320.737,125.191C321.07,124.827 321.471,124.54 321.94,124.332C322.409,124.123 322.935,124.019 323.518,124.019ZM323.549,125.066C322.862,125.066 322.32,125.269 321.924,125.676C321.529,126.071 321.284,126.618 321.19,127.316L325.596,127.316C325.596,126.983 325.549,126.681 325.456,126.41C325.372,126.139 325.242,125.905 325.065,125.707C324.888,125.498 324.669,125.342 324.409,125.238C324.159,125.123 323.872,125.066 323.549,125.066ZM337.74,132.254L337.099,132.254C336.964,132.254 336.855,132.233 336.771,132.191C336.688,132.15 336.631,132.056 336.599,131.91L336.443,131.16C336.224,131.358 336.011,131.535 335.803,131.691C335.605,131.837 335.391,131.962 335.162,132.066C334.943,132.17 334.709,132.249 334.459,132.301C334.209,132.353 333.928,132.379 333.615,132.379C333.303,132.379 333.006,132.337 332.724,132.254C332.454,132.16 332.214,132.03 332.006,131.863C331.808,131.686 331.646,131.462 331.521,131.191C331.407,130.92 331.349,130.597 331.349,130.222C331.349,129.91 331.438,129.608 331.615,129.316C331.792,129.014 332.073,128.749 332.459,128.519C332.855,128.29 333.37,128.103 334.006,127.957C334.641,127.811 335.417,127.728 336.334,127.707L336.334,127.066C336.334,126.441 336.198,125.967 335.928,125.644C335.657,125.321 335.261,125.16 334.74,125.16C334.386,125.16 334.089,125.207 333.849,125.301C333.62,125.384 333.417,125.483 333.24,125.597C333.073,125.702 332.922,125.801 332.787,125.894C332.662,125.978 332.542,126.019 332.428,126.019C332.323,126.019 332.235,125.993 332.162,125.941C332.099,125.889 332.047,125.827 332.006,125.754L331.74,125.301C332.188,124.863 332.672,124.54 333.193,124.332C333.714,124.113 334.287,124.004 334.912,124.004C335.36,124.004 335.761,124.082 336.115,124.238C336.469,124.384 336.766,124.592 337.006,124.863C337.245,125.123 337.428,125.446 337.553,125.832C337.678,126.207 337.74,126.618 337.74,127.066L337.74,132.254ZM334.037,131.379C334.287,131.379 334.516,131.353 334.724,131.301C334.933,131.249 335.125,131.181 335.303,131.097C335.49,131.004 335.667,130.889 335.834,130.754C336.011,130.618 336.178,130.467 336.334,130.301L336.334,128.613C335.678,128.634 335.12,128.686 334.662,128.769C334.204,128.842 333.829,128.946 333.537,129.082C333.256,129.217 333.047,129.379 332.912,129.566C332.787,129.743 332.724,129.941 332.724,130.16C332.724,130.379 332.756,130.566 332.818,130.722C332.891,130.879 332.985,131.004 333.099,131.097C333.214,131.191 333.349,131.264 333.506,131.316C333.672,131.358 333.849,131.379 334.037,131.379ZM339.899,132.254L339.899,124.144L340.743,124.144C340.941,124.144 341.071,124.243 341.133,124.441L341.243,125.332C341.597,124.936 341.987,124.618 342.414,124.379C342.852,124.139 343.357,124.019 343.93,124.019C344.368,124.019 344.753,124.092 345.086,124.238C345.43,124.384 345.717,124.592 345.946,124.863C346.175,125.134 346.347,125.462 346.461,125.847C346.576,126.222 346.633,126.639 346.633,127.097L346.633,132.254L345.211,132.254L345.211,127.097C345.211,126.483 345.071,126.009 344.789,125.676C344.508,125.332 344.081,125.16 343.508,125.16C343.092,125.16 342.701,125.264 342.336,125.472C341.972,125.67 341.633,125.941 341.321,126.285L341.321,132.254L339.899,132.254ZM357.836,132.254L357.195,132.254C357.06,132.254 356.95,132.233 356.867,132.191C356.784,132.15 356.726,132.056 356.695,131.91L356.539,131.16C356.32,131.358 356.107,131.535 355.898,131.691C355.7,131.837 355.487,131.962 355.258,132.066C355.039,132.17 354.805,132.249 354.555,132.301C354.305,132.353 354.023,132.379 353.711,132.379C353.398,132.379 353.101,132.337 352.82,132.254C352.549,132.16 352.31,132.03 352.101,131.863C351.904,131.686 351.742,131.462 351.617,131.191C351.502,130.92 351.445,130.597 351.445,130.222C351.445,129.91 351.534,129.608 351.711,129.316C351.888,129.014 352.169,128.749 352.555,128.519C352.95,128.29 353.466,128.103 354.101,127.957C354.737,127.811 355.513,127.728 356.43,127.707L356.43,127.066C356.43,126.441 356.294,125.967 356.023,125.644C355.752,125.321 355.357,125.16 354.836,125.16C354.482,125.16 354.185,125.207 353.945,125.301C353.716,125.384 353.513,125.483 353.336,125.597C353.169,125.702 353.018,125.801 352.883,125.894C352.758,125.978 352.638,126.019 352.523,126.019C352.419,126.019 352.331,125.993 352.258,125.941C352.195,125.889 352.143,125.827 352.101,125.754L351.836,125.301C352.284,124.863 352.768,124.54 353.289,124.332C353.81,124.113 354.383,124.004 355.008,124.004C355.456,124.004 355.857,124.082 356.211,124.238C356.565,124.384 356.862,124.592 357.101,124.863C357.341,125.123 357.523,125.446 357.648,125.832C357.773,126.207 357.836,126.618 357.836,127.066L357.836,132.254ZM354.133,131.379C354.383,131.379 354.612,131.353 354.82,131.301C355.029,131.249 355.221,131.181 355.398,131.097C355.586,131.004 355.763,130.889 355.93,130.754C356.107,130.618 356.273,130.467 356.43,130.301L356.43,128.613C355.773,128.634 355.216,128.686 354.758,128.769C354.299,128.842 353.924,128.946 353.633,129.082C353.351,129.217 353.143,129.379 353.008,129.566C352.883,129.743 352.82,129.941 352.82,130.16C352.82,130.379 352.851,130.566 352.914,130.722C352.987,130.879 353.081,131.004 353.195,131.097C353.31,131.191 353.445,131.264 353.601,131.316C353.768,131.358 353.945,131.379 354.133,131.379ZM365.526,125.597C365.474,125.65 365.427,125.691 365.385,125.722C365.344,125.754 365.286,125.769 365.213,125.769C365.13,125.769 365.041,125.738 364.948,125.676C364.854,125.603 364.734,125.53 364.588,125.457C364.442,125.373 364.265,125.301 364.057,125.238C363.859,125.165 363.609,125.129 363.307,125.129C362.911,125.129 362.562,125.202 362.26,125.347C361.958,125.483 361.703,125.686 361.495,125.957C361.297,126.228 361.146,126.551 361.041,126.926C360.937,127.301 360.885,127.722 360.885,128.191C360.885,128.691 360.937,129.134 361.041,129.519C361.156,129.894 361.312,130.212 361.51,130.472C361.719,130.722 361.969,130.92 362.26,131.066C362.552,131.202 362.88,131.269 363.245,131.269C363.588,131.269 363.87,131.228 364.088,131.144C364.317,131.061 364.505,130.967 364.651,130.863C364.807,130.759 364.932,130.665 365.026,130.582C365.12,130.499 365.213,130.457 365.307,130.457C365.432,130.457 365.526,130.504 365.588,130.597L365.979,131.113C365.625,131.551 365.182,131.868 364.651,132.066C364.13,132.264 363.578,132.363 362.995,132.363C362.484,132.363 362.01,132.269 361.573,132.082C361.146,131.894 360.771,131.624 360.448,131.269C360.125,130.915 359.87,130.483 359.682,129.972C359.505,129.452 359.416,128.858 359.416,128.191C359.416,127.597 359.5,127.045 359.666,126.535C359.833,126.014 360.078,125.571 360.401,125.207C360.724,124.832 361.12,124.54 361.588,124.332C362.067,124.123 362.614,124.019 363.229,124.019C363.791,124.019 364.291,124.113 364.729,124.301C365.166,124.478 365.557,124.738 365.901,125.082L365.526,125.597ZM372.998,125.597C372.946,125.65 372.899,125.691 372.857,125.722C372.815,125.754 372.758,125.769 372.685,125.769C372.602,125.769 372.513,125.738 372.42,125.676C372.326,125.603 372.206,125.53 372.06,125.457C371.914,125.373 371.737,125.301 371.529,125.238C371.331,125.165 371.081,125.129 370.779,125.129C370.383,125.129 370.034,125.202 369.732,125.347C369.43,125.483 369.175,125.686 368.966,125.957C368.769,126.228 368.618,126.551 368.513,126.926C368.409,127.301 368.357,127.722 368.357,128.191C368.357,128.691 368.409,129.134 368.513,129.519C368.628,129.894 368.784,130.212 368.982,130.472C369.19,130.722 369.44,130.92 369.732,131.066C370.024,131.202 370.352,131.269 370.716,131.269C371.06,131.269 371.341,131.228 371.56,131.144C371.789,131.061 371.977,130.967 372.123,130.863C372.279,130.759 372.404,130.665 372.498,130.582C372.591,130.499 372.685,130.457 372.779,130.457C372.904,130.457 372.998,130.504 373.06,130.597L373.451,131.113C373.097,131.551 372.654,131.868 372.123,132.066C371.602,132.264 371.05,132.363 370.466,132.363C369.956,132.363 369.482,132.269 369.045,132.082C368.618,131.894 368.243,131.624 367.92,131.269C367.597,130.915 367.341,130.483 367.154,129.972C366.977,129.452 366.888,128.858 366.888,128.191C366.888,127.597 366.972,127.045 367.138,126.535C367.305,126.014 367.55,125.571 367.873,125.207C368.196,124.832 368.591,124.54 369.06,124.332C369.539,124.123 370.086,124.019 370.701,124.019C371.263,124.019 371.763,124.113 372.201,124.301C372.638,124.478 373.029,124.738 373.373,125.082L372.998,125.597ZM378.22,124.019C378.803,124.019 379.334,124.118 379.813,124.316C380.293,124.514 380.699,124.795 381.032,125.16C381.365,125.525 381.621,125.962 381.798,126.472C381.975,126.983 382.063,127.556 382.063,128.191C382.063,128.837 381.975,129.415 381.798,129.926C381.621,130.436 381.365,130.874 381.032,131.238C380.699,131.603 380.293,131.884 379.813,132.082C379.334,132.269 378.803,132.363 378.22,132.363C377.626,132.363 377.089,132.269 376.61,132.082C376.131,131.884 375.725,131.603 375.392,131.238C375.058,130.874 374.798,130.436 374.61,129.926C374.433,129.415 374.345,128.837 374.345,128.191C374.345,127.556 374.433,126.983 374.61,126.472C374.798,125.962 375.058,125.525 375.392,125.16C375.725,124.795 376.131,124.514 376.61,124.316C377.089,124.118 377.626,124.019 378.22,124.019ZM378.22,131.254C379.011,131.254 379.605,130.988 380.001,130.457C380.397,129.915 380.595,129.165 380.595,128.207C380.595,127.238 380.397,126.488 380.001,125.957C379.605,125.415 379.011,125.144 378.22,125.144C377.813,125.144 377.459,125.212 377.157,125.347C376.855,125.483 376.605,125.686 376.407,125.957C376.209,126.217 376.058,126.54 375.954,126.926C375.86,127.301 375.813,127.728 375.813,128.207C375.813,128.686 375.86,129.118 375.954,129.504C376.058,129.879 376.209,130.196 376.407,130.457C376.605,130.707 376.855,130.905 377.157,131.051C377.459,131.186 377.813,131.254 378.22,131.254ZM385.069,124.144L385.069,129.316C385.069,129.931 385.209,130.405 385.491,130.738C385.772,131.071 386.199,131.238 386.772,131.238C387.188,131.238 387.579,131.144 387.944,130.957C388.308,130.759 388.647,130.483 388.959,130.129L388.959,124.144L390.381,124.144L390.381,132.254L389.537,132.254C389.329,132.254 389.199,132.155 389.147,131.957L389.037,131.082C388.683,131.478 388.287,131.795 387.85,132.035C387.412,132.264 386.912,132.379 386.35,132.379C385.912,132.379 385.522,132.306 385.178,132.16C384.845,132.014 384.558,131.811 384.319,131.551C384.089,131.28 383.918,130.957 383.803,130.582C383.688,130.196 383.631,129.775 383.631,129.316L383.631,124.144L385.069,124.144ZM392.73,132.254L392.73,124.144L393.574,124.144C393.772,124.144 393.902,124.243 393.965,124.441L394.074,125.332C394.428,124.936 394.819,124.618 395.246,124.379C395.683,124.139 396.188,124.019 396.761,124.019C397.199,124.019 397.584,124.092 397.918,124.238C398.261,124.384 398.548,124.592 398.777,124.863C399.006,125.134 399.178,125.462 399.293,125.847C399.407,126.222 399.465,126.639 399.465,127.097L399.465,132.254L398.043,132.254L398.043,127.097C398.043,126.483 397.902,126.009 397.621,125.676C397.34,125.332 396.912,125.16 396.34,125.16C395.923,125.16 395.532,125.264 395.168,125.472C394.803,125.67 394.465,125.941 394.152,126.285L394.152,132.254L392.73,132.254ZM404.079,132.379C403.433,132.379 402.939,132.202 402.595,131.847C402.251,131.493 402.079,130.978 402.079,130.301L402.079,125.347L401.11,125.347C401.027,125.347 400.954,125.321 400.892,125.269C400.84,125.217 400.814,125.139 400.814,125.035L400.814,124.457L402.142,124.301L402.47,121.785C402.48,121.712 402.511,121.65 402.564,121.597C402.626,121.545 402.704,121.519 402.798,121.519L403.517,121.519L403.517,124.316L405.829,124.316L405.829,125.347L403.517,125.347L403.517,130.207C403.517,130.551 403.595,130.806 403.751,130.972C403.918,131.129 404.131,131.207 404.392,131.207C404.548,131.207 404.678,131.191 404.782,131.16C404.897,131.118 404.991,131.077 405.064,131.035C405.147,130.983 405.215,130.936 405.267,130.894C405.329,130.853 405.381,130.832 405.423,130.832C405.496,130.832 405.564,130.879 405.626,130.972L406.032,131.644C405.793,131.874 405.496,132.056 405.142,132.191C404.798,132.316 404.444,132.379 404.079,132.379ZM409.619,124.144L410.744,124.144C410.859,124.144 410.953,124.176 411.026,124.238C411.099,124.301 411.151,124.368 411.182,124.441L412.729,129.66C412.77,129.858 412.812,130.045 412.854,130.222C412.895,130.4 412.927,130.577 412.948,130.754C412.989,130.577 413.036,130.4 413.088,130.222C413.14,130.045 413.198,129.858 413.26,129.66L414.979,124.41C415,124.337 415.041,124.275 415.104,124.222C415.177,124.16 415.265,124.129 415.369,124.129L415.979,124.129C416.083,124.129 416.172,124.16 416.244,124.222C416.317,124.275 416.364,124.337 416.385,124.41L418.057,129.66C418.119,129.847 418.172,130.035 418.213,130.222C418.265,130.4 418.312,130.577 418.354,130.754C418.375,130.577 418.406,130.394 418.448,130.207C418.5,130.009 418.547,129.827 418.588,129.66L420.166,124.441C420.198,124.358 420.25,124.29 420.323,124.238C420.395,124.176 420.484,124.144 420.588,124.144L421.666,124.144L419.041,132.254L417.916,132.254C417.77,132.254 417.672,132.165 417.619,131.988L415.823,126.488C415.781,126.363 415.744,126.238 415.713,126.113C415.692,125.988 415.672,125.863 415.651,125.738C415.619,125.863 415.588,125.993 415.557,126.129C415.536,126.254 415.505,126.373 415.463,126.488L413.651,131.988C413.588,132.165 413.479,132.254 413.323,132.254L412.244,132.254L409.619,124.144ZM424.516,124.144L424.516,132.254L423.094,132.254L423.094,124.144L424.516,124.144ZM424.844,121.613C424.844,121.748 424.813,121.879 424.75,122.004C424.698,122.118 424.625,122.222 424.532,122.316C424.438,122.41 424.328,122.483 424.203,122.535C424.078,122.587 423.948,122.613 423.813,122.613C423.677,122.613 423.547,122.587 423.422,122.535C423.308,122.483 423.203,122.41 423.11,122.316C423.016,122.222 422.943,122.118 422.891,122.004C422.839,121.879 422.813,121.748 422.813,121.613C422.813,121.467 422.839,121.332 422.891,121.207C422.943,121.082 423.016,120.972 423.11,120.879C423.203,120.785 423.308,120.712 423.422,120.66C423.547,120.608 423.677,120.582 423.813,120.582C423.948,120.582 424.078,120.608 424.203,120.66C424.328,120.712 424.438,120.785 424.532,120.879C424.625,120.972 424.698,121.082 424.75,121.207C424.813,121.332 424.844,121.467 424.844,121.613ZM429.487,132.379C428.841,132.379 428.346,132.202 428.003,131.847C427.659,131.493 427.487,130.978 427.487,130.301L427.487,125.347L426.518,125.347C426.435,125.347 426.362,125.321 426.299,125.269C426.247,125.217 426.221,125.139 426.221,125.035L426.221,124.457L427.549,124.301L427.878,121.785C427.888,121.712 427.919,121.65 427.971,121.597C428.034,121.545 428.112,121.519 428.206,121.519L428.924,121.519L428.924,124.316L431.237,124.316L431.237,125.347L428.924,125.347L428.924,130.207C428.924,130.551 429.003,130.806 429.159,130.972C429.325,131.129 429.539,131.207 429.799,131.207C429.956,131.207 430.086,131.191 430.19,131.16C430.305,131.118 430.398,131.077 430.471,131.035C430.555,130.983 430.622,130.936 430.674,130.894C430.737,130.853 430.789,130.832 430.831,130.832C430.904,130.832 430.971,130.879 431.034,130.972L431.44,131.644C431.2,131.874 430.904,132.056 430.549,132.191C430.206,132.316 429.851,132.379 429.487,132.379ZM433.002,132.254L433.002,120.472L434.424,120.472L434.424,125.238C434.767,124.873 435.148,124.582 435.564,124.363C435.991,124.134 436.481,124.019 437.033,124.019C437.47,124.019 437.856,124.092 438.189,124.238C438.533,124.384 438.819,124.592 439.049,124.863C439.278,125.134 439.45,125.462 439.564,125.847C439.679,126.222 439.736,126.639 439.736,127.097L439.736,132.254L438.314,132.254L438.314,127.097C438.314,126.483 438.174,126.009 437.892,125.676C437.611,125.332 437.184,125.16 436.611,125.16C436.194,125.16 435.804,125.264 435.439,125.472C435.075,125.67 434.736,125.941 434.424,126.285L434.424,132.254L433.002,132.254Z" style="fill:rgb(89,89,89);fill-rule:nonzero;"/>
        <rect x="244.424" y="40.724" width="231.15" height="48.252" style="fill:rgb(83,198,161);"/>
        <rect x="244.424" y="40.724" width="231.15" height="48.252" style="fill:none;stroke:rgb(26,26,26);stroke-width:1px;"/>
        <path d="M254.534,53.575C254.534,50.461 257.058,47.937 260.172,47.937L459.825,47.937C461.321,47.937 462.755,48.531 463.812,49.588C464.869,50.646 465.463,52.08 465.463,53.575L465.463,76.126C465.463,79.24 462.939,81.764 459.825,81.764L260.172,81.764C257.058,81.764 254.534,79.24 254.534,76.126L254.534,53.575Z" style="fill:rgb(217,234,211);"/>
        <path d="M254.534,53.575C254.534,50.461 257.058,47.937 260.172,47.937L459.825,47.937C461.321,47.937 462.755,48.531 463.812,49.588C464.869,50.646 465.463,52.08 465.463,53.575L465.463,76.126C465.463,79.24 462.939,81.764 459.825,81.764L260.172,81.764C257.058,81.764 254.534,79.24 254.534,76.126L254.534,53.575Z" style="fill:none;stroke:rgb(26,26,26);stroke-width:1px;"/>
        <path d="M266.248,70.71L266.248,59.257L267.654,59.257L267.654,63.367C268.31,62.606 269.139,62.226 270.139,62.226C270.753,62.226 271.284,62.346 271.732,62.585C272.191,62.825 272.514,63.158 272.701,63.585C272.899,64.012 272.998,64.632 272.998,65.445L272.998,70.71L271.592,70.71L271.592,65.445C271.592,64.747 271.441,64.236 271.139,63.914C270.836,63.591 270.404,63.429 269.842,63.429C269.425,63.429 269.034,63.539 268.67,63.757C268.305,63.976 268.045,64.273 267.889,64.648C267.732,65.012 267.654,65.518 267.654,66.164L267.654,70.71L266.248,70.71ZM278.209,69.445L278.412,70.695C278.016,70.778 277.662,70.82 277.349,70.82C276.839,70.82 276.443,70.742 276.162,70.585C275.881,70.419 275.683,70.205 275.568,69.945C275.454,69.674 275.396,69.117 275.396,68.273L275.396,63.507L274.365,63.507L274.365,62.414L275.396,62.414L275.396,60.351L276.803,59.507L276.803,62.414L278.209,62.414L278.209,63.507L276.803,63.507L276.803,68.351C276.803,68.757 276.823,69.018 276.865,69.132C276.917,69.247 277.001,69.341 277.115,69.414C277.23,69.476 277.391,69.507 277.599,69.507C277.756,69.507 277.959,69.486 278.209,69.445ZM282.654,69.445L282.857,70.695C282.461,70.778 282.107,70.82 281.795,70.82C281.284,70.82 280.889,70.742 280.607,70.585C280.326,70.419 280.128,70.205 280.014,69.945C279.899,69.674 279.842,69.117 279.842,68.273L279.842,63.507L278.81,63.507L278.81,62.414L279.842,62.414L279.842,60.351L281.248,59.507L281.248,62.414L282.654,62.414L282.654,63.507L281.248,63.507L281.248,68.351C281.248,68.757 281.269,69.018 281.31,69.132C281.362,69.247 281.446,69.341 281.56,69.414C281.675,69.476 281.836,69.507 282.045,69.507C282.201,69.507 282.404,69.486 282.654,69.445ZM284.037,73.898L284.037,62.414L285.318,62.414L285.318,63.492C285.62,63.065 285.959,62.747 286.334,62.539C286.719,62.33 287.183,62.226 287.724,62.226C288.433,62.226 289.058,62.408 289.599,62.773C290.141,63.137 290.547,63.653 290.818,64.32C291.099,64.976 291.24,65.7 291.24,66.492C291.24,67.346 291.084,68.111 290.771,68.789C290.469,69.466 290.027,69.986 289.443,70.351C288.87,70.716 288.261,70.898 287.615,70.898C287.146,70.898 286.724,70.799 286.349,70.601C285.985,70.403 285.683,70.153 285.443,69.851L285.443,73.898L284.037,73.898ZM285.303,66.601C285.303,67.674 285.516,68.466 285.943,68.976C286.381,69.486 286.907,69.742 287.521,69.742C288.146,69.742 288.683,69.476 289.131,68.945C289.579,68.414 289.803,67.596 289.803,66.492C289.803,65.429 289.584,64.637 289.146,64.117C288.709,63.585 288.188,63.32 287.584,63.32C286.99,63.32 286.459,63.601 285.99,64.164C285.532,64.726 285.303,65.539 285.303,66.601ZM292.373,68.226L293.764,68.007C293.836,68.57 294.05,69.002 294.404,69.304C294.769,69.596 295.269,69.742 295.904,69.742C296.55,69.742 297.029,69.611 297.342,69.351C297.654,69.08 297.81,68.768 297.81,68.414C297.81,68.101 297.675,67.851 297.404,67.664C297.206,67.539 296.727,67.382 295.967,67.195C294.935,66.934 294.217,66.71 293.81,66.523C293.415,66.325 293.112,66.059 292.904,65.726C292.706,65.393 292.607,65.023 292.607,64.617C292.607,64.242 292.691,63.898 292.857,63.585C293.024,63.273 293.253,63.012 293.545,62.804C293.764,62.637 294.06,62.502 294.435,62.398C294.821,62.283 295.227,62.226 295.654,62.226C296.31,62.226 296.883,62.32 297.373,62.507C297.862,62.695 298.222,62.95 298.451,63.273C298.691,63.585 298.857,64.012 298.951,64.554L297.576,64.742C297.514,64.315 297.331,63.981 297.029,63.742C296.727,63.502 296.305,63.382 295.764,63.382C295.118,63.382 294.654,63.492 294.373,63.71C294.102,63.919 293.967,64.164 293.967,64.445C293.967,64.632 294.024,64.799 294.139,64.945C294.253,65.091 294.43,65.216 294.67,65.32C294.816,65.372 295.232,65.492 295.92,65.679C296.909,65.94 297.602,66.158 297.998,66.335C298.394,66.502 298.701,66.747 298.92,67.07C299.149,67.393 299.264,67.794 299.264,68.273C299.264,68.742 299.123,69.184 298.842,69.601C298.571,70.007 298.175,70.325 297.654,70.554C297.144,70.783 296.566,70.898 295.92,70.898C294.836,70.898 294.014,70.674 293.451,70.226C292.889,69.778 292.529,69.111 292.373,68.226ZM301.326,64.007L301.326,62.414L302.92,62.414L302.92,64.007L301.326,64.007ZM301.326,70.71L301.326,69.101L302.92,69.101L302.92,70.71L301.326,70.71ZM304.318,70.914L307.646,59.054L308.771,59.054L305.459,70.914L304.318,70.914ZM308.764,70.914L312.092,59.054L313.217,59.054L309.904,70.914L308.764,70.914ZM319.943,68.039L321.396,68.21C321.167,69.065 320.74,69.726 320.115,70.195C319.501,70.664 318.714,70.898 317.756,70.898C316.537,70.898 315.573,70.523 314.865,69.773C314.157,69.023 313.803,67.976 313.803,66.632C313.803,65.236 314.162,64.153 314.881,63.382C315.599,62.611 316.532,62.226 317.678,62.226C318.782,62.226 319.683,62.606 320.381,63.367C321.089,64.117 321.443,65.174 321.443,66.539L321.443,66.914L315.256,66.914C315.308,67.83 315.563,68.533 316.021,69.023C316.49,69.502 317.068,69.742 317.756,69.742C318.277,69.742 318.719,69.606 319.084,69.335C319.448,69.065 319.735,68.632 319.943,68.039ZM315.334,65.757L319.959,65.757C319.896,65.059 319.719,64.539 319.428,64.195C318.98,63.653 318.402,63.382 317.693,63.382C317.047,63.382 316.501,63.601 316.053,64.039C315.615,64.466 315.376,65.039 315.334,65.757ZM322.232,70.71L325.264,66.398L322.451,62.414L324.217,62.414L325.482,64.351C325.722,64.726 325.915,65.039 326.06,65.289C326.29,64.945 326.503,64.637 326.701,64.367L328.092,62.414L329.779,62.414L326.904,66.32L329.998,70.71L328.264,70.71L326.56,68.132L326.107,67.429L323.935,70.71L322.232,70.71ZM336.576,69.679C336.055,70.127 335.555,70.445 335.076,70.632C334.597,70.809 334.081,70.898 333.529,70.898C332.612,70.898 331.909,70.674 331.42,70.226C330.93,69.778 330.685,69.21 330.685,68.523C330.685,68.117 330.779,67.747 330.967,67.414C331.154,67.07 331.394,66.799 331.685,66.601C331.987,66.393 332.326,66.236 332.701,66.132C332.982,66.059 333.399,65.992 333.951,65.929C335.086,65.794 335.925,65.632 336.467,65.445L336.467,65.07C336.467,64.497 336.336,64.096 336.076,63.867C335.711,63.544 335.175,63.382 334.467,63.382C333.81,63.382 333.321,63.502 332.998,63.742C332.685,63.971 332.456,64.377 332.31,64.96L330.935,64.773C331.06,64.19 331.264,63.716 331.545,63.351C331.836,62.986 332.253,62.71 332.795,62.523C333.336,62.325 333.961,62.226 334.67,62.226C335.378,62.226 335.951,62.309 336.389,62.476C336.836,62.643 337.165,62.851 337.373,63.101C337.581,63.351 337.727,63.669 337.81,64.054C337.862,64.294 337.889,64.726 337.889,65.351L337.889,67.226C337.889,68.539 337.915,69.367 337.967,69.71C338.029,70.054 338.149,70.387 338.326,70.71L336.857,70.71C336.711,70.419 336.618,70.075 336.576,69.679ZM336.467,66.539C335.956,66.747 335.191,66.924 334.17,67.07C333.586,67.153 333.175,67.247 332.935,67.351C332.696,67.455 332.508,67.611 332.373,67.82C332.248,68.018 332.185,68.236 332.185,68.476C332.185,68.851 332.326,69.164 332.607,69.414C332.899,69.664 333.316,69.789 333.857,69.789C334.399,69.789 334.878,69.674 335.295,69.445C335.722,69.205 336.034,68.877 336.232,68.46C336.389,68.148 336.467,67.679 336.467,67.054L336.467,66.539ZM340.068,70.71L340.068,62.414L341.318,62.414L341.318,63.57C341.579,63.164 341.922,62.841 342.349,62.601C342.787,62.351 343.282,62.226 343.834,62.226C344.448,62.226 344.954,62.356 345.349,62.617C345.745,62.867 346.021,63.221 346.178,63.679C346.834,62.71 347.688,62.226 348.74,62.226C349.563,62.226 350.193,62.455 350.631,62.914C351.079,63.361 351.303,64.059 351.303,65.007L351.303,70.71L349.912,70.71L349.912,65.476C349.912,64.914 349.865,64.512 349.771,64.273C349.678,64.023 349.511,63.825 349.271,63.679C349.032,63.523 348.751,63.445 348.428,63.445C347.844,63.445 347.36,63.637 346.974,64.023C346.589,64.408 346.396,65.028 346.396,65.882L346.396,70.71L344.99,70.71L344.99,65.32C344.99,64.695 344.876,64.226 344.646,63.914C344.417,63.601 344.042,63.445 343.521,63.445C343.126,63.445 342.761,63.549 342.428,63.757C342.094,63.966 341.849,64.273 341.693,64.679C341.547,65.075 341.474,65.648 341.474,66.398L341.474,70.71L340.068,70.71ZM353.396,73.898L353.396,62.414L354.678,62.414L354.678,63.492C354.98,63.065 355.318,62.747 355.693,62.539C356.079,62.33 356.542,62.226 357.084,62.226C357.792,62.226 358.417,62.408 358.959,62.773C359.501,63.137 359.907,63.653 360.178,64.32C360.459,64.976 360.599,65.7 360.599,66.492C360.599,67.346 360.443,68.111 360.131,68.789C359.829,69.466 359.386,69.986 358.803,70.351C358.23,70.716 357.62,70.898 356.974,70.898C356.506,70.898 356.084,70.799 355.709,70.601C355.344,70.403 355.042,70.153 354.803,69.851L354.803,73.898L353.396,73.898ZM354.662,66.601C354.662,67.674 354.876,68.466 355.303,68.976C355.74,69.486 356.266,69.742 356.881,69.742C357.506,69.742 358.042,69.476 358.49,68.945C358.938,68.414 359.162,67.596 359.162,66.492C359.162,65.429 358.943,64.637 358.506,64.117C358.068,63.585 357.547,63.32 356.943,63.32C356.349,63.32 355.818,63.601 355.349,64.164C354.891,64.726 354.662,65.539 354.662,66.601ZM362.264,70.71L362.264,59.257L363.67,59.257L363.67,70.71L362.264,70.71ZM371.521,68.039L372.974,68.21C372.745,69.065 372.318,69.726 371.693,70.195C371.079,70.664 370.292,70.898 369.334,70.898C368.115,70.898 367.152,70.523 366.443,69.773C365.735,69.023 365.381,67.976 365.381,66.632C365.381,65.236 365.74,64.153 366.459,63.382C367.178,62.611 368.11,62.226 369.256,62.226C370.36,62.226 371.261,62.606 371.959,63.367C372.667,64.117 373.021,65.174 373.021,66.539L373.021,66.914L366.834,66.914C366.886,67.83 367.141,68.533 367.599,69.023C368.068,69.502 368.646,69.742 369.334,69.742C369.855,69.742 370.297,69.606 370.662,69.335C371.027,69.065 371.313,68.632 371.521,68.039ZM366.912,65.757L371.537,65.757C371.474,65.059 371.297,64.539 371.006,64.195C370.558,63.653 369.98,63.382 369.271,63.382C368.626,63.382 368.079,63.601 367.631,64.039C367.193,64.466 366.954,65.039 366.912,65.757ZM375.139,70.71L375.139,69.101L376.748,69.101L376.748,70.71L375.139,70.71ZM384.599,67.664L385.99,67.851C385.834,68.799 385.443,69.544 384.818,70.085C384.204,70.627 383.443,70.898 382.537,70.898C381.402,70.898 380.485,70.528 379.787,69.789C379.099,69.039 378.756,67.971 378.756,66.585C378.756,65.69 378.902,64.908 379.193,64.242C379.495,63.565 379.948,63.059 380.553,62.726C381.167,62.393 381.829,62.226 382.537,62.226C383.443,62.226 384.183,62.455 384.756,62.914C385.329,63.361 385.693,64.007 385.849,64.851L384.49,65.054C384.355,64.502 384.12,64.085 383.787,63.804C383.464,63.523 383.068,63.382 382.599,63.382C381.891,63.382 381.313,63.637 380.865,64.148C380.428,64.648 380.209,65.45 380.209,66.554C380.209,67.669 380.422,68.481 380.849,68.992C381.277,69.492 381.834,69.742 382.521,69.742C383.073,69.742 383.532,69.575 383.896,69.242C384.271,68.898 384.506,68.372 384.599,67.664ZM386.662,66.554C386.662,65.023 387.089,63.887 387.943,63.148C388.662,62.533 389.532,62.226 390.553,62.226C391.698,62.226 392.631,62.601 393.349,63.351C394.079,64.091 394.443,65.122 394.443,66.445C394.443,67.507 394.282,68.346 393.959,68.96C393.636,69.575 393.167,70.054 392.553,70.398C391.948,70.731 391.282,70.898 390.553,70.898C389.396,70.898 388.459,70.528 387.74,69.789C387.021,69.039 386.662,67.96 386.662,66.554ZM388.115,66.554C388.115,67.617 388.344,68.414 388.803,68.945C389.271,69.476 389.855,69.742 390.553,69.742C391.251,69.742 391.829,69.476 392.287,68.945C392.756,68.414 392.99,67.601 392.99,66.507C392.99,65.486 392.756,64.71 392.287,64.179C391.829,63.648 391.251,63.382 390.553,63.382C389.855,63.382 389.271,63.648 388.803,64.179C388.344,64.7 388.115,65.492 388.115,66.554ZM396.092,70.71L396.092,62.414L397.342,62.414L397.342,63.57C397.602,63.164 397.946,62.841 398.373,62.601C398.81,62.351 399.305,62.226 399.857,62.226C400.472,62.226 400.977,62.356 401.373,62.617C401.769,62.867 402.045,63.221 402.201,63.679C402.857,62.71 403.711,62.226 404.764,62.226C405.586,62.226 406.217,62.455 406.654,62.914C407.102,63.361 407.326,64.059 407.326,65.007L407.326,70.71L405.935,70.71L405.935,65.476C405.935,64.914 405.889,64.512 405.795,64.273C405.701,64.023 405.534,63.825 405.295,63.679C405.055,63.523 404.774,63.445 404.451,63.445C403.868,63.445 403.383,63.637 402.998,64.023C402.612,64.408 402.42,65.028 402.42,65.882L402.42,70.71L401.014,70.71L401.014,65.32C401.014,64.695 400.899,64.226 400.67,63.914C400.441,63.601 400.066,63.445 399.545,63.445C399.149,63.445 398.784,63.549 398.451,63.757C398.118,63.966 397.873,64.273 397.717,64.679C397.571,65.075 397.498,65.648 397.498,66.398L397.498,70.71L396.092,70.71Z" style="fill:rgb(183,183,183);fill-rule:nonzero;"/>
        <path d="M273.543,452.683C273.543,450.375 275.414,448.504 277.722,448.504L375.317,448.504C376.426,448.504 377.489,448.944 378.272,449.728C379.056,450.511 379.496,451.574 379.496,452.683L379.496,469.396C379.496,471.704 377.625,473.575 375.317,473.575L277.722,473.575C275.414,473.575 273.543,471.704 273.543,469.396L273.543,452.683Z" style="fill-opacity:0;"/>
        <path d="M284.689,464.779L284.689,459.982L283.861,459.982L283.861,459.248L284.689,459.248L284.689,458.67C284.689,458.295 284.725,458.019 284.798,457.842C284.882,457.592 285.038,457.394 285.267,457.248C285.496,457.092 285.814,457.014 286.22,457.014C286.481,457.014 286.772,457.045 287.095,457.107L286.955,457.936C286.757,457.894 286.574,457.873 286.408,457.873C286.127,457.873 285.923,457.936 285.798,458.061C285.684,458.186 285.627,458.415 285.627,458.748L285.627,459.248L286.705,459.248L286.705,459.982L285.627,459.982L285.627,464.779L284.689,464.779ZM287.087,462.014C287.087,460.993 287.368,460.238 287.931,459.748C288.41,459.331 288.988,459.123 289.665,459.123C290.426,459.123 291.046,459.373 291.525,459.873C292.014,460.373 292.259,461.061 292.259,461.936C292.259,462.644 292.15,463.206 291.931,463.623C291.723,464.029 291.415,464.347 291.009,464.576C290.603,464.795 290.155,464.904 289.665,464.904C288.894,464.904 288.269,464.66 287.79,464.17C287.322,463.67 287.087,462.951 287.087,462.014ZM288.04,462.014C288.04,462.722 288.197,463.253 288.509,463.607C288.822,463.962 289.207,464.139 289.665,464.139C290.134,464.139 290.519,463.962 290.822,463.607C291.134,463.253 291.29,462.712 291.29,461.982C291.29,461.305 291.134,460.79 290.822,460.436C290.519,460.081 290.134,459.904 289.665,459.904C289.207,459.904 288.822,460.081 288.509,460.436C288.197,460.779 288.04,461.305 288.04,462.014ZM293.342,464.779L293.342,459.248L294.186,459.248L294.186,460.092C294.404,459.696 294.602,459.436 294.779,459.311C294.967,459.186 295.17,459.123 295.389,459.123C295.701,459.123 296.019,459.227 296.342,459.436L296.029,460.295C295.8,460.16 295.571,460.092 295.342,460.092C295.133,460.092 294.946,460.154 294.779,460.279C294.623,460.404 294.508,460.576 294.436,460.795C294.331,461.128 294.279,461.493 294.279,461.889L294.279,464.779L293.342,464.779ZM296.734,465.232L297.64,465.373C297.682,465.654 297.791,465.857 297.969,465.982C298.198,466.16 298.51,466.248 298.906,466.248C299.344,466.248 299.677,466.16 299.906,465.982C300.146,465.816 300.307,465.576 300.39,465.264C300.442,465.066 300.469,464.665 300.469,464.061C300.052,464.54 299.541,464.779 298.937,464.779C298.177,464.779 297.588,464.509 297.172,463.967C296.755,463.415 296.547,462.753 296.547,461.982C296.547,461.462 296.64,460.977 296.828,460.529C297.026,460.081 297.302,459.738 297.656,459.498C298.021,459.248 298.448,459.123 298.937,459.123C299.594,459.123 300.13,459.389 300.547,459.92L300.547,459.248L301.422,459.248L301.422,464.029C301.422,464.894 301.333,465.503 301.156,465.857C300.979,466.222 300.698,466.509 300.312,466.717C299.937,466.925 299.474,467.029 298.922,467.029C298.265,467.029 297.734,466.878 297.328,466.576C296.922,466.285 296.724,465.837 296.734,465.232ZM297.515,461.92C297.515,462.639 297.656,463.165 297.937,463.498C298.229,463.831 298.588,463.998 299.015,463.998C299.453,463.998 299.817,463.837 300.109,463.514C300.401,463.18 300.547,462.66 300.547,461.951C300.547,461.274 300.396,460.764 300.094,460.42C299.791,460.076 299.427,459.904 299,459.904C298.594,459.904 298.245,460.076 297.953,460.42C297.661,460.753 297.515,461.253 297.515,461.92ZM302.489,462.014C302.489,460.993 302.77,460.238 303.333,459.748C303.812,459.331 304.39,459.123 305.067,459.123C305.827,459.123 306.447,459.373 306.926,459.873C307.416,460.373 307.661,461.061 307.661,461.936C307.661,462.644 307.551,463.206 307.333,463.623C307.124,464.029 306.817,464.347 306.411,464.576C306.004,464.795 305.557,464.904 305.067,464.904C304.296,464.904 303.671,464.66 303.192,464.17C302.723,463.67 302.489,462.951 302.489,462.014ZM303.442,462.014C303.442,462.722 303.598,463.253 303.911,463.607C304.223,463.962 304.609,464.139 305.067,464.139C305.536,464.139 305.921,463.962 306.223,463.607C306.536,463.253 306.692,462.712 306.692,461.982C306.692,461.305 306.536,460.79 306.223,460.436C305.921,460.081 305.536,459.904 305.067,459.904C304.609,459.904 304.223,460.081 303.911,460.436C303.598,460.779 303.442,461.305 303.442,462.014ZM310.806,463.936L310.931,464.764C310.67,464.826 310.436,464.857 310.228,464.857C309.894,464.857 309.634,464.805 309.447,464.701C309.259,464.587 309.124,464.441 309.04,464.264C308.967,464.087 308.931,463.717 308.931,463.154L308.931,459.982L308.243,459.982L308.243,459.248L308.931,459.248L308.931,457.889L309.868,457.326L309.868,459.248L310.806,459.248L310.806,459.982L309.868,459.982L309.868,463.217C309.868,463.477 309.884,463.649 309.915,463.732C309.947,463.805 309.999,463.868 310.072,463.92C310.144,463.962 310.254,463.982 310.4,463.982C310.504,463.982 310.639,463.967 310.806,463.936ZM314.68,466.904L314.68,459.248L315.54,459.248L315.54,459.967C315.738,459.686 315.962,459.477 316.212,459.342C316.472,459.196 316.779,459.123 317.133,459.123C317.602,459.123 318.019,459.248 318.383,459.498C318.748,459.738 319.019,460.081 319.196,460.529C319.383,460.967 319.477,461.451 319.477,461.982C319.477,462.545 319.373,463.055 319.165,463.514C318.967,463.962 318.675,464.305 318.29,464.545C317.904,464.785 317.498,464.904 317.071,464.904C316.758,464.904 316.477,464.842 316.227,464.717C315.977,464.581 315.774,464.41 315.618,464.201L315.618,466.904L314.68,466.904ZM315.524,462.045C315.524,462.753 315.67,463.279 315.962,463.623C316.253,463.967 316.602,464.139 317.008,464.139C317.425,464.139 317.779,463.962 318.071,463.607C318.373,463.253 318.524,462.706 318.524,461.967C318.524,461.269 318.378,460.743 318.087,460.389C317.795,460.035 317.446,459.857 317.04,459.857C316.644,459.857 316.29,460.045 315.977,460.42C315.675,460.795 315.524,461.337 315.524,462.045ZM324.216,464.092C323.862,464.394 323.524,464.607 323.201,464.732C322.888,464.847 322.55,464.904 322.185,464.904C321.57,464.904 321.102,464.759 320.779,464.467C320.456,464.165 320.294,463.785 320.294,463.326C320.294,463.055 320.352,462.811 320.466,462.592C320.591,462.363 320.753,462.18 320.951,462.045C321.159,461.91 321.388,461.805 321.638,461.732C321.815,461.691 322.091,461.644 322.466,461.592C323.216,461.509 323.774,461.404 324.138,461.279L324.138,461.029C324.138,460.644 324.05,460.373 323.872,460.217C323.633,460.009 323.279,459.904 322.81,459.904C322.372,459.904 322.044,459.982 321.826,460.139C321.617,460.295 321.466,460.566 321.372,460.951L320.451,460.826C320.534,460.441 320.669,460.128 320.857,459.889C321.055,459.639 321.331,459.451 321.685,459.326C322.05,459.191 322.466,459.123 322.935,459.123C323.414,459.123 323.8,459.18 324.091,459.295C324.383,459.41 324.596,459.55 324.732,459.717C324.878,459.884 324.977,460.097 325.029,460.357C325.06,460.514 325.076,460.8 325.076,461.217L325.076,462.467C325.076,463.331 325.096,463.884 325.138,464.123C325.18,464.352 325.258,464.571 325.372,464.779L324.404,464.779C324.3,464.581 324.237,464.352 324.216,464.092ZM324.138,462.014C323.794,462.149 323.284,462.264 322.607,462.357C322.221,462.41 321.945,462.472 321.779,462.545C321.622,462.618 321.503,462.722 321.419,462.857C321.336,462.982 321.294,463.128 321.294,463.295C321.294,463.545 321.388,463.753 321.576,463.92C321.763,464.087 322.039,464.17 322.404,464.17C322.758,464.17 323.076,464.092 323.357,463.936C323.638,463.779 323.846,463.561 323.982,463.279C324.086,463.071 324.138,462.759 324.138,462.342L324.138,462.014ZM326.158,463.123L327.08,462.982C327.132,463.357 327.278,463.644 327.518,463.842C327.757,464.04 328.091,464.139 328.518,464.139C328.945,464.139 329.262,464.05 329.471,463.873C329.679,463.696 329.783,463.488 329.783,463.248C329.783,463.04 329.69,462.873 329.502,462.748C329.377,462.665 329.059,462.561 328.549,462.436C327.861,462.259 327.382,462.107 327.111,461.982C326.851,461.857 326.653,461.686 326.518,461.467C326.382,461.238 326.315,460.988 326.315,460.717C326.315,460.477 326.372,460.253 326.486,460.045C326.601,459.826 326.752,459.649 326.94,459.514C327.085,459.41 327.283,459.321 327.533,459.248C327.794,459.165 328.065,459.123 328.346,459.123C328.783,459.123 329.164,459.186 329.486,459.311C329.82,459.436 330.065,459.607 330.221,459.826C330.377,460.035 330.481,460.321 330.533,460.686L329.627,460.811C329.585,460.519 329.46,460.295 329.252,460.139C329.054,459.982 328.778,459.904 328.424,459.904C327.986,459.904 327.674,459.977 327.486,460.123C327.309,460.259 327.221,460.42 327.221,460.607C327.221,460.732 327.257,460.842 327.33,460.936C327.414,461.04 327.533,461.123 327.69,461.186C327.783,461.227 328.059,461.311 328.518,461.436C329.184,461.613 329.648,461.759 329.908,461.873C330.169,461.977 330.372,462.139 330.518,462.357C330.674,462.566 330.752,462.831 330.752,463.154C330.752,463.467 330.658,463.764 330.471,464.045C330.294,464.316 330.033,464.529 329.69,464.686C329.346,464.831 328.955,464.904 328.518,464.904C327.799,464.904 327.252,464.759 326.877,464.467C326.502,464.165 326.262,463.717 326.158,463.123ZM331.486,463.123L332.408,462.982C332.46,463.357 332.606,463.644 332.846,463.842C333.085,464.04 333.419,464.139 333.846,464.139C334.273,464.139 334.591,464.05 334.799,463.873C335.007,463.696 335.111,463.488 335.111,463.248C335.111,463.04 335.018,462.873 334.83,462.748C334.705,462.665 334.387,462.561 333.877,462.436C333.19,462.259 332.71,462.107 332.44,461.982C332.179,461.857 331.981,461.686 331.846,461.467C331.71,461.238 331.643,460.988 331.643,460.717C331.643,460.477 331.7,460.253 331.815,460.045C331.929,459.826 332.08,459.649 332.268,459.514C332.414,459.41 332.611,459.321 332.861,459.248C333.122,459.165 333.393,459.123 333.674,459.123C334.111,459.123 334.492,459.186 334.815,459.311C335.148,459.436 335.393,459.607 335.549,459.826C335.705,460.035 335.809,460.321 335.861,460.686L334.955,460.811C334.914,460.519 334.789,460.295 334.58,460.139C334.382,459.982 334.106,459.904 333.752,459.904C333.315,459.904 333.002,459.977 332.815,460.123C332.637,460.259 332.549,460.42 332.549,460.607C332.549,460.732 332.585,460.842 332.658,460.936C332.742,461.04 332.861,461.123 333.018,461.186C333.111,461.227 333.387,461.311 333.846,461.436C334.512,461.613 334.976,461.759 335.236,461.873C335.497,461.977 335.7,462.139 335.846,462.357C336.002,462.566 336.08,462.831 336.08,463.154C336.08,463.467 335.986,463.764 335.799,464.045C335.622,464.316 335.361,464.529 335.018,464.686C334.674,464.831 334.283,464.904 333.846,464.904C333.127,464.904 332.58,464.759 332.205,464.467C331.83,464.165 331.591,463.717 331.486,463.123ZM338.205,464.779L336.518,459.248L337.486,459.248L338.361,462.436L338.69,463.623C338.71,463.571 338.809,463.191 338.986,462.482L339.861,459.248L340.815,459.248L341.643,462.451L341.924,463.514L342.236,462.451L343.19,459.248L344.096,459.248L342.377,464.779L341.393,464.779L340.518,461.467L340.299,460.529L339.19,464.779L338.205,464.779ZM344.541,462.014C344.541,460.993 344.823,460.238 345.385,459.748C345.864,459.331 346.442,459.123 347.12,459.123C347.88,459.123 348.5,459.373 348.979,459.873C349.469,460.373 349.713,461.061 349.713,461.936C349.713,462.644 349.604,463.206 349.385,463.623C349.177,464.029 348.87,464.347 348.463,464.576C348.057,464.795 347.609,464.904 347.12,464.904C346.349,464.904 345.724,464.66 345.245,464.17C344.776,463.67 344.541,462.951 344.541,462.014ZM345.495,462.014C345.495,462.722 345.651,463.253 345.963,463.607C346.276,463.962 346.661,464.139 347.12,464.139C347.588,464.139 347.974,463.962 348.276,463.607C348.588,463.253 348.745,462.712 348.745,461.982C348.745,461.305 348.588,460.79 348.276,460.436C347.974,460.081 347.588,459.904 347.12,459.904C346.661,459.904 346.276,460.081 345.963,460.436C345.651,460.779 345.495,461.305 345.495,462.014ZM350.796,464.779L350.796,459.248L351.64,459.248L351.64,460.092C351.859,459.696 352.056,459.436 352.234,459.311C352.421,459.186 352.624,459.123 352.843,459.123C353.155,459.123 353.473,459.227 353.796,459.436L353.484,460.295C353.254,460.16 353.025,460.092 352.796,460.092C352.588,460.092 352.4,460.154 352.234,460.279C352.077,460.404 351.963,460.576 351.89,460.795C351.786,461.128 351.734,461.493 351.734,461.889L351.734,464.779L350.796,464.779ZM357.938,464.779L357.938,464.076C357.595,464.628 357.079,464.904 356.392,464.904C355.954,464.904 355.548,464.785 355.173,464.545C354.808,464.295 354.522,463.956 354.313,463.529C354.116,463.092 354.017,462.592 354.017,462.029C354.017,461.477 354.11,460.977 354.298,460.529C354.485,460.071 354.761,459.722 355.126,459.482C355.491,459.243 355.902,459.123 356.36,459.123C356.694,459.123 356.991,459.196 357.251,459.342C357.511,459.477 357.72,459.66 357.876,459.889L357.876,457.154L358.813,457.154L358.813,464.779L357.938,464.779ZM354.985,462.029C354.985,462.727 355.131,463.253 355.423,463.607C355.725,463.962 356.079,464.139 356.485,464.139C356.892,464.139 357.235,463.972 357.517,463.639C357.808,463.295 357.954,462.785 357.954,462.107C357.954,461.347 357.808,460.79 357.517,460.436C357.225,460.081 356.866,459.904 356.438,459.904C356.032,459.904 355.688,460.076 355.407,460.42C355.126,460.753 354.985,461.29 354.985,462.029Z" style="fill:rgb(28,54,120);fill-rule:nonzero;"/>
        <rect x="514.529" y="40.723" width="33.827" height="33.827" style="fill:rgb(83,198,161);"/>
        <rect x="514.529" y="40.723" width="33.827" height="33.827" style="fill:none;stroke:black;stroke-width:1px;"/>
        <rect x="563.054" y="40.723" width="156.945" height="33.827" style="fill-opacity:0;"/>
        <path d="M573.413,64.556L573.413,51.197L578.429,51.197C579.45,51.197 580.267,51.333 580.882,51.603C581.497,51.874 581.976,52.291 582.319,52.853C582.674,53.416 582.851,54.004 582.851,54.619C582.851,55.192 582.694,55.734 582.382,56.244C582.08,56.744 581.616,57.145 580.991,57.447C581.793,57.687 582.413,58.093 582.851,58.666C583.288,59.239 583.507,59.911 583.507,60.681C583.507,61.306 583.372,61.89 583.101,62.431C582.84,62.963 582.512,63.374 582.116,63.666C581.731,63.958 581.247,64.181 580.663,64.338C580.08,64.484 579.361,64.556 578.507,64.556L573.413,64.556ZM575.194,56.806L578.069,56.806C578.861,56.806 579.424,56.76 579.757,56.666C580.205,56.53 580.543,56.306 580.773,55.994C581.002,55.681 581.116,55.291 581.116,54.822C581.116,54.385 581.007,53.999 580.788,53.666C580.58,53.322 580.278,53.088 579.882,52.963C579.486,52.838 578.809,52.775 577.851,52.775L575.194,52.775L575.194,56.806ZM575.194,62.978L578.507,62.978C579.08,62.978 579.481,62.958 579.71,62.916C580.116,62.843 580.455,62.723 580.726,62.556C581.007,62.379 581.236,62.129 581.413,61.806C581.59,61.484 581.679,61.109 581.679,60.681C581.679,60.181 581.549,59.749 581.288,59.385C581.038,59.02 580.684,58.765 580.226,58.619C579.778,58.463 579.127,58.385 578.273,58.385L575.194,58.385L575.194,62.978ZM585.716,64.556L585.716,54.885L587.185,54.885L587.185,56.353C587.56,55.666 587.904,55.213 588.216,54.994C588.539,54.775 588.893,54.666 589.279,54.666C589.831,54.666 590.393,54.843 590.966,55.197L590.404,56.713C589.997,56.473 589.596,56.353 589.2,56.353C588.836,56.353 588.513,56.463 588.232,56.681C587.95,56.9 587.747,57.197 587.622,57.572C587.435,58.155 587.341,58.796 587.341,59.494L587.341,64.556L585.716,64.556ZM591.335,59.713C591.335,57.921 591.83,56.598 592.819,55.744C593.653,55.025 594.668,54.666 595.866,54.666C597.2,54.666 598.288,55.103 599.132,55.978C599.976,56.843 600.398,58.046 600.398,59.588C600.398,60.827 600.21,61.806 599.835,62.525C599.46,63.234 598.913,63.786 598.194,64.181C597.486,64.577 596.71,64.775 595.866,64.775C594.512,64.775 593.418,64.343 592.585,63.478C591.752,62.603 591.335,61.348 591.335,59.713ZM593.023,59.713C593.023,60.952 593.288,61.885 593.819,62.51C594.361,63.124 595.043,63.431 595.866,63.431C596.679,63.431 597.356,63.124 597.898,62.51C598.439,61.885 598.71,60.937 598.71,59.666C598.71,58.468 598.439,57.562 597.898,56.947C597.356,56.333 596.679,56.025 595.866,56.025C595.043,56.025 594.361,56.333 593.819,56.947C593.288,57.551 593.023,58.473 593.023,59.713ZM604.101,64.556L601.133,54.885L602.836,54.885L604.367,60.463L604.945,62.541C604.976,62.437 605.143,61.77 605.445,60.541L606.992,54.885L608.679,54.885L610.117,60.494L610.601,62.338L611.164,60.478L612.82,54.885L614.414,54.885L611.383,64.556L609.679,64.556L608.148,58.76L607.773,57.119L605.82,64.556L604.101,64.556ZM615.137,61.666L616.762,61.416C616.845,62.062 617.095,62.562 617.512,62.916C617.928,63.26 618.512,63.431 619.262,63.431C620.012,63.431 620.569,63.28 620.934,62.978C621.298,62.666 621.481,62.301 621.481,61.885C621.481,61.52 621.319,61.228 620.996,61.01C620.777,60.864 620.22,60.681 619.324,60.463C618.116,60.15 617.277,59.885 616.809,59.666C616.35,59.447 616.001,59.145 615.762,58.76C615.522,58.364 615.402,57.926 615.402,57.447C615.402,57.02 615.501,56.624 615.699,56.26C615.897,55.885 616.168,55.577 616.512,55.338C616.762,55.15 617.106,54.994 617.543,54.869C617.991,54.734 618.465,54.666 618.965,54.666C619.725,54.666 620.392,54.775 620.965,54.994C621.538,55.213 621.96,55.51 622.231,55.885C622.512,56.26 622.705,56.76 622.809,57.385L621.199,57.603C621.126,57.103 620.913,56.713 620.559,56.431C620.215,56.15 619.725,56.01 619.09,56.01C618.33,56.01 617.788,56.135 617.465,56.385C617.152,56.635 616.996,56.926 616.996,57.26C616.996,57.468 617.059,57.661 617.184,57.838C617.319,58.015 617.533,58.161 617.824,58.275C617.981,58.338 618.46,58.478 619.262,58.697C620.428,58.999 621.241,59.249 621.699,59.447C622.158,59.645 622.517,59.931 622.777,60.306C623.038,60.681 623.168,61.15 623.168,61.713C623.168,62.265 623.007,62.78 622.684,63.26C622.371,63.739 621.913,64.114 621.309,64.385C620.705,64.645 620.022,64.775 619.262,64.775C618.012,64.775 617.053,64.515 616.387,63.994C615.731,63.473 615.314,62.697 615.137,61.666ZM631.746,61.447L633.434,61.65C633.163,62.64 632.668,63.411 631.949,63.963C631.231,64.504 630.309,64.775 629.184,64.775C627.767,64.775 626.642,64.343 625.809,63.478C624.986,62.603 624.574,61.379 624.574,59.806C624.574,58.171 624.991,56.905 625.824,56.01C626.668,55.114 627.757,54.666 629.09,54.666C630.382,54.666 631.434,55.109 632.246,55.994C633.069,56.869 633.481,58.103 633.481,59.697L633.481,60.135L626.262,60.135C626.324,61.197 626.626,62.015 627.168,62.588C627.71,63.15 628.382,63.431 629.184,63.431C629.788,63.431 630.303,63.275 630.731,62.963C631.158,62.64 631.496,62.135 631.746,61.447ZM626.356,58.791L631.762,58.791C631.689,57.978 631.481,57.369 631.137,56.963C630.616,56.327 629.939,56.01 629.106,56.01C628.356,56.01 627.72,56.265 627.199,56.775C626.689,57.275 626.408,57.947 626.356,58.791ZM635.481,64.556L635.481,54.885L636.95,54.885L636.95,56.353C637.325,55.666 637.669,55.213 637.981,54.994C638.304,54.775 638.658,54.666 639.044,54.666C639.596,54.666 640.158,54.843 640.731,55.197L640.169,56.713C639.763,56.473 639.362,56.353 638.966,56.353C638.601,56.353 638.278,56.463 637.997,56.681C637.716,56.9 637.513,57.197 637.388,57.572C637.2,58.155 637.106,58.796 637.106,59.494L637.106,64.556L635.481,64.556ZM655.862,51.197L657.627,51.197L657.627,58.916C657.627,60.26 657.476,61.327 657.174,62.119C656.872,62.911 656.325,63.556 655.534,64.056C654.742,64.546 653.7,64.791 652.409,64.791C651.159,64.791 650.133,64.577 649.33,64.15C648.539,63.713 647.971,63.088 647.627,62.275C647.294,61.452 647.127,60.333 647.127,58.916L647.127,51.197L648.893,51.197L648.893,58.916C648.893,60.072 648.997,60.926 649.205,61.478C649.424,62.02 649.794,62.442 650.315,62.744C650.846,63.046 651.492,63.197 652.252,63.197C653.554,63.197 654.481,62.9 655.034,62.306C655.586,61.713 655.862,60.583 655.862,58.916L655.862,51.197ZM660.866,64.556L660.866,51.197L662.631,51.197L662.631,64.556L660.866,64.556Z" style="fill-rule:nonzero;"/>
        <rect x="514.529" y="96.555" width="33.827" height="33.827" style="fill:rgb(233,237,238);"/>
        <rect x="514.529" y="96.555" width="33.827" height="33.827" style="fill:none;stroke:black;stroke-width:1px;"/>
        <rect x="563.054" y="96.555" width="156.945" height="33.827" style="fill-opacity:0;"/>
        <path d="M573.523,120.389L573.523,107.029L579.444,107.029C580.632,107.029 581.533,107.149 582.148,107.389C582.773,107.628 583.267,108.055 583.632,108.67C584.007,109.274 584.194,109.946 584.194,110.685C584.194,111.623 583.887,112.42 583.273,113.076C582.658,113.722 581.71,114.133 580.429,114.31C580.898,114.54 581.257,114.764 581.507,114.982C582.017,115.451 582.502,116.04 582.96,116.748L585.288,120.389L583.069,120.389L581.304,117.607C580.783,116.805 580.356,116.196 580.023,115.779C579.689,115.352 579.387,115.055 579.116,114.889C578.856,114.711 578.59,114.592 578.319,114.529C578.122,114.477 577.793,114.451 577.335,114.451L575.288,114.451L575.288,120.389L573.523,120.389ZM575.288,112.935L579.085,112.935C579.898,112.935 580.528,112.852 580.976,112.685C581.434,112.508 581.783,112.237 582.023,111.873C582.262,111.508 582.382,111.112 582.382,110.685C582.382,110.05 582.153,109.529 581.694,109.123C581.236,108.717 580.507,108.514 579.507,108.514L575.288,108.514L575.288,112.935ZM586.964,120.389L586.964,107.029L592.011,107.029C592.897,107.029 593.574,107.071 594.042,107.154C594.688,107.269 595.235,107.482 595.683,107.795C596.131,108.097 596.49,108.524 596.761,109.076C597.032,109.628 597.167,110.237 597.167,110.904C597.167,112.04 596.803,113.003 596.074,113.795C595.355,114.576 594.048,114.967 592.152,114.967L588.73,114.967L588.73,120.389L586.964,120.389ZM588.73,113.389L592.183,113.389C593.329,113.389 594.141,113.175 594.621,112.748C595.1,112.321 595.339,111.722 595.339,110.951C595.339,110.389 595.199,109.909 594.917,109.514C594.636,109.118 594.261,108.857 593.792,108.732C593.501,108.649 592.954,108.607 592.152,108.607L588.73,108.607L588.73,113.389ZM613.02,107.029L614.785,107.029L614.785,114.748C614.785,116.092 614.634,117.159 614.332,117.951C614.03,118.743 613.483,119.389 612.691,119.889C611.9,120.378 610.858,120.623 609.566,120.623C608.316,120.623 607.29,120.409 606.488,119.982C605.697,119.545 605.129,118.92 604.785,118.107C604.452,117.284 604.285,116.165 604.285,114.748L604.285,107.029L606.051,107.029L606.051,114.748C606.051,115.904 606.155,116.758 606.363,117.31C606.582,117.852 606.952,118.274 607.473,118.576C608.004,118.878 608.65,119.029 609.41,119.029C610.712,119.029 611.639,118.732 612.191,118.139C612.744,117.545 613.02,116.415 613.02,114.748L613.02,107.029ZM618.024,120.389L618.024,107.029L619.789,107.029L619.789,120.389L618.024,120.389Z" style="fill-rule:nonzero;"/>
    </g>
</svg>
